<?xml version="1.0" encoding="UTF-8" standalone="no"?>
<!-- Created with Inkscape (http://www.inkscape.org/) -->

<svg
   xmlns:dc="http://purl.org/dc/elements/1.1/"
   xmlns:cc="http://creativecommons.org/ns#"
   xmlns:rdf="http://www.w3.org/1999/02/22-rdf-syntax-ns#"
   xmlns:svg="http://www.w3.org/2000/svg"
   xmlns="http://www.w3.org/2000/svg"
   xmlns:sodipodi="http://sodipodi.sourceforge.net/DTD/sodipodi-0.dtd"
   xmlns:inkscape="http://www.inkscape.org/namespaces/inkscape"
   width="292.94666mm"
   height="125.307mm"
   viewBox="0 0 292.94666 125.307"
   version="1.1"
   id="svg8"
   inkscape:version="0.92.4 (5da689c313, 2019-01-14)"
   sodipodi:docname="largedrone.svg">
  <defs
     id="defs2" />
  <sodipodi:namedview
     id="base"
     pagecolor="#ffffff"
     bordercolor="#666666"
     borderopacity="1.0"
     inkscape:pageopacity="0.0"
     inkscape:pageshadow="2"
     inkscape:zoom="0.49497475"
     inkscape:cx="921.48799"
     inkscape:cy="427.60684"
     inkscape:document-units="mm"
     inkscape:current-layer="layer1"
     showgrid="false"
     inkscape:window-width="1796"
     inkscape:window-height="1051"
     inkscape:window-x="-9"
     inkscape:window-y="-9"
     inkscape:window-maximized="1" />
  <metadata
     id="metadata5">
    <rdf:RDF>
      <cc:Work
         rdf:about="">
        <dc:format>image/svg+xml</dc:format>
        <dc:type
           rdf:resource="http://purl.org/dc/dcmitype/StillImage" />
        <dc:title />
      </cc:Work>
    </rdf:RDF>
  </metadata>
  <g
     inkscape:label="Layer 1"
     inkscape:groupmode="layer"
     id="layer1"
     transform="translate(-25.127861,59.71882)">
    <path
       inkscape:connector-curvature="0"
       id="path902"
       d="m 79.501171,-59.497377 c -2.84197,1.686559 -4.99631,4.0294 -5.88233,7.583 -16.01613,1.032179 -31.94366,2.153237 -48.68798,2.457218 l 0.37775,1.46451 c 2.44531,0.22361 46.43127,2.7792 46.11347,3.73259 0.56237,-1.17754 1.13578,-2.23339 1.82211,-2.04742 -0.77229,12.54494 -3.18298,26.157963 -2.91042,39.9148738 l -1.93063,1.60869 c -0.64653,0.53856 2.2318,1.732741 2.20503,2.538339 -0.27454,8.262138 -0.43686,14.4731682 -0.31367,14.7195162 0.37796,0.755962 6.75669,1.465032 6.75669,1.465032 l -0.16381,5.182629 0.10077,1.478458 -1.1648,-0.0646 0.0636,2.48408 1.75081,0.12144 c -0.33646,1.2496 -0.21679,3.48294 1.62006,3.54449 1.01356,0.0816 2.85285,-1.50779 1.09915,-3.83595 l -0.0708,-2.13992 -1.02011,-0.20309 -0.16278,-1.520308 -0.0207,-5.130959 c -0.007,-1.74307 3.53386,-4.8356412 3.64422,-6.5127812 0.46351,-7.04331996 -0.38494,-11.365397 0.56638,-11.917096 0.235,-0.136281 3.03598,-0.11272 4.7439,-0.57309 4.69374,-1.265179 7.09686,-3.820411 6.86676,-3.86643 l 26.190139,3.14089 c -6.7495,6.02120704 -12.94447,14.071748 -19.44998,21.3129062 -0.8402,2.177579 -0.75653,4.487218 -0.35656,6.841958 l -2.846339,1.72289 c -0.5492,0.66184 -1.37238,1.42313 -0.70488,2.25878 0.3054,0.77424 1.53482,0.44947 2.097559,0.36587 l 4.04213,-1.47123 c 0.99757,1.58746 3.84075,0.84057 3.69486,2.06137 -0.29793,2.4932 2.72873,1.84358 4.16357,2.14096 0.66686,0.1382 -0.24144,1.4507 0.39998,1.64434 1.55016,0.46799 4.56523,-0.0661 7.69669,-0.45527 0.452,0.95608 0.0902,4.74932 0.65836,5.58416 2.3395,3.43809 5.22382,4.65943 8.11319,4.47724 2.92985,-0.18474 6.77095,-3.65512 6.9665,-10.48308 l 1.08004,-0.23461 -1.73788,14.00741 c -4.76539,2.68911 -3.55166,9.71364 -0.66249,11.58121 l 8.54987,1.78645 c 5.03777,-1.20184 8.76491,-14.39612 -1.43196,-13.03228 l -0.63355,-9.49916 c 1.16088,-2.34911 1.46381,-5.33034 3.68556,-6.89777 10.76956,-3.4034 25.92945,-7.18371 36.23862,-12.379087 l 0.0207,3.060279 c 0.003,0.404231 -5.29084,5.827908 -0.44597,9.932728 l 6.18928,1.13429 c 4.42334,0.68779 5.88075,-6.07995 4.17959,-9.49399 -1.36676,-1.692117 -5.19318,-0.869757 -5.16247,-0.56275 l 0.35501,-7.377849 c 2.98196,-2.029669 9.7541,-5.4675582 8.80154,-5.8110082 l 53.20036,8.1736582 c 2.42729,9.734019 3.04438,19.812989 2.83446,30.049329 0.83243,1.325 2.35759,1.85408 4.82503,2.55023 l -0.38189,11.15177 -1.69654,-0.0496 -0.0806,2.01745 1.14927,0.53123 0.51833,5.27462 2.66702,-0.008 1.09554,-7.97936 c -8e-4,-0.11358 -1.6652,0.31789 -1.66502,0.20413 0.006,-3.69596 0.76533,-7.37376 0.84698,-10.99416 l 3.49436,0.0413 c 3.7862,-8.12649 6.70161,-16.2529 8.97672,-24.37939 1.32291,-9.054349 2.35075,-15.4307302 2.62516,-23.62387619 0.2081,-6.21343001 -0.2178,-13.75282981 -0.12093,-22.67820181 l 10.48877,6.992331 6.23681,1.22835 -15.3639,-10.771434 c 12.76521,-4.99138 30.08352,-8.23067 44.06241,-10.19163 -15.24243,0.755 -30.63313,2.54979 -45.71502,2.18127 -1.00552,-4.93605 -2.94228,-7.53501 -6.87555,-8.32508 -4.73893,1.3351 -6.32905,4.41946 -7.93957,7.49257 -0.87726,1.67394 -5.26221,-19.50217 -5.26221,-19.50217 l -5.75934,-0.239779 2.02055,19.160069 c -17.34469,-1.28417 -34.58762,-3.01176 -53.0014,-4.47439 l 10.70994,-18.279505 -6.77581,0.353466 -17.37879,25.635128 c -6.65476,-1.632939 -12.36426,-2.103739 -19.00504,-2.758489 l 0.19379,-7.21868 -2.21537,-0.076 -0.1974,7.37422 c 0.11038,-0.12562 -6.84791,1.18616 -10.59264,3.48248 -4.35703,1.457669 -3.7299,5.512991 -1.41748,7.03988 -11.4979,3.770294 -12.04991,5.755722 -17.02842,8.956564 l -32.274,-4.279331 c -3.257769,-2.807301 -6.579919,-5.388713 -10.581269,-5.593453 -0.54057,-0.96425 -0.82302,-2.3725 -1.43866,-2.93833 l -0.85474,-15.61145 44.648439,0.0946 2.97656,-3.02359 -49.345309,-4.112408 c -0.30336,-3.633543 -1.3359,-6.934285 -5.69732,-8.71523 z m 114.560439,23.562908 56.08082,10.553871 c -0.32887,2.006401 -2.31701,1.933792 -3.31452,2.268601 l -21.44832,-2.138373 c -0.17453,0.185121 0.57313,-1.550599 -0.33433,-2.338359 l -16.14115,-1.011819 c -0.68331,0.18497 -0.27397,-1.177632 -0.41081,-1.766822 l -1.34463,-0.117819 c -0.12145,0.76489 0.13264,1.62241 -0.69144,1.850531 l -10.87839,-0.691431 -1.33222,-2.318721 z m 62.00449,11.3838 c 0.0277,0.0773 -0.0109,0.190331 -0.0987,0.32866 -0.61184,2.124242 -0.78359,4.956522 -1.1808,7.709093 -1.17551,8.1457698 -2.04486,17.21233687 -4.50826,17.6862588 l -43.95288,-5.785178 c 4.55307,-5.5685798 13.65049,-14.5610608 14.62444,-16.6506608 9.53023,0.500369 18.2043,2.66505 28.45614,2.200381 1.66628,-1.106332 5.84597,-4.032962 6.56136,-5.159894 0.032,-0.11108 0.0642,-0.221581 0.0987,-0.32866 z"
       style="fill:#cccccc;stroke:none;stroke-width:0.09999999;stroke-linecap:butt;stroke-linejoin:miter;stroke-miterlimit:4;stroke-dasharray:none;stroke-opacity:1" />
    <g
       id="g826"
       transform="translate(-44.601189,-223.00596)">
      <path
         style="fill:#a0a0a0;stroke-width:1"
         d="m 299.00638,287.91648 c -0.37254,-0.37254 -0.67734,-1.39199 -0.67734,-2.26544 0,-0.87346 -0.30622,-2.07845 -0.6805,-2.67776 -0.55482,-0.88841 -0.50486,-1.28374 0.27051,-2.1405 0.65597,-0.72484 1.06702,-2.56022 1.32498,-5.91612 l 0.37397,-4.86526 -2.1967,-1.03258 -2.1967,-1.03257 -0.40549,-6.77067 c -0.68314,-11.407 -1.52524,-19.73808 -2.18699,-21.63634 -0.77542,-2.22441 -1.97681,-2.91007 -5.13152,-2.92872 -1.3398,-0.008 -7.008,-0.76189 -12.596,-1.6755 -5.588,-0.91359 -15.73218,-2.56461 -22.54263,-3.66892 l -12.38264,-2.00782 -4.5507,2.799 c -4.46132,2.74404 -4.55839,2.85171 -4.94229,5.48191 -0.47234,3.23608 -0.2903,3.60129 1.79505,3.60129 4.21785,0 5.40591,7.01408 1.74249,10.28734 -1.90224,1.69965 -2.63854,1.73272 -8.08106,0.36295 -3.60784,-0.90802 -4.77892,-4.63293 -2.68488,-8.53994 1.17248,-2.1876 1.4589,-3.80369 0.67413,-3.80369 -0.25012,0 -2.59962,0.8632 -5.22111,1.9182 -4.50624,1.81352 -9.64816,3.48227 -23.89501,7.75483 l -6.14643,1.84329 -1.32695,2.84962 c -0.9968,2.14065 -1.32616,3.83264 -1.32381,6.80073 0.002,2.17311 0.18974,4.2367 0.41782,4.58575 0.22808,0.34906 1.2371,0.81306 2.24225,1.03112 4.90783,1.0647 5.5019,7.78599 1.11247,12.58646 -1.36219,1.48975 -3.18212,1.59371 -8.01205,0.45767 -4.50887,-1.06052 -5.93465,-2.68495 -5.93465,-6.76153 0,-2.47837 0.29227,-3.36312 1.69334,-5.12614 0.95018,-1.19565 1.69333,-2.8089 1.69333,-3.67594 0,-0.84985 0.16516,-2.40242 0.36704,-3.45017 l 0.36703,-1.905 -2.20148,2.43987 c -2.95827,3.27863 -5.78132,3.74338 -9.50015,1.564 -2.89215,-1.69491 -3.78734,-3.0138 -4.25003,-6.26165 l -0.32164,-2.25777 -2.42024,0.18254 c -1.63903,0.12362 -3.14497,-0.19522 -4.66554,-0.98778 -1.23492,-0.64368 -2.5973,-1.17032 -3.02752,-1.17032 -0.43021,0 -1.27607,-0.67797 -1.87969,-1.5066 -1.18693,-1.6294 -2.95304,-1.88644 -7.09649,-1.03284 -3.42445,0.70549 -4.09868,-1.70098 -0.9211,-3.28758 0.77386,-0.3864 1.53486,-1.45531 1.81989,-2.55624 0.41391,-1.59871 0.68201,-1.83732 1.72879,-1.53863 3.24939,0.92719 4.41312,0.897 8.82252,-0.22882 6.10911,-1.55979 7.94215,-2.53103 13.66294,-7.23932 3.80348,-3.1303 13.098,-10.10604 19.94705,-14.97068 0.98815,-0.70185 1.02364,-0.90789 0.30543,-1.77328 -1.48842,-1.79344 -7.04091,-3.32904 -14.4057,-3.98406 -2.48355,-0.22089 -4.75004,-0.53987 -5.03664,-0.70884 -0.28659,-0.16898 0.44762,-1.12051 1.6316,-2.11452 3.16934,-2.66082 2.92249,-2.82086 -6.47274,-4.19645 -7.96671,-1.16643 -10.59253,-1.42881 -14.29925,-1.42881 -3.64299,0 -3.94841,0.1023 -5.50334,1.84335 -2.98147,3.33834 -3.1681,3.25741 12.74704,5.52812 7.74997,1.10574 8.74889,1.35691 8.74889,2.19982 0,1.91708 -1.36006,1.96591 -13.98822,0.50218 l -12.51772,-1.45093 -3.53925,1.85684 c -1.94659,1.02125 -4.80926,2.14749 -6.36148,2.50275 l -2.82222,0.64592 -0.28222,5.90361 c -0.2611,5.46163 -0.41957,6.11728 -2.11667,8.75762 -2.04926,3.18821 -2.48285,7.15004 -1.02953,9.40725 1.3234,2.05544 1.6742,5.16155 0.67645,5.98962 -1.17583,0.97585 -2.73904,0.5814 -3.46478,-0.87428 -0.33036,-0.66264 -0.94618,-1.62113 -1.36848,-2.12997 -0.62681,-0.75525 -0.64026,-1.31169 -0.0733,-3.02974 0.38201,-1.15752 0.61045,-2.99079 0.50764,-4.07392 -0.17524,-1.84611 -0.36067,-2.01222 -2.96324,-2.6545 -1.52696,-0.37683 -2.95037,-0.9668 -3.16312,-1.31104 -0.21275,-0.34424 -0.26239,-3.6473 -0.1103,-7.34014 0.22877,-5.55461 0.11928,-6.95425 -0.63394,-8.10381 -0.811,-1.23774 -0.81976,-1.56348 -0.0802,-2.98138 0.54675,-1.04825 0.8357,-3.32648 0.8462,-6.67181 0.009,-2.794 0.40738,-8.763 0.8858,-13.26445 0.47843,-4.50144 1.01067,-10.38154 1.18277,-13.06689 l 0.31291,-4.88244 -1.90079,-0.012 c -1.04543,-0.007 -6.47279,-0.40445 -12.06079,-0.88414 -5.587996,-0.47969 -14.858996,-1.15035 -20.602218,-1.49035 -5.743222,-0.34001 -11.013722,-0.73439 -11.712222,-0.8764 -1.504399,-0.30586 -1.691015,-1.72768 -0.282222,-2.15023 0.543278,-0.16295 7.548646,-0.57215 15.567486,-0.90934 8.01884,-0.33718 17.797836,-0.84856 21.731106,-1.13641 3.93328,-0.28784 7.59825,-0.53075 8.1444,-0.53981 0.57592,-0.01 1.73329,-1.2196 2.75553,-2.88095 1.93159,-3.13922 3.34785,-3.96107 6.21682,-3.60756 2.22754,0.27446 4.15046,2.38518 4.8429,5.31586 l 0.47322,2.00285 9.01038,0.99855 c 15.76907,1.74756 30.92414,3.81359 31.54842,4.30087 0.3323,0.25938 1.36618,0.67071 2.29751,0.91408 l 1.69334,0.44248 -1.97556,0.51506 c -1.08655,0.28329 -10.73855,0.69069 -21.44889,0.90535 l -19.47333,0.39028 -0.15886,6.61307 c -0.14578,6.06849 -0.0528,6.77939 1.12889,8.63283 0.73873,1.15866 1.89712,2.149 2.71706,2.32291 0.78613,0.16673 2.05613,0.80467 2.82222,1.41766 l 1.39291,1.11451 -2.44187,-0.3707 c -2.41912,-0.36724 -2.44015,-0.35586 -2.25778,1.22245 0.17843,1.54413 0.27092,1.58664 3.00632,1.38179 3.54338,-0.26536 3.8425,-0.24519 7.62,0.51389 8.06084,1.61981 14.88783,2.6315 23.7097,3.51354 l 6.69527,0.66941 2.79501,-1.52123 c 2.55239,-1.38919 3.33143,-1.52124 8.97455,-1.52124 6.32314,0 7.34804,-0.22985 6.35583,-1.4254 -0.39179,-0.47208 -0.30324,-0.90109 0.28712,-1.39104 1.07971,-0.89608 1.10827,-2.26356 0.0473,-2.26356 -1.30345,0 -2.58032,-1.65255 -2.58032,-3.3395 0,-3.82107 5.85112,-5.14647 12.51633,-2.83521 l 3.81361,1.32242 4.01323,-1.04089 c 3.90862,-1.01377 9.44186,-0.99701 14.22905,0.0431 1.97669,0.42947 2.02018,-0.52882 0.0644,-1.41991 -1.26989,-0.5786 -1.36575,-0.77786 -0.6546,-1.3606 0.45825,-0.37551 2.05206,-2.46073 3.5418,-4.63384 1.48974,-2.17312 3.14369,-4.25667 3.67545,-4.63013 1.18511,-0.83231 5.64957,-7.59947 5.64957,-8.56353 0,-1.38549 4.55856,-7.39785 5.85591,-7.72347 1.86403,-0.46784 5.59303,-0.0739 5.81853,0.61468 0.10483,0.3201 -0.98612,2.3521 -2.42432,4.51556 -1.4382,2.16345 -3.75191,6.09255 -5.14158,8.73133 -1.38967,2.63878 -2.83972,5.17878 -3.22234,5.64444 -0.8987,1.09376 -1.04614,5.48691 -0.25053,7.46509 0.6423,1.597 1.68122,1.96401 6.41988,2.2679 2.15688,0.13832 2.25039,0.22279 2.09251,1.89007 -0.31584,3.33514 1.52057,3.56114 12.69562,1.56241 1.43341,-0.25637 2.07375,-0.0401 3.10445,1.0484 1.13122,1.1947 2.13489,1.45941 7.78965,2.05449 3.57011,0.3757 7.42451,0.82061 8.56533,0.9887 1.66641,0.24552 2.3315,0.0483 3.38279,-1.00296 1.09872,-1.09872 1.91844,-1.31499 5.11165,-1.34868 3.46769,-0.0366 4.98248,-0.40908 4.3274,-1.06417 -0.13743,-0.13742 -10.99744,-2.39531 -24.13338,-5.01752 -13.13593,-2.62221 -24.16562,-5.04977 -24.51043,-5.39458 -0.45959,-0.4596 0.72138,-0.62823 4.42486,-0.63183 6.47461,-0.006 11.30715,-0.56799 10.31251,-1.19865 -0.40985,-0.25987 -1.31668,-0.47638 -2.01518,-0.48113 -0.6985,-0.005 -1.27,-0.26565 -1.27,-0.57976 0,-0.33505 0.87493,-0.45164 2.11667,-0.28207 1.16417,0.15897 8.21267,0.67659 15.66333,1.15027 7.45067,0.47367 14.62324,1.01 15.93905,1.19185 1.9331,0.26715 2.46359,0.14507 2.76328,-0.6359 0.20399,-0.53159 -0.0712,-4.19382 -0.61152,-8.13829 -1.27354,-9.29705 -1.18686,-9.881 1.49974,-10.10406 3.29193,-0.27333 4.1451,0.51149 4.91808,4.52404 1.74006,9.03265 3.14038,14.02 3.92318,13.97274 0.19517,-0.0118 1.04622,-1.02115 1.89122,-2.24304 0.94538,-1.36703 2.13957,-2.35088 3.10445,-2.55765 0.86244,-0.18481 2.1673,-0.57962 2.89969,-0.87737 2.06538,-0.83966 4.58892,0.95532 6.2641,4.45561 l 1.4057,2.93721 7.35262,-0.004 c 4.04395,-0.002 12.54604,-0.38467 18.89355,-0.8495 16.55546,-1.21237 18.13039,-0.38221 4.26353,2.24733 -12.74255,2.41633 -27.94,6.54325 -27.94,7.58718 0,0.25569 1.0795,1.17509 2.39889,2.04312 6.20041,4.07927 10.70821,7.74131 10.0386,8.15515 -1.32363,0.81805 -5.20144,-0.5865 -9.35209,-3.38733 -2.28982,-1.54516 -4.42394,-2.80938 -4.74249,-2.80938 -0.94228,0 -1.09764,1.84678 -1.37704,16.36889 -0.3509,18.23781 -1.48252,26.00934 -5.46401,37.52467 -4.0438,11.69555 -5.50594,14.6413 -7.37488,14.85804 -1.29417,0.15009 -1.52415,0.4961 -1.83444,2.75989 -0.52618,3.83892 -0.43044,7.39734 0.20968,7.79296 0.73094,0.45174 0.71661,3.3805 -0.0297,6.06777 -0.45702,1.64566 -0.87081,2.11667 -1.85952,2.11667 -0.69943,0 -1.57649,-0.3048 -1.94902,-0.67733 z m -6.6206,-57.76527 c 2.00145,-3.41522 1.72837,-5.27134 -0.36992,-2.51429 -1.64832,2.16582 -2.6253,5.07689 -1.70386,5.07689 0.3146,0 1.2478,-1.15317 2.07378,-2.5626 z m -25.47357,-5.03998 c 3.3433,-3.87254 5.6127,-4.69802 10.35923,-3.76813 3.66678,0.71836 15.61371,2.3396 17.24052,2.3396 0.68013,0 1.37038,-0.74882 1.9511,-2.11667 1.52932,-3.60221 3.77317,-21.02556 2.70776,-21.02556 -0.15791,0 -1.36441,0.78653 -2.68111,1.74783 l -2.394,1.74783 -6.77333,-0.28798 c -3.72533,-0.15839 -10.03424,-0.69996 -14.01979,-1.20349 l -7.24645,-0.91551 -4.65342,4.95899 c -2.55937,2.72745 -5.87862,6.356 -7.37609,8.06345 -1.49748,1.70744 -3.00054,3.26587 -3.34014,3.46318 -0.33959,0.19731 -3.41144,-0.23334 -6.82633,-0.957 -10.13159,-2.14702 -16.11239,-1.67105 -17.76327,1.41366 -0.57609,1.07643 -0.81514,3.98238 -0.32761,3.98238 0.13947,0 2.86997,0.48833 6.06778,1.08518 3.19782,0.59685 7.71921,1.25003 10.04754,1.45151 3.13378,0.27117 18.52074,2.39953 22.04679,3.04956 0.17363,0.032 1.515,-1.33097 2.98082,-3.02883 z m -42.39792,-14.97309 c 1.11209,-0.67804 2.85965,-1.13106 4.38809,-1.13753 3.34604,-0.0142 4.46006,-0.67566 3.36334,-1.99713 -0.66427,-0.8004 -1.44955,-0.90613 -4.7036,-0.63332 -3.22634,0.27048 -4.18464,0.59424 -5.50598,1.86017 -1.22299,1.17169 -1.453,1.70955 -0.97655,2.28364 0.82948,0.99945 1.2555,0.95283 3.4347,-0.37583 z m 79.4592,-1.52044 c 0,-1.12846 -1.91566,-0.68796 -2.14305,0.49279 -0.13456,0.6987 0.11503,0.85977 0.98129,0.63324 0.63897,-0.1671 1.16176,-0.67381 1.16176,-1.12603 z m -87.07185,-1.3673 c 2.40941,-0.65577 5.01574,-1.51528 5.79185,-1.91002 3.22831,-1.64199 5.49041,-2.55607 7.63744,-3.08617 1.25137,-0.30897 2.77537,-0.92748 3.38667,-1.37448 1.09505,-0.80074 1.09127,-0.8342 -0.25694,-2.26932 -1.89137,-2.01329 -3.45208,-1.85641 -9.964,1.00156 -12.17009,5.34125 -14.32714,6.14445 -15.76388,5.8698 -1.71623,-0.32808 -1.54384,-0.10764 1.26771,1.62105 2.61365,1.607 2.54374,1.60569 7.90115,0.14758 z m 28.85336,-7.77699 c 1.16532,-0.73837 0.2474,-2.79884 -1.80413,-4.04977 -2.0916,-1.27537 -2.63071,-1.35251 -2.63071,-0.37642 0,0.86624 2.69898,4.93233 3.2659,4.92017 0.22164,-0.005 0.74767,-0.22705 1.16894,-0.49398 z m -90.78017,37.67641 c -1.69938,-0.2816 -3.29469,-0.71692 -3.54514,-0.96736 -0.523,-0.52301 3.6864,-6.03253 5.24718,-6.86783 1.03431,-0.55354 7.74536,0.079 8.9883,0.84717 1.01476,0.62716 0.6538,1.44345 -2.02469,4.57865 -2.83728,3.32108 -2.95926,3.35499 -8.66565,2.40937 z m 8.84709,-10.22117 c -2.08393,-0.35664 -3.21225,-0.81077 -3.10444,-1.24951 0.25906,-1.0544 7.91046,-7.64555 9.27582,-7.99048 0.66233,-0.16732 2.18633,-0.0315 3.38666,0.30176 1.20033,0.33329 3.00792,0.6074 4.01687,0.60913 1.00894,0.002 1.83444,0.17883 1.83444,0.39355 0,0.21472 -1.9685,2.2365 -4.37444,4.49285 -4.7858,4.48822 -4.83531,4.50367 -11.03491,3.4427 z m 104.28614,-30.37684 c -0.20463,-0.3311 -0.23058,-0.74348 -0.0577,-0.9164 0.46433,-0.46433 2.05641,0.2605 2.05641,0.93624 0,0.76609 -1.52237,0.75098 -1.99876,-0.0198 z m -16.6279,-3.06689 c 0,-0.46567 0.35382,-0.84667 0.78627,-0.84667 0.43246,0 0.93248,0.381 1.11118,0.84667 0.22099,0.5759 -0.0305,0.84667 -0.78628,0.84667 -0.61141,0 -1.11117,-0.3808 -1.11117,-0.84667 z m -44.94534,-4.37445 c -0.74849,-1.07241 -0.61166,-7.90119 0.1636,-8.16412 0.43835,-0.14867 0.72963,0.95824 0.8778,3.33581 0.12197,1.95707 0.42543,4.00281 0.67435,4.54609 0.53754,1.17318 -0.92588,1.4139 -1.71575,0.28222 z"
         id="path834"
         inkscape:connector-curvature="0" />
      <path
         style="fill:#666666;stroke-width:1"
         d="m 299.15978,286.19492 c -0.21857,-1.31939 -0.64214,-2.86452 -0.94127,-3.43362 -0.39835,-0.75786 -0.28489,-1.32092 0.42403,-2.10427 0.66862,-0.73881 1.07523,-2.49932 1.31498,-5.69346 0.24192,-3.22294 0.58638,-4.70312 1.13688,-4.8853 0.65087,-0.21539 0.7367,0.59 0.48789,4.57809 -0.22463,3.60054 -0.10257,5.1241 0.47682,5.95128 0.56501,0.80667 0.68014,2.05516 0.41949,4.54899 -0.32313,3.09147 -0.48811,3.43718 -1.64035,3.43718 -1.06853,0 -1.34703,-0.39802 -1.67847,-2.39889 z m -116.25962,-7.18898 c -0.93133,-0.25022 -2.38722,-0.61199 -3.23529,-0.80394 -3.82325,-0.86531 -4.39949,-7.48057 -0.98774,-11.3393 0.61657,-0.69735 1.26319,-2.96294 1.69153,-5.92667 0.93796,-6.48986 0.95472,-7.46962 0.13261,-7.75305 -0.43533,-0.15008 -0.70556,0.27279 -0.70556,1.10408 0,0.74103 -0.64586,2.64341 -1.43526,4.22752 -2.31915,4.65393 -5.84893,5.68204 -10.27235,2.992 -2.19804,-1.33671 -3.29164,-3.40818 -3.67402,-6.95922 -0.26844,-2.49303 -0.17756,-2.76363 1.09002,-3.24556 0.76059,-0.28917 2.37453,-0.52577 3.58654,-0.52577 2.06682,0 6.37698,-1.7556 7.07232,-2.88068 0.17199,-0.27829 0.67872,-0.50599 1.12607,-0.50599 0.44734,0 1.32135,-0.4445 1.94224,-0.98777 0.62089,-0.54328 1.63113,-1.42652 2.24498,-1.96276 0.61384,-0.53623 1.50962,-0.82396 1.99061,-0.63938 0.53236,0.20428 1.42328,-0.25651 2.277,-1.17769 0.92104,-0.99383 1.75504,-1.40138 2.4296,-1.18728 0.61003,0.19361 1.57072,-0.14545 2.36571,-0.83494 1.83445,-1.59101 3.60066,-1.2579 3.82848,0.72205 0.18872,1.64011 1.12066,2.00273 2.24851,0.87489 1.06469,-1.0647 0.79527,-2.48272 -0.59267,-3.11937 -1.26081,-0.57833 -1.25776,-0.58801 0.42333,-1.33958 2.29466,-1.02586 4.219,-3.11758 4.59425,-4.99385 0.8539,-4.26947 -10.4133,-17.89797 -15.73286,-19.03005 -0.84868,-0.18061 -1.41785,-0.53098 -1.26481,-0.7786 0.30358,-0.49121 -1.22643,-2.23456 -1.96111,-2.23456 -0.25026,0 -0.77122,0.381 -1.15769,0.84667 -0.38647,0.46567 -1.02295,0.84667 -1.41439,0.84667 -0.74885,0 -1.51007,-1.96739 -0.97014,-2.50732 0.1732,-0.1732 2.41504,-0.3149 4.98186,-0.3149 5.06922,0 7.24396,-0.57394 8.89667,-2.34791 0.83126,-0.89225 1.51935,-1.07623 3.11217,-0.83211 1.12472,0.17237 3.02499,0.44438 4.22282,0.60446 3.39502,0.45373 7.94584,2.80259 11.20162,5.78163 l 2.97333,2.72059 -2.20962,-2.82222 c -1.21528,-1.55222 -2.44927,-3.13972 -2.74219,-3.52778 -0.37394,-0.49539 -0.25179,-0.70555 0.41008,-0.70555 0.51846,0 2.14688,1.2065 3.61871,2.68111 2.31383,2.31821 4.41469,5.90935 8.00371,13.68128 0.21339,0.46209 1.37815,1.0087 2.58835,1.21467 1.2102,0.20598 4.93086,0.81549 8.26813,1.35448 3.33728,0.539 6.06778,1.20401 6.06778,1.47783 0,0.27381 -1.74813,1.62871 -3.88474,3.01087 -2.13661,1.38216 -4.04161,2.92182 -4.23333,3.42144 -0.19173,0.49963 -0.3486,2.15765 -0.3486,3.68448 0,2.7658 0.007,2.77606 1.86768,2.77606 2.98047,0 4.05899,1.15685 4.05899,4.35377 0,1.73283 -0.38907,3.34524 -1.05096,4.3554 -1.0327,1.5761 -1.12095,1.59817 -5.08,1.27004 -3.41062,-0.28266 -4.22397,-0.55916 -5.29904,-1.80138 -1.6216,-1.87371 -1.60079,-3.40065 0.0963,-7.06358 1.31035,-2.82826 1.39218,-4.50092 0.22017,-4.50092 -0.3028,0 -2.37113,0.79932 -4.59628,1.77627 -5.14178,2.2575 -12.37242,4.71415 -18.15683,6.16889 -2.48355,0.6246 -6.5119,1.78959 -8.95188,2.58887 -4.39964,1.44121 -4.44767,1.47802 -5.80813,4.44964 -1.17979,2.57702 -1.34889,3.68862 -1.20811,7.94192 l 0.16368,4.9455 1.97556,0.48347 c 3.96672,0.97075 5.45964,4.41773 3.71836,8.58521 -1.65641,3.96434 -3.90985,4.94549 -8.51614,3.70792 z m 30.19778,-55.32324 c 0,-0.31045 -0.254,-0.56445 -0.56445,-0.56445 -0.31044,0 -0.56444,0.254 -0.56444,0.56445 0,0.31044 0.254,0.56444 0.56444,0.56444 0.31045,0 0.56445,-0.254 0.56445,-0.56444 z m 4.11235,-2.26657 c -0.27977,-1.06985 -1.29013,-2.16509 -1.29013,-1.39853 0,0.47997 1.11732,2.53621 1.37812,2.53621 0.11524,0 0.0756,-0.51196 -0.088,-1.13768 z m 78.57677,39.48951 c -0.22418,-3.43161 -0.25194,-6.39495 -0.0617,-6.58519 0.80084,-0.80084 1.12278,0.76162 1.36418,6.62062 0.34412,8.3519 -0.75653,8.32196 -1.30249,-0.0355 z m -138.00468,-9.00072 c -1.08655,-0.59486 -2.54705,-1.09222 -3.24555,-1.10523 -0.6985,-0.013 -1.27,-0.27766 -1.27,-0.5881 0,-0.68996 -0.5522,-0.72393 4.76125,0.29282 4.92032,0.94153 5.48761,1.20653 4.25351,1.987 -1.21304,0.76715 -2.28098,0.62794 -4.49921,-0.58649 z m -35.1837,-3.19852 c -0.20696,-0.20696 -0.3763,-0.75846 -0.3763,-1.22556 0,-0.46709 -0.40124,-1.29262 -0.89165,-1.83452 -0.68922,-0.76158 -0.75329,-1.2438 -0.28223,-2.124 0.78754,-1.47153 0.79031,-7.0152 0.004,-7.8016 -0.43108,-0.43109 -0.42023,-1.29372 0.0377,-2.99427 0.35377,-1.31381 0.48912,-2.79032 0.30077,-3.28115 -0.18835,-0.49082 -0.46256,-5.45343 -0.60936,-11.02802 l -0.26691,-10.13562 2.32844,-2.215 c 1.76056,-1.67478 2.53175,-2.99352 3.16202,-5.40708 0.93216,-3.56963 1.96759,-5.80914 3.13302,-6.77636 1.76479,-1.46465 5.0532,2.83352 5.04739,6.59726 -0.004,2.4337 0.71049,3.44666 2.43026,3.44666 0.70008,0 1.56616,0.35339 1.92463,0.78531 0.35845,0.43191 1.81115,0.95916 3.2282,1.17166 2.77932,0.41679 2.72257,0.23133 1.30112,4.25192 -0.38415,1.08656 -0.77896,2.29306 -0.87737,2.68111 -0.0984,0.38806 -0.64597,0.70556 -1.21679,0.70556 -0.57081,0 -2.80129,0.88821 -4.9566,1.97381 -2.15531,1.0856 -4.71315,1.9746 -5.68408,1.97556 -0.97093,9.6e-4 -2.02673,0.31924 -2.34622,0.70729 -0.31949,0.38806 -0.66809,3.37256 -0.77467,6.63223 -0.18579,5.68228 -0.27161,6.03477 -2.08135,8.54851 -1.73919,2.41575 -1.86755,2.88162 -1.63298,5.92666 0.14002,1.81766 0.68017,4.41187 1.20032,5.76493 0.72419,1.88378 0.79303,2.64411 0.29387,3.24556 -0.6966,0.83934 -1.77987,1.0244 -2.39512,0.40915 z m 20.04983,-0.60463 c 0.13752,-0.71405 1.00396,-1.09822 3.18473,-1.41206 1.6477,-0.23713 3.51358,-0.70825 4.14641,-1.04692 1.38078,-0.73898 2.48594,0.0786 1.95975,1.4498 -0.24516,0.63889 -0.97831,0.87944 -2.47383,0.8117 -1.16898,-0.0529 -2.84044,0.19052 -3.71438,0.54107 -2.28548,0.91672 -3.32326,0.80179 -3.10268,-0.34359 z m 13.15832,-11.82791 c -3.37753,-0.44264 -3.42876,-0.64687 -0.82715,-3.29772 2.15682,-2.19764 2.76522,-2.51291 4.75467,-2.46385 1.25475,0.0309 2.91636,0.24999 3.69248,0.48675 1.32939,0.40556 1.34573,0.4562 0.28222,0.87451 -2.01182,0.79132 -3.55908,2.54938 -3.25776,3.70161 0.29939,1.14487 -0.41732,1.25268 -4.64446,0.6987 z m 119.66222,-1.78695 c -5.27756,-0.83436 -9.91306,-1.71662 -10.30112,-1.96059 -2.39229,-1.50402 2.91291,-8.97684 6.90458,-9.72568 0.97945,-0.18374 4.30336,0.10718 7.38646,0.6465 3.08309,0.53932 6.9455,0.93578 8.58311,0.88101 3.62095,-0.1211 4.04674,0.55478 2.37275,3.76639 -0.66152,1.26916 -1.37571,3.52619 -1.58708,5.01563 -0.35713,2.51647 -0.50386,2.71465 -2.07374,2.80093 -0.92918,0.0511 -6.00741,-0.58982 -11.28496,-1.42419 z m 15.52222,0.87478 c 0,-0.40633 0.34015,-1.20396 0.75588,-1.77252 0.68292,-0.93395 0.79019,-0.94436 1.11118,-0.10789 0.19541,0.50923 0.20908,1.30686 0.0304,1.77253 -0.3994,1.04086 -1.89743,1.12603 -1.89743,0.10788 z m -174.97778,-24.0027 c 0,-1.9144 0.22849,-3.48074 0.50774,-3.48074 0.56781,0 0.44215,6.0116 -0.13778,6.59152 -0.20347,0.20348 -0.36996,-1.19637 -0.36996,-3.11078 z m 135.46667,0.27633 c 0,-0.41718 1.524,-1.98085 3.38666,-3.47485 1.86267,-1.49399 3.38667,-2.88667 3.38667,-3.09486 0,-0.94032 -3.85575,0.30867 -5.57281,1.80521 -1.04716,0.91266 -2.50766,1.93447 -3.24556,2.27068 -0.73789,0.33621 -1.34163,0.82452 -1.34163,1.08513 0,1.07953 -1.16057,0.35652 -1.98413,-1.23607 -1.0788,-2.08617 -0.80122,-2.59318 2.18743,-3.99545 1.28518,-0.60301 2.9717,-1.44654 3.74781,-1.87451 0.77611,-0.42798 2.17311,-1.08008 3.10445,-1.44912 0.93133,-0.36904 2.41241,-1.02849 3.29129,-1.46544 2.06305,-1.02568 3.76426,-1.01475 3.76426,0.0242 0,0.45024 0.39174,1.03785 0.87053,1.3058 1.28981,0.72181 -3.09001,5.89849 -7.33276,8.66686 -3.64732,2.37987 -4.26221,2.58652 -4.26221,1.43246 z m 8.18444,-7.70818 c 0.19187,-0.31044 0.0799,-0.56444 -0.24891,-0.56444 -0.32876,0 -0.59776,0.254 -0.59776,0.56444 0,0.31045 0.11201,0.56445 0.24891,0.56445 0.1369,0 0.4059,-0.254 0.59776,-0.56445 z m 69.37005,2.27145 c -0.65203,-0.26358 -3.10912,-1.77148 -5.4602,-3.35089 -2.35108,-1.57942 -4.65026,-2.87167 -5.10927,-2.87167 -0.45903,0 -1.09711,0.75306 -1.41797,1.67347 -0.74357,2.13303 -2.29646,2.53111 -8.20526,2.1034 -5.85464,-0.42379 -8.05031,-1.19063 -8.49624,-2.96734 -0.18966,-0.75569 -0.53131,-1.37397 -0.75922,-1.37397 -0.22792,0 -1.66479,0.889 -3.19305,1.97555 -2.667,1.89617 -2.97747,1.97556 -7.726,1.97556 -2.72102,0 -5.1046,-0.25448 -5.29683,-0.56551 -0.49788,-0.80559 2.0249,-1.63432 3.88986,-1.27781 2.40656,0.46004 7.81696,-2.76297 6.63024,-3.94968 -0.24212,-0.24212 -4.48341,-1.20215 -9.4251,-2.13339 -4.94169,-0.93124 -11.78152,-2.33254 -15.19962,-3.11398 -3.4181,-0.78145 -6.91322,-1.5698 -7.76694,-1.75189 -0.85373,-0.18209 -1.55223,-0.51714 -1.55223,-0.74456 0,-0.95097 8.01063,-1.41514 22.86,-1.32461 8.69245,0.053 14.8083,-0.074 13.59079,-0.28223 -2.57722,-0.44074 -3.46884,-1.78968 -1.18294,-1.78968 0.82239,0 1.9909,-0.26526 2.59668,-0.58946 1.07097,-0.57317 1.06215,-0.64096 -0.31933,-2.45217 -0.78141,-1.02449 -1.42075,-2.35943 -1.42075,-2.96653 0,-1.0873 0.9766,-2.4585 1.751,-2.4585 0.5561,0 1.63162,3.26244 1.65596,5.02311 0.0112,0.8074 0.6546,2.23 1.42985,3.16133 1.25456,1.50716 1.47079,1.58801 1.96663,0.73534 1.34586,-2.31439 3.46742,-4.29883 4.90452,-4.58756 0.85607,-0.17199 2.26795,-0.48719 3.13753,-0.70044 2.02332,-0.4962 3.94152,1.19901 5.25835,4.6471 0.61294,1.60497 1.36716,2.57127 2.16278,2.77096 1.18988,0.29864 20.33865,-0.54184 28.25115,-1.24001 6.00962,-0.53026 3.94437,0.55763 -4.30065,2.26541 -11.73401,2.43045 -23.0749,5.9126 -23.0749,7.08499 0,0.52147 8.21494,6.63201 10.58333,7.87222 0.6985,0.36578 1.27,0.91011 1.27,1.20963 0,0.64322 -0.42887,0.64191 -2.03217,-0.006 z m -93.09321,-6.80523 c -0.57097,-0.63091 -1.8923,-1.67503 -2.93631,-2.32026 -1.22557,-0.75744 -2.01647,-1.76457 -2.232,-2.84222 -0.1836,-0.918 -0.93363,-2.06209 -1.66673,-2.54244 -0.7331,-0.48034 -1.3335,-1.16164 -1.33421,-1.51399 -5.7e-4,-0.35235 1.16719,-2.35206 2.59536,-4.44379 2.22155,-3.25375 2.93522,-3.88967 4.9402,-4.40205 1.28893,-0.32939 3.04202,-0.82726 3.89574,-1.10637 1.36688,-0.44689 1.55222,-0.36369 1.55222,0.69677 0,0.66234 -0.56703,1.80784 -1.26006,2.54554 -1.06935,1.13827 -1.23433,1.86056 -1.09003,4.77221 0.0935,1.88701 0.5071,3.96681 0.91907,4.62177 1.41512,2.2498 1.49407,3.48542 0.30991,4.85075 -0.62517,0.72083 -1.13666,1.65273 -1.13666,2.07089 0,1.12863 -1.37306,0.92088 -2.5565,-0.38681 z m -34.69684,-0.46663 c -0.77611,-0.22699 -1.40167,-0.65526 -1.39013,-0.9517 0.0417,-1.06992 2.25365,-4.20083 2.97039,-4.20432 1.26387,-0.006 3.91065,1.6044 4.29875,2.61577 0.74129,1.93178 -2.77079,3.44932 -5.87901,2.54025 z m -82.68539,-17.00661 c -0.46881,-0.51803 -0.85236,-1.68387 -0.85233,-2.59076 l 6e-5,-1.64889 -4.09228,-0.0141 c -3.75154,-0.0129 -33.981585,-2.12437 -40.922277,-2.85825 -5.994404,-0.63383 -2.654862,-1.19395 9.313333,-1.56208 15.134183,-0.46552 32.024324,-1.44762 34.290004,-1.99385 1.17029,-0.28214 1.97958,-1.00869 2.62008,-2.35221 1.16399,-2.4416 2.66813,-3.81521 4.86891,-4.44639 1.47506,-0.42304 1.92414,-0.27739 3.1771,1.03042 0.80258,0.8377 1.8545,2.68317 2.33762,4.10104 l 0.87839,2.57794 3.21895,0.35162 c 16.80478,1.83569 29.65495,4.35563 28.43452,5.57606 -0.28267,0.28266 -7.12831,0.66252 -15.21255,0.84412 l -14.6986,0.33018 -0.60345,1.32441 c -0.51864,1.13829 -1.02159,1.32915 -3.57887,1.35806 -1.63649,0.0185 -4.17937,0.23185 -5.65083,0.4741 -2.16618,0.35661 -2.83764,0.26117 -3.52778,-0.50143 z m 174.26061,-4.65024 c -0.32373,-0.39506 -0.76984,-2.42955 -0.99134,-4.52107 -0.45404,-4.28722 -0.18564,-4.62976 3.07463,-3.92396 1.79075,0.38767 1.99048,0.65139 2.6572,3.50851 0.94456,4.04779 0.9622,3.89157 -0.50127,4.43905 -2.95724,1.1063 -3.67163,1.19013 -4.23922,0.49747 z m -52.62571,-5.37496 c 0.002,-0.54328 0.96289,-2.25778 2.1363,-3.81 1.96931,-2.60511 2.3382,-2.83546 4.79493,-2.99426 3.21239,-0.20765 3.33927,0.29337 1.00604,3.97251 -1.92232,3.03117 -3.14575,3.81953 -5.92745,3.81953 -1.54161,0 -2.012,-0.23119 -2.00982,-0.98778 z"
         id="path832"
         inkscape:connector-curvature="0" />
      <path
         style="fill:#626262;stroke-width:1"
         d="m 299.15978,286.19492 c -0.21857,-1.31939 -0.64214,-2.86452 -0.94127,-3.43362 -0.39835,-0.75786 -0.28489,-1.32092 0.42403,-2.10427 0.66862,-0.73881 1.07523,-2.49932 1.31498,-5.69346 0.24192,-3.22294 0.58638,-4.70312 1.13688,-4.8853 0.65087,-0.21539 0.7367,0.59 0.48789,4.57809 -0.22463,3.60054 -0.10257,5.1241 0.47682,5.95128 0.56501,0.80667 0.68014,2.05516 0.41949,4.54899 -0.32313,3.09147 -0.48811,3.43718 -1.64035,3.43718 -1.06853,0 -1.34703,-0.39802 -1.67847,-2.39889 z m -116.25962,-7.18898 c -0.93133,-0.25022 -2.38722,-0.61199 -3.23529,-0.80394 -3.82325,-0.86531 -4.39949,-7.48057 -0.98774,-11.3393 0.61657,-0.69735 1.26319,-2.96294 1.69153,-5.92667 0.93796,-6.48986 0.95472,-7.46962 0.13261,-7.75305 -0.43533,-0.15008 -0.70556,0.27279 -0.70556,1.10408 0,0.74103 -0.64586,2.64341 -1.43526,4.22752 -2.31915,4.65393 -5.84893,5.68204 -10.27235,2.992 -2.19804,-1.33671 -3.29164,-3.40818 -3.67402,-6.95922 -0.26844,-2.49303 -0.17756,-2.76363 1.09002,-3.24556 0.76059,-0.28917 2.37453,-0.52577 3.58654,-0.52577 2.06682,0 6.37698,-1.7556 7.07232,-2.88068 0.17199,-0.27829 0.67872,-0.50599 1.12607,-0.50599 0.44734,0 1.32135,-0.4445 1.94224,-0.98777 0.62089,-0.54328 1.63113,-1.42652 2.24498,-1.96276 0.61384,-0.53623 1.50962,-0.82396 1.99061,-0.63938 0.53236,0.20428 1.42328,-0.25651 2.277,-1.17769 0.92104,-0.99383 1.75504,-1.40138 2.4296,-1.18728 0.61003,0.19361 1.57072,-0.14545 2.36571,-0.83494 1.83445,-1.59101 3.60066,-1.2579 3.82848,0.72205 0.18872,1.64011 1.12066,2.00273 2.24851,0.87489 1.06469,-1.0647 0.79527,-2.48272 -0.59267,-3.11937 -1.26081,-0.57833 -1.25776,-0.58801 0.42333,-1.33958 2.13883,-0.9562 3.94298,-2.80833 4.72313,-4.84877 0.48088,-1.25769 0.5806,-0.27125 0.48166,4.76463 -0.0686,3.49289 0.01,6.35039 0.1748,6.35 0.16477,-3.8e-4 0.56667,-0.70826 0.89309,-1.57307 0.33366,-0.88394 1.06745,-1.61975 1.67597,-1.68056 5.26302,-0.52594 7.57358,-1.59474 7.57358,-3.50334 0,-0.51527 0.889,-1.36079 1.97555,-1.87894 1.29304,-0.6166 1.97556,-1.33524 1.97556,-2.08009 0,-1.54983 0.9981,-1.44578 1.26605,0.13197 0.11863,0.6985 0.32679,-0.37015 0.46259,-2.37479 0.22368,-3.30178 -0.22633,-6.21782 -1.44097,-9.33743 l -0.43955,-1.12889 0.92278,1.12889 c 0.91251,1.11632 0.91807,1.11512 0.49927,-0.10743 -0.23293,-0.67998 -0.63714,-1.18798 -0.89824,-1.12889 -0.64609,0.14621 -2.19405,-2.89643 -1.79888,-3.53584 0.17406,-0.28163 0.0191,-0.69585 -0.34439,-0.92049 -0.44643,-0.27591 -0.51413,-0.15121 -0.20862,0.38433 0.49856,0.87397 0.20788,0.58332 -1.97961,-1.97936 -0.77146,-0.90378 -1.08515,-1.46029 -0.6971,-1.23669 1.19626,0.6893 0.74097,-0.41161 -1.02464,-2.47765 -2.07616,-2.42943 -1.19688,-2.90691 1.52708,-0.82925 2.29789,1.7527 5.50283,6.47972 7.46369,11.00837 0.73365,1.69438 1.52148,3.45876 1.75075,3.92085 0.22926,0.46209 1.40701,1.0087 2.61721,1.21467 1.2102,0.20598 4.93086,0.81549 8.26813,1.35448 3.33728,0.539 6.06778,1.20401 6.06778,1.47783 0,0.27381 -1.74813,1.62871 -3.88474,3.01087 -2.13661,1.38216 -4.04161,2.92182 -4.23333,3.42144 -0.19173,0.49963 -0.3486,2.15765 -0.3486,3.68448 0,2.7658 0.007,2.77606 1.86768,2.77606 2.98047,0 4.05899,1.15685 4.05899,4.35377 0,1.73283 -0.38907,3.34524 -1.05096,4.3554 -1.0327,1.5761 -1.12095,1.59817 -5.08,1.27004 -3.41062,-0.28266 -4.22397,-0.55916 -5.29904,-1.80138 -1.6216,-1.87371 -1.60079,-3.40065 0.0963,-7.06358 1.29375,-2.79243 1.39301,-4.50092 0.26148,-4.50092 -0.28009,0 -2.93623,1.03692 -5.90253,2.30426 -2.9663,1.26734 -5.77115,2.15925 -6.23301,1.98202 -0.53661,-0.20591 -0.69541,-0.0887 -0.43993,0.32466 0.27194,0.44 0.0103,0.54503 -0.81813,0.32839 -0.78044,-0.20408 -1.08457,-0.10271 -0.84667,0.28222 0.23791,0.38494 -0.0662,0.48632 -0.84666,0.28223 -0.74704,-0.19536 -1.08118,-0.0972 -0.86425,0.25378 0.22431,0.36293 -0.11098,0.42479 -0.91657,0.16911 -0.79648,-0.25279 -1.14001,-0.19242 -0.92105,0.16186 0.20382,0.32979 -1.35289,0.97234 -3.73932,1.54342 -2.24868,0.53813 -6.46088,1.72733 -9.36044,2.64268 l -5.27192,1.66427 -1.38287,3.02059 c -1.19207,2.6038 -1.36029,3.703 -1.21919,7.9661 l 0.16368,4.9455 1.97556,0.48347 c 3.96672,0.97075 5.45964,4.41773 3.71836,8.58521 -1.65641,3.96434 -3.90985,4.94549 -8.51614,3.70792 z m 30.76222,-64.00302 c 0,-0.11721 -0.4445,-0.56171 -0.98778,-0.98778 -0.89524,-0.70209 -0.9152,-0.68213 -0.21311,0.21311 0.73737,0.94022 1.20089,1.23923 1.20089,0.77467 z m 82.12468,45.90272 c -0.22418,-3.43161 -0.25194,-6.39495 -0.0617,-6.58519 0.80084,-0.80084 1.12278,0.76162 1.36418,6.62062 0.34412,8.3519 -0.75653,8.32196 -1.30249,-0.0355 z m -138.00468,-9.00072 c -1.08655,-0.59486 -2.54705,-1.09222 -3.24555,-1.10523 -0.6985,-0.013 -1.27,-0.27766 -1.27,-0.5881 0,-0.68996 -0.5522,-0.72393 4.76125,0.29282 4.92032,0.94153 5.48761,1.20653 4.25351,1.987 -1.21304,0.76715 -2.28098,0.62794 -4.49921,-0.58649 z m -35.1837,-3.19852 c -0.20696,-0.20696 -0.3763,-0.75846 -0.3763,-1.22556 0,-0.46709 -0.40124,-1.29262 -0.89165,-1.83452 -0.68922,-0.76158 -0.75329,-1.2438 -0.28223,-2.124 0.78754,-1.47153 0.79031,-7.0152 0.004,-7.8016 -0.43108,-0.43109 -0.42023,-1.29372 0.0377,-2.99427 0.35377,-1.31381 0.48912,-2.79032 0.30077,-3.28115 -0.18835,-0.49082 -0.46256,-5.45343 -0.60936,-11.02802 l -0.26691,-10.13562 2.32844,-2.215 c 1.76056,-1.67478 2.53175,-2.99352 3.16202,-5.40708 1.55479,-5.95393 3.13674,-7.96934 5.14902,-6.55988 2.45484,1.71944 4.12329,7.60705 2.44896,8.64184 -0.32207,0.19905 -0.84918,1.05524 -1.17137,1.90264 -0.42449,1.11651 -0.97817,1.54074 -2.01086,1.54074 -0.7838,0 -1.42508,-0.25615 -1.42508,-0.56923 0,-1.08922 -2.16631,0.77635 -3.35272,2.88727 -1.06502,1.89495 -1.09491,2.1848 -0.30664,2.97308 0.48038,0.48038 1.69076,1.02171 2.68972,1.20296 0.99897,0.18125 3.7213,0.66274 6.04964,1.06998 l 4.23333,0.74045 -3.26165,1.49219 c -1.79391,0.8207 -3.98531,1.49219 -4.86978,1.49219 -0.88447,0 -1.86952,0.3175 -2.18901,0.70555 -0.31949,0.38806 -0.66809,3.37256 -0.77467,6.63223 -0.18579,5.68228 -0.27161,6.03477 -2.08135,8.54851 -1.73919,2.41575 -1.86755,2.88162 -1.63298,5.92666 0.14002,1.81766 0.68017,4.41187 1.20032,5.76493 0.72419,1.88378 0.79303,2.64411 0.29387,3.24556 -0.6966,0.83934 -1.77987,1.0244 -2.39512,0.40915 z m 20.04983,-0.60463 c 0.13752,-0.71405 1.00396,-1.09822 3.18473,-1.41206 1.6477,-0.23713 3.51358,-0.70825 4.14641,-1.04692 1.38078,-0.73898 2.48594,0.0786 1.95975,1.4498 -0.24516,0.63889 -0.97831,0.87944 -2.47383,0.8117 -1.16898,-0.0529 -2.84044,0.19052 -3.71438,0.54107 -2.28548,0.91672 -3.32326,0.80179 -3.10268,-0.34359 z m 13.15832,-11.82791 c -3.37753,-0.44264 -3.42876,-0.64687 -0.82715,-3.29772 2.15682,-2.19764 2.76522,-2.51291 4.75467,-2.46385 1.25475,0.0309 2.91636,0.24999 3.69248,0.48675 1.32939,0.40556 1.34573,0.4562 0.28222,0.87451 -2.01182,0.79132 -3.55908,2.54938 -3.25776,3.70161 0.29939,1.14487 -0.41732,1.25268 -4.64446,0.6987 z m 135.18444,-0.91217 c 0,-0.40633 0.34015,-1.20396 0.75588,-1.77252 0.68292,-0.93395 0.79019,-0.94436 1.11118,-0.10789 0.19541,0.50923 0.20908,1.30686 0.0304,1.77253 -0.3994,1.04086 -1.89743,1.12603 -1.89743,0.10788 z m -86.00222,-0.67895 c -0.19238,-0.50135 0.0383,-1.66196 0.51254,-2.57912 0.70012,-1.35388 0.74221,-2.06855 0.22373,-3.79905 -0.35123,-1.17232 -0.55058,-2.75532 -0.44299,-3.51779 0.16658,-1.1806 0.57249,-1.43208 2.73561,-1.69479 1.397,-0.16967 3.11925,-0.67767 3.82722,-1.12889 1.90301,-1.21287 2.42669,0.0476 2.00416,4.82404 -0.50195,5.67428 -1.85184,7.35951 -6.7476,8.42388 -1.34424,0.29226 -1.84594,0.1668 -2.11267,-0.52828 z m 8.10889,-11.00004 c 0,-0.31045 -0.254,-0.56445 -0.56445,-0.56445 -0.31044,0 -0.56444,0.254 -0.56444,0.56445 0,0.31044 0.254,0.56444 0.56444,0.56444 0.31045,0 0.56445,-0.254 0.56445,-0.56444 z m -97.08445,-12.32371 c 0,-1.9144 0.22849,-3.48074 0.50774,-3.48074 0.56781,0 0.44215,6.0116 -0.13778,6.59152 -0.20347,0.20348 -0.36996,-1.19637 -0.36996,-3.11078 z m 25.71851,1.43381 c 0.21197,-0.55667 0.52758,-0.86994 0.70137,-0.69615 0.17379,0.17379 3.6e-4,0.62924 -0.38539,1.01212 -0.55746,0.55331 -0.62229,0.48847 -0.31598,-0.31597 z m 109.74816,-1.15748 c 0,-0.41718 1.524,-1.98085 3.38666,-3.47485 1.86267,-1.49399 3.38667,-2.88667 3.38667,-3.09486 0,-0.94032 -3.85575,0.30867 -5.57281,1.80521 -1.04716,0.91266 -2.50766,1.93447 -3.24556,2.27068 -0.73789,0.33621 -1.34163,0.82452 -1.34163,1.08513 0,1.07953 -1.16057,0.35652 -1.98413,-1.23607 -1.0788,-2.08617 -0.80122,-2.59318 2.18743,-3.99545 1.28518,-0.60301 2.9717,-1.44654 3.74781,-1.87451 0.77611,-0.42798 2.17311,-1.08008 3.10445,-1.44912 0.93133,-0.36904 2.41241,-1.02849 3.29129,-1.46544 2.06305,-1.02568 3.76426,-1.01475 3.76426,0.0242 0,0.45024 0.39174,1.03785 0.87053,1.3058 1.28981,0.72181 -3.09001,5.89849 -7.33276,8.66686 -3.64732,2.37987 -4.26221,2.58652 -4.26221,1.43246 z m 8.18444,-7.70818 c 0.19187,-0.31044 0.0799,-0.56444 -0.24891,-0.56444 -0.32876,0 -0.59776,0.254 -0.59776,0.56444 0,0.31045 0.11201,0.56445 0.24891,0.56445 0.1369,0 0.4059,-0.254 0.59776,-0.56445 z m 69.37005,2.27145 c -0.65203,-0.26358 -3.10912,-1.77148 -5.4602,-3.35089 -2.35108,-1.57942 -4.65026,-2.87167 -5.10927,-2.87167 -0.45903,0 -1.09711,0.75306 -1.41797,1.67347 -0.74357,2.13303 -2.29646,2.53111 -8.20526,2.1034 -5.74237,-0.41566 -8.05257,-1.19964 -8.47316,-2.87542 -0.25652,-1.02204 -0.74321,-1.2979 -2.39969,-1.36017 -1.23085,-0.0463 -2.57994,-0.54975 -3.30944,-1.23508 -0.9132,-0.85791 -3.55111,-1.59408 -10.20524,-2.84803 -4.93554,-0.93008 -11.77033,-2.33043 -15.18843,-3.11187 -3.4181,-0.78145 -6.91322,-1.5698 -7.76694,-1.75189 -0.85373,-0.18209 -1.55223,-0.51714 -1.55223,-0.74456 0,-0.95097 8.01063,-1.41514 22.86,-1.32461 8.69245,0.053 14.8083,-0.074 13.59079,-0.28223 -2.57722,-0.44074 -3.46884,-1.78968 -1.18294,-1.78968 0.82239,0 1.9909,-0.26526 2.59668,-0.58946 1.07097,-0.57317 1.06215,-0.64096 -0.31933,-2.45217 -0.78141,-1.02449 -1.42075,-2.35943 -1.42075,-2.96653 0,-1.0873 0.9766,-2.4585 1.751,-2.4585 0.5561,0 1.63162,3.26244 1.65596,5.02311 0.0112,0.8074 0.6546,2.23 1.42985,3.16133 1.25456,1.50716 1.47079,1.58801 1.96663,0.73534 1.34586,-2.31439 3.46742,-4.29883 4.90452,-4.58756 0.85607,-0.17199 2.26795,-0.48719 3.13753,-0.70044 2.02332,-0.4962 3.94152,1.19901 5.25835,4.6471 0.61294,1.60497 1.36716,2.57127 2.16278,2.77096 1.18988,0.29864 20.33865,-0.54184 28.25115,-1.24001 6.00962,-0.53026 3.94437,0.55763 -4.30065,2.26541 -11.73401,2.43045 -23.0749,5.9126 -23.0749,7.08499 0,0.52147 8.21494,6.63201 10.58333,7.87222 0.6985,0.36578 1.27,0.91011 1.27,1.20963 0,0.64322 -0.42887,0.64191 -2.03217,-0.006 z m -93.64964,-7.22688 c -0.936,-0.84463 -2.27333,-1.91668 -2.97184,-2.38235 -0.69851,-0.46566 -1.49866,-1.6589 -1.77811,-2.65164 -0.5014,-1.7812 -0.47289,-1.81667 2.16415,-2.69255 3.64471,-1.21058 5.19536,-0.93765 6.31146,1.11086 1.64354,3.01657 1.73551,3.95629 0.52393,5.35325 -0.62517,0.72083 -1.13666,1.65273 -1.13666,2.07089 0,1.19289 -1.25676,0.8665 -3.11293,-0.80846 z m -34.14041,-0.045 c -0.77611,-0.22699 -1.40167,-0.65526 -1.39013,-0.9517 0.0417,-1.06992 2.25365,-4.20083 2.97039,-4.20432 1.26387,-0.006 3.91065,1.6044 4.29875,2.61577 0.74129,1.93178 -2.77079,3.44932 -5.87901,2.54025 z M 118.55921,181.9201 c -0.46881,-0.51803 -0.85236,-1.68387 -0.85233,-2.59076 l 6e-5,-1.64889 -4.09228,-0.0141 c -3.75154,-0.0129 -33.981585,-2.12437 -40.922277,-2.85825 -5.994404,-0.63383 -2.654862,-1.19395 9.313333,-1.56208 15.134183,-0.46552 32.024324,-1.44762 34.290004,-1.99385 1.17029,-0.28214 1.97958,-1.00869 2.62008,-2.35221 1.16399,-2.4416 2.66813,-3.81521 4.86891,-4.44639 1.47506,-0.42304 1.92414,-0.27739 3.1771,1.03042 0.80258,0.8377 1.8545,2.68317 2.33762,4.10104 l 0.87839,2.57794 3.21895,0.35162 c 16.80478,1.83569 29.65495,4.35563 28.43452,5.57606 -0.28267,0.28266 -7.12831,0.66252 -15.21255,0.84412 l -14.6986,0.33018 -0.60345,1.32441 c -0.51864,1.13829 -1.02159,1.32915 -3.57887,1.35806 -1.63649,0.0185 -4.17937,0.23185 -5.65083,0.4741 -2.16618,0.35661 -2.83764,0.26117 -3.52778,-0.50143 z m 174.06397,-4.89703 c -0.68725,-0.84466 -0.66801,-0.92121 0.15426,-0.61342 0.51673,0.19341 1.90394,-0.14003 3.08269,-0.74099 2.57229,-1.31143 2.46891,-1.30172 2.46891,-0.23201 0,0.47335 -0.5715,1.07443 -1.27,1.33574 -3.14489,1.1765 -3.65894,1.20555 -4.43586,0.25068 z m 3.7666,-7.36161 c -0.30632,-0.80444 -0.24148,-0.86928 0.31597,-0.31597 0.38576,0.38288 0.55918,0.83834 0.38539,1.01212 -0.17378,0.17379 -0.4894,-0.13948 -0.70136,-0.69615 z"
         id="path830"
         inkscape:connector-curvature="0" />
      <path
         style="fill:#121212;stroke-width:1"
         d="m 299.58975,285.98145 c -0.0625,-1.4368 -0.34974,-2.8973 -0.63825,-3.24555 -0.33866,-0.40879 -0.16256,-1.07985 0.49685,-1.89345 l 1.02141,-1.26026 0.82368,1.26026 c 1.17453,1.79705 0.67233,7.75136 -0.65376,7.75136 -0.72078,0 -0.9624,-0.60118 -1.04993,-2.61236 z m -117.44649,-7.75209 c -3.76247,-0.80151 -5.16977,-2.36443 -5.16977,-5.74144 0,-1.78814 0.38349,-2.88991 1.44495,-4.15138 1.59836,-1.89955 2.50616,-4.49725 2.50616,-7.17144 0,-2.6277 1.06072,-5.15958 2.29702,-5.48288 0.67147,-0.17559 1.23254,-0.964 1.44616,-2.0321 0.19198,-0.95986 0.5713,-1.7452 0.84293,-1.7452 0.6835,0 0.62534,0.54203 -0.37231,3.46997 -0.66961,1.96519 -0.7657,3.55187 -0.42334,6.9907 l 0.44288,4.44851 2.25777,0.45382 c 3.97046,0.79809 5.08305,3.32668 3.33046,7.56918 -1.7831,4.31637 -2.65362,4.65963 -8.60291,3.39226 z m -11.35724,-16.58777 c 0.0118,-0.23284 1.02778,-1.11942 2.25778,-1.9702 2.15104,-1.48784 3.09567,-3.137 1.43096,-2.49819 -1.01768,0.39052 -2.24551,-1.03597 -1.82805,-2.12385 0.17329,-0.45158 0.7732,-0.82819 1.33315,-0.83691 0.55994,-0.009 1.84358,-0.1793 2.85252,-0.37908 1.61251,-0.31929 1.83445,-0.21672 1.83445,0.84785 0,1.8002 -1.39395,4.80304 -2.86646,6.17488 -1.23439,1.15002 -5.06314,1.74978 -5.01435,0.7855 z m -5.3101,-4.79778 c -0.62642,-2.3375 -0.40516,-3.24556 0.79084,-3.24556 1.46944,0 1.99744,1.38472 1.19748,3.14044 -0.78272,1.71788 -1.54531,1.7582 -1.98832,0.10512 z m 60.90699,-5.99544 c -2.46629,-0.52861 -3.52934,-2.72549 -2.66727,-5.51214 0.37095,-1.19911 1.13701,-2.77516 1.70235,-3.50233 l 1.02789,-1.32213 1.91092,1.1621 c 1.13781,0.69195 2.4142,1.03579 3.15489,0.84988 1.99858,-0.50161 3.80404,1.69365 3.4067,4.14219 -0.56021,3.45215 -1.75694,4.68388 -4.4768,4.60776 -1.31223,-0.0367 -3.13864,-0.22813 -4.05868,-0.42533 z m -103.38276,-3.31789 c -0.17363,-0.54328 -0.57477,-1.53161 -0.89142,-2.19628 -0.39334,-0.82567 -0.38984,-1.54066 0.0111,-2.25704 0.514,-0.91846 0.73205,-0.70969 1.7576,1.68282 0.64394,1.50225 1.028,2.96242 0.85347,3.24482 -0.51334,0.83061 -1.3905,0.59021 -1.73072,-0.47432 z m 78.83435,-2.58572 c 0.0612,-1.58566 1.52439,-3.97152 2.53789,-4.13822 0.60805,-0.10001 2.12155,-0.33987 3.36332,-0.53302 2.52353,-0.39253 4.23334,-1.61514 4.23334,-3.0271 0,-0.51527 0.889,-1.36079 1.97555,-1.87894 1.29304,-0.6166 1.97556,-1.33524 1.97556,-2.08009 0,-0.62592 0.254,-1.13803 0.56444,-1.13803 0.61026,0 0.65424,4.31966 0.0717,7.03887 -0.39495,1.84351 -1.2953,2.28852 -10.09057,4.98742 -3.09224,0.94888 -4.64811,1.20727 -4.63121,0.76911 z m 24.24566,-6.322 c 0,-0.86228 0.32272,-1.3934 0.84666,-1.3934 0.46567,0 0.84667,0.48083 0.84667,1.0685 0,0.58768 -0.381,1.2147 -0.84667,1.3934 -0.61168,0.23473 -0.84666,-0.0618 -0.84666,-1.0685 z M 124.8423,231.16159 c 0.26649,-0.85373 0.48453,-4.06947 0.48453,-7.1461 0,-3.94692 0.20603,-5.66358 0.6998,-5.83067 0.92484,-0.31296 0.61302,11.47441 -0.3512,13.27607 -0.93189,1.74125 -1.41582,1.5674 -0.83313,-0.2993 z m 4.15342,-25.5281 c 0,-0.7053 2.62131,-2.43917 3.29993,-2.18275 0.29591,0.11182 0.3113,0.73286 0.0363,1.46418 -0.32228,0.85694 -0.94249,1.27 -1.90693,1.27 -0.78611,0 -1.42929,-0.24815 -1.42929,-0.55143 z m -2.477,-1.6044 c -0.19776,-0.31999 -0.11851,-1.17233 0.17611,-1.8941 0.29462,-0.72176 0.68696,-2.24667 0.87186,-3.38868 0.1849,-1.14202 0.78959,-2.63633 1.34375,-3.3207 0.83646,-1.03297 1.20677,-1.1377 2.18039,-0.61663 1.16676,0.62443 2.42044,3.31308 2.42044,5.19089 0,1.03741 -1.07735,1.66949 -2.84554,1.66949 -0.58294,0 -1.67358,0.66185 -2.42366,1.47077 -0.80453,0.86765 -1.51122,1.23219 -1.72335,0.88896 z m 177.54358,-1.78262 c -2.1757,-0.52575 -2.71853,-0.98534 -3.01497,-2.55266 -0.22005,-1.16342 -0.97986,-1.26497 -3.97798,-0.53169 -1.29488,0.31671 -1.62739,0.15235 -2.07532,-1.02578 -0.48432,-1.27385 -1.14734,-1.51613 -7.20696,-2.63356 -9.32211,-1.71905 -16.55136,-3.4448 -16.55136,-3.9511 0,-0.76068 4.6684,-1.8539 9.02293,-2.11294 4.46502,-0.2656 18.12083,0.5415 20.04596,1.18479 0.9022,0.30147 1.35558,-0.0481 2.25778,-1.74101 1.7417,-3.2681 3.64595,-5.27538 5.00458,-5.27538 0.67944,0 1.82267,-0.41138 2.54051,-0.91417 2.01696,-1.41274 3.81334,-0.27164 5.47019,3.47479 0.75888,1.71595 1.78051,3.27369 2.27028,3.46163 0.48977,0.18795 6.25561,0.0617 12.81298,-0.2805 6.55736,-0.34222 12.01244,-0.53224 12.12241,-0.42228 0.10996,0.10996 -2.76682,0.88984 -6.39285,1.73306 -7.25927,1.68811 -15.55092,4.34521 -17.45716,5.59422 -1.13371,0.74284 -1.46482,0.61299 -4.42489,-1.73523 -1.75972,-1.39598 -3.46269,-2.45042 -3.78439,-2.34319 -0.67089,0.22364 2.35157,3.61735 4.72529,5.30571 1.44906,1.03068 1.5511,1.31841 1.09434,3.08576 l -0.50374,1.94909 -5.04544,0.0932 c -2.775,0.0513 -5.89448,-0.11198 -6.93219,-0.36274 z m -71.52705,-6.38843 c -1.51807,-0.84955 -0.9289,-2.66354 1.14678,-3.53081 1.07658,-0.44983 2.34073,-0.81787 2.80921,-0.81787 0.94344,0 2.37979,1.94751 2.66766,3.61699 0.16253,0.9426 -0.18855,1.08374 -2.81365,1.13117 -1.64964,0.0298 -3.36414,-0.14996 -3.81,-0.39948 z m 66.92268,-8.89754 c 0,-0.32877 0.254,-0.44078 0.56445,-0.24891 0.31044,0.19186 0.56444,0.46085 0.56444,0.59775 0,0.1369 -0.254,0.24891 -0.56444,0.24891 -0.31045,0 -0.56445,-0.26899 -0.56445,-0.59775 z m -180.4811,-5.98496 c -0.38806,-0.15658 -0.70556,-1.13754 -0.70556,-2.1799 0,-2.14885 -0.79833,-2.93884 -1.97935,-1.95868 -0.61636,0.51153 -3.31069,0.45977 -11.6875,-0.22454 -5.987566,-0.48914 -14.442482,-1.16916 -18.788704,-1.51117 -4.346222,-0.34201 -7.973853,-0.6929 -8.061403,-0.77975 -0.08755,-0.0868 4.357451,-0.32418 9.877778,-0.52741 14.169759,-0.52164 29.090599,-1.52541 29.994299,-2.0178 0.42142,-0.22962 1.43742,-1.66211 2.25778,-3.18332 1.39414,-2.58521 1.65093,-2.7773 3.93215,-2.94143 3.00141,-0.21596 3.8474,0.44284 4.8106,3.74619 0.4136,1.41843 1.11027,2.75785 1.54817,2.97649 0.4379,0.21865 4.95904,1.05013 10.04697,1.84774 6.52414,1.02276 9.57821,1.74618 10.36162,2.45436 1.08845,0.98394 1.06699,1.01202 -1.06635,1.39496 -1.19745,0.21494 -5.66382,0.40544 -9.92527,0.42333 -7.62567,0.032 -7.76271,0.0548 -8.6727,1.44364 -0.87868,1.34104 -1.18063,1.4089 -6.08078,1.36655 -2.83591,-0.0245 -5.4737,-0.17267 -5.86175,-0.32926 z"
         id="path828"
         inkscape:connector-curvature="0" />
    </g>
  </g>
</svg>
