<?xml version="1.0" encoding="UTF-8" standalone="no"?>
<!-- Created with Inkscape (http://www.inkscape.org/) -->

<svg
   xmlns:dc="http://purl.org/dc/elements/1.1/"
   xmlns:cc="http://creativecommons.org/ns#"
   xmlns:rdf="http://www.w3.org/1999/02/22-rdf-syntax-ns#"
   xmlns:svg="http://www.w3.org/2000/svg"
   xmlns="http://www.w3.org/2000/svg"
   xmlns:sodipodi="http://sodipodi.sourceforge.net/DTD/sodipodi-0.dtd"
   xmlns:inkscape="http://www.inkscape.org/namespaces/inkscape"
   width="125.18463mm"
   height="125.18463mm"
   viewBox="0 0 125.18463 125.18463"
   version="1.1"
   id="svg8"
   inkscape:export-filename="C:\Users\Marcus T\Desktop\Xampp\htdocs\Flyee\images\imgout\social\Mimini.png"
   inkscape:export-xdpi="300"
   inkscape:export-ydpi="300"
   inkscape:version="0.92.4 (5da689c313, 2019-01-14)"
   sodipodi:docname="mimini.svg">
  <defs
     id="defs2" />
  <sodipodi:namedview
     id="base"
     pagecolor="#ffffff"
     bordercolor="#666666"
     borderopacity="1.0"
     inkscape:pageopacity="0.0"
     inkscape:pageshadow="2"
     inkscape:zoom="0.7"
     inkscape:cx="318.04654"
     inkscape:cy="314.08642"
     inkscape:document-units="mm"
     inkscape:current-layer="layer1"
     showgrid="false"
     inkscape:object-paths="false"
     inkscape:snap-page="true"
     inkscape:snap-bbox="true"
     inkscape:object-nodes="false"
     inkscape:snap-nodes="true"
     inkscape:snap-others="true"
     showguides="true"
     inkscape:window-width="958"
     inkscape:window-height="991"
     inkscape:window-x="-8"
     inkscape:window-y="0"
     inkscape:window-maximized="0"
     inkscape:snap-object-midpoints="true"
     inkscape:snap-center="false"
     inkscape:bbox-paths="true"
     inkscape:bbox-nodes="true"
     inkscape:lockguides="false"
     inkscape:snap-midpoints="true"
     inkscape:snap-smooth-nodes="true"
     inkscape:guide-bbox="true">
    <sodipodi:guide
       position="11.61119,70.882762"
       orientation="0,1"
       id="guide861"
       inkscape:locked="false" />
  </sodipodi:namedview>
  <metadata
     id="metadata5">
    <rdf:RDF>
      <cc:Work
         rdf:about="">
        <dc:format>image/svg+xml</dc:format>
        <dc:type
           rdf:resource="http://purl.org/dc/dcmitype/StillImage" />
        <dc:title></dc:title>
      </cc:Work>
    </rdf:RDF>
  </metadata>
  <g
     inkscape:label="Layer 1"
     inkscape:groupmode="layer"
     id="layer1"
     transform="translate(0.00145496,0.25496008)">
    <rect
       style="opacity:0.73959997;fill:#ffffff;fill-opacity:1;fill-rule:evenodd;stroke:#000000;stroke-width:0.10249335;stroke-miterlimit:4;stroke-dasharray:none;stroke-dashoffset:0;stroke-opacity:0.99521532"
       id="rect869"
       width="125.18463"
       height="125.18463"
       x="-0.00145496"
       y="-0.25496009" />
    <path
       style="fill:#ff8080;stroke:#000000;stroke-width:0.26458332px;stroke-linecap:butt;stroke-linejoin:miter;stroke-opacity:1"
       d="m 13.877607,44.133727 c 0,0 -5.2288037,-14.650817 -5.0931547,-15.157065 0.135649,-0.506249 4.4486857,-11.655108 4.4486857,-11.655108 h 22.159665 l 4.643722,11.697549 -3.542804,15.249765 c 1.183956,20.340907 25.692414,2.302729 28.365549,0.706622 l 0.02686,-15.348666 8.514643,-0.545703 V 47.474597 C 66.537539,58.600184 57.429443,64.510649 35.800455,67.68801 V 90.772263 H 13.743972 Z"
       id="path844"
       inkscape:connector-curvature="0"
       sodipodi:nodetypes="cscccccccccccc" />
    <ellipse
       style="opacity:1;fill:#000000;fill-opacity:1;fill-rule:evenodd;stroke:#000000;stroke-width:0.10249335;stroke-miterlimit:4;stroke-dasharray:none;stroke-dashoffset:0;stroke-opacity:0.99521532"
       id="path846"
       cx="18.905691"
       cy="27.687473"
       rx="5.1959724"
       ry="4.8406968" />
    <ellipse
       ry="4.8406968"
       rx="5.1959724"
       cy="27.876461"
       cx="30.581306"
       id="ellipse859"
       style="opacity:1;fill:#000000;fill-opacity:1;fill-rule:evenodd;stroke:#000000;stroke-width:0.10249335;stroke-miterlimit:4;stroke-dasharray:none;stroke-dashoffset:0;stroke-opacity:0.99521532" />
    <circle
       style="opacity:1;fill:#ffffff;fill-opacity:1;fill-rule:evenodd;stroke:#000000;stroke-width:0.10249335;stroke-miterlimit:4;stroke-dasharray:none;stroke-dashoffset:0;stroke-opacity:0.99521532"
       id="path873"
       cx="33.04895"
       cy="29.906862"
       r="0.9302035" />
    <circle
       r="0.9302035"
       cy="29.906862"
       cx="20.854782"
       id="circle875"
       style="opacity:1;fill:#ffffff;fill-opacity:1;fill-rule:evenodd;stroke:#000000;stroke-width:0.10249335;stroke-miterlimit:4;stroke-dasharray:none;stroke-dashoffset:0;stroke-opacity:0.99521532" />
    <rect
       style="opacity:1;fill:#4d4d4d;fill-opacity:1;fill-rule:evenodd;stroke:#000000;stroke-width:0.10249335;stroke-miterlimit:4;stroke-dasharray:none;stroke-dashoffset:0;stroke-opacity:0.99521532"
       id="rect877"
       width="12.294398"
       height="3.0735996"
       x="22.152073"
       y="36.783813" />
    <rect
       style="opacity:1;fill:#0000ff;fill-opacity:1;fill-rule:evenodd;stroke:#000000;stroke-width:0.10249335;stroke-miterlimit:4;stroke-dasharray:none;stroke-dashoffset:0;stroke-opacity:0.99521532"
       id="rect879"
       width="8.8824406"
       height="17.764881"
       x="64.642006"
       y="28.976662" />
    <path
       sodipodi:type="spiral"
       style="fill:#aade87;fill-rule:evenodd;stroke:#000000;stroke-width:0.26458332"
       id="path869"
       sodipodi:cx="72.569969"
       sodipodi:cy="30.629431"
       sodipodi:expansion="1.5"
       sodipodi:revolution="8"
       sodipodi:radius="19.191366"
       sodipodi:argument="-49.218285"
       sodipodi:t0="0"
       d="m 72.569969,30.629431 c 0.02708,0.04691 -0.06838,0.05987 -0.09181,0.05301 -0.133519,-0.0391 -0.120764,-0.221472 -0.05812,-0.3127 0.145726,-0.212214 0.456923,-0.170759 0.627015,-0.01575 0.299953,0.27335 0.220988,0.750609 -0.05301,1.00996 -0.420132,0.397675 -1.092442,0.272881 -1.450591,-0.141856 -0.504648,-0.584383 -0.326856,-1.476278 0.247446,-1.942053 0.76464,-0.620145 1.897875,-0.383038 2.479502,0.36765 0.743566,0.959698 0.441446,2.354074 -0.50097,3.059269 -1.168566,0.874421 -2.842404,0.502057 -3.678453,-0.64628 -1.012297,-1.390416 -0.56483,-3.360857 0.802697,-4.334678 1.62455,-1.156847 3.907767,-0.629719 5.025956,0.969506 1.307771,1.870366 0.696673,4.481713 -1.146112,5.750586 -2.127341,1.464808 -5.081471,0.765645 -6.507096,-1.332007 -1.627724,-2.39502 -0.836584,-5.705971 1.52676,-7.294195 2.672991,-1.796313 6.354264,-0.909446 8.110733,1.729989 1.970388,2.960891 0.984186,7.025506 -1.94136,8.955686 -3.258392,2.14978 -7.718933,1.060762 -9.828125,-2.160575 -2.334335,-3.565194 -1.139137,-8.433856 2.387363,-10.727211 3.881027,-2.52391 9.169646,-1.21927 11.652176,2.621485 2.718377,4.205638 1.301129,9.925724 -2.862718,12.602313 -4.538798,2.917615 -10.70156,1.384678 -13.576973,-3.11086 -3.12151,-4.880295 -1.469885,-11.496662 3.365725,-14.575553 5.22993,-3.329959 12.310574,-1.556722 15.597494,3.627142 3.542864,5.587518 1.645158,13.142868 -3.894951,16.642271 -5.952887,3.760134 -13.993148,1.735167 -17.709398,-4.169004 -3.981682,-6.325874 -1.826721,-14.86104 4.449162,-18.798413 6.706329,-4.207427 15.746194,-1.919798 19.908888,4.735296 4.437292,7.094106 2.014373,16.648278 -5.027285,21.040414 -7.48907,4.671203 -17.56698,2.110421 -22.192605,-5.325014 -4.909093,-7.891094 -2.207923,-18.502005 5.628373,-23.365098 8.300056,-5.150897 19.453073,-2.306858 24.557549,5.93726 5.39655,8.715841 2.407204,20.419917 -6.251582,25.769627"
       transform="matrix(1.3048238,-0.1093898,0.70710678,0.70710678,-43.024003,14.783805)" />
    <text
       xml:space="preserve"
       style="font-style:normal;font-variant:normal;font-weight:normal;font-stretch:normal;font-size:23.03307152px;line-height:1.25;font-family:Futura;-inkscape-font-specification:Futura;letter-spacing:0px;word-spacing:0px;fill:#000000;fill-opacity:1;stroke:none;stroke-width:0.26458332"
       x="44.151028"
       y="90.263504"
       id="text891"><tspan
         sodipodi:role="line"
         id="tspan889"
         x="44.151028"
         y="90.263504"
         style="stroke-width:0.26458332">MIMINI</tspan></text>
  </g>
</svg>
