<?xml version="1.0" encoding="UTF-8" standalone="no"?>
<!-- Created with Inkscape (http://www.inkscape.org/) -->

<svg
   xmlns:dc="http://purl.org/dc/elements/1.1/"
   xmlns:cc="http://creativecommons.org/ns#"
   xmlns:rdf="http://www.w3.org/1999/02/22-rdf-syntax-ns#"
   xmlns:svg="http://www.w3.org/2000/svg"
   xmlns="http://www.w3.org/2000/svg"
   xmlns:sodipodi="http://sodipodi.sourceforge.net/DTD/sodipodi-0.dtd"
   xmlns:inkscape="http://www.inkscape.org/namespaces/inkscape"
   width="210mm"
   height="297mm"
   viewBox="0 0 210 297"
   version="1.1"
   id="svg1585"
   inkscape:version="0.92.4 (5da689c313, 2019-01-14)"
   sodipodi:docname="Layout.svg">
  <defs
     id="defs1579" />
  <sodipodi:namedview
     id="base"
     pagecolor="#ffffff"
     bordercolor="#666666"
     borderopacity="1.0"
     inkscape:pageopacity="0.0"
     inkscape:pageshadow="2"
     inkscape:zoom="0.35"
     inkscape:cx="847.2159"
     inkscape:cy="279.52991"
     inkscape:document-units="mm"
     inkscape:current-layer="layer1"
     showgrid="false"
     inkscape:window-width="1920"
     inkscape:window-height="1001"
     inkscape:window-x="-9"
     inkscape:window-y="41"
     inkscape:window-maximized="1" />
  <metadata
     id="metadata1582">
    <rdf:RDF>
      <cc:Work
         rdf:about="">
        <dc:format>image/svg+xml</dc:format>
        <dc:type
           rdf:resource="http://purl.org/dc/dcmitype/StillImage" />
        <dc:title></dc:title>
      </cc:Work>
    </rdf:RDF>
  </metadata>
  <g
     inkscape:label="Layer 1"
     inkscape:groupmode="layer"
     id="layer1">
    <path
       inkscape:connector-curvature="0"
       style="opacity:0.78660009;fill:#00a7e8;fill-opacity:1;stroke:#000000;stroke-width:0.09999999;stroke-miterlimit:4;stroke-dasharray:none;stroke-opacity:1"
       d="m 84.107314,5.3728429 v 1.887539 5.4802471 1.887492 8.491089 l 1.887399,6e-6 v -8.491098 l 6.234551,3e-6 v 6.603555 1.887542 h 8.064696 l 11.74315,-2e-6 v -1.887542 l -11.16367,8e-6 2.02741,-6.603561 h 15.61781 l 1e-5,-1.887483 -15.03834,-8e-6 1.6825,-5.4802471 20.11323,-4e-6 v -1.88753 l -21.49493,-7e-6 -1.80632,6.1173691 -6.4674,-6.1173641 -0.03708,0.02112 v -0.02112 h -9.475602 z m 1.887399,1.887536 8.975509,6e-6 6.395308,6.2933091 -2.267119,7.677985 -4.981759,-3e-6 v -8.491043 l -8.121939,2e-6 z"
       id="rect976"
       inkscape:export-xdpi="45"
       inkscape:export-ydpi="45" />
    <path
       inkscape:connector-curvature="0"
       style="opacity:0.78660009;fill:#000000;fill-opacity:1;stroke:none;stroke-width:26.45833015;stroke-miterlimit:4;stroke-dasharray:none;stroke-opacity:0.94413404"
       d="m 83.710974,23.698389 v 0.759365 2.204738 0.759351 2.656649 0.759367 h 0.759351 1.464821 v -0.0025 c 1.245405,-0.05298 2.245916,-0.970814 2.245916,-2.085186 0,-0.79764 -0.512669,-1.494499 -1.260754,-1.845693 0.39549,-0.336636 0.642569,-0.808916 0.642569,-1.329751 v 0 c 0,-1.015782 -0.939591,-1.876344 -2.087699,-1.876344 h -1.004871 z m 22.130766,0 v 0.759365 h 1.36517 v 6.380105 h 0.75936 v -6.380105 h 1.36515 v -0.759365 h -2.12451 z m 9.25125,0 v 0.759365 2.204738 0.759351 3.416016 h 0.75935 v -3.416016 h 2.73032 v -0.759351 h -2.73032 v -2.204738 h 2.73032 v -0.759365 h -2.73032 z m -30.622665,0.759365 h 1.004869 c 0.702155,0 1.262481,0.495751 1.262481,1.116978 0,0.62123 -0.560697,1.08776 -1.26285,1.08776 h -1.0045 z m 24.838275,2.199485 v 4.18062 h 2.48399 v -4.18062 z m -20.690195,0.0053 v 0.759352 0.82451 0.759352 1.072786 0.759368 h 0.759351 1.650132 v -0.759368 h -1.650132 v -1.072786 h 1.650132 v -0.759352 h -1.650132 v -0.82451 h 1.650132 v -0.759352 h -1.650132 z m 2.871691,0 v 0.759352 h 0.825075 v 3.416016 h 0.759351 v -3.416016 h 0.825074 v -0.759352 h -1.584425 z m 2.940767,0 v 0.759352 h 0.82506 v 3.416016 h 0.759368 v -3.416016 h 0.825058 v -0.759352 h -1.584426 z m 3.173186,0 v 0.759352 0.82451 0.759352 1.072786 0.759368 h 0.759352 1.650129 v -0.759368 h -1.650129 v -1.072786 h 1.650129 v -0.759352 h -1.650129 v -0.82451 h 1.650129 v -0.759352 h -1.650129 z m 3.391921,0 v 4.175368 h 0.75935 v -1.832154 -1.583862 h 0.93202 c 0.39405,0 0.58669,0.275489 0.57427,0.460195 -0.012,0.178933 -0.18279,0.35309 -0.5517,0.363799 -0.0119,4.59e-4 -0.024,4.59e-4 -0.0363,4.59e-4 h -0.91441 l -0.004,0.759352 h 0.91442 c 0.006,0 0.0117,-1.56e-4 0.0176,-2.29e-4 v 2.29e-4 c 0.27068,0.04371 0.40815,1.437482 0.4327,1.825963 l 0.74731,0.0062 c -0.001,-0.02568 -0.003,-0.05226 -0.005,-0.07965 -0.0348,-0.550392 -0.16766,-1.428527 -0.48424,-1.987422 0.30722,-0.21674 0.5188,-0.554611 0.52682,-0.888753 0.0138,-0.574393 -0.57379,-1.219544 -1.21811,-1.219544 h -0.93202 z m 18.0473,0 v 4.175368 h 0.75935 1.65015 v -0.759368 h -1.65015 v -3.416 z m 2.72132,0 1.832,2.180178 -1.11787,1.99519 c 0,0 0.72912,2e-6 0.83563,0 l 2.35805,-4.175368 h -0.85432 l -0.86653,1.546616 -1.35577,-1.546616 z m -37.294265,0.759302 h 1.410108 c 0.765757,0.03017 1.36793,0.643683 1.36793,1.328333 0,0.67175 -0.577408,1.277142 -1.322337,1.328315 h -1.455701 z m 25.444665,0.255965 h 1.27121 v 2.139482 h -1.27121 z"
       id="path1202" />
    <rect
       ry="0.092133291"
       y="35.629463"
       x="42.034668"
       height="14.552084"
       width="42.030018"
       id="rect2206"
       style="opacity:1;fill:none;fill-opacity:0;stroke:#000000;stroke-width:0.09999999;stroke-miterlimit:4;stroke-dasharray:none;stroke-opacity:1" />
    <rect
       style="opacity:1;fill:none;fill-opacity:0;stroke:#000000;stroke-width:0.09999999;stroke-miterlimit:4;stroke-dasharray:none;stroke-opacity:1"
       id="rect2208"
       width="42.030018"
       height="14.552084"
       x="84.064682"
       y="35.629459"
       ry="0.092133291" />
    <rect
       ry="0.092133291"
       y="35.629459"
       x="126.09469"
       height="14.552084"
       width="42.030018"
       id="rect2210"
       style="opacity:1;fill:none;fill-opacity:0;stroke:#000000;stroke-width:0.09999999;stroke-miterlimit:4;stroke-dasharray:none;stroke-opacity:1" />
    <rect
       style="opacity:1;fill:none;fill-opacity:0;stroke:#000000;stroke-width:0.09999999;stroke-miterlimit:4;stroke-dasharray:none;stroke-opacity:1"
       id="rect2212"
       width="42.030018"
       height="14.552084"
       x="168.12474"
       y="35.629459"
       ry="0.092133291" />
    <rect
       ry="0.22595781"
       y="-0.059667811"
       x="-0.028700881"
       height="35.689129"
       width="210.18346"
       id="rect2206-5"
       style="opacity:1;fill:none;fill-opacity:0;stroke:#000000;stroke-width:0.09999999;stroke-miterlimit:4;stroke-dasharray:none;stroke-opacity:1" />
    <text
       xml:space="preserve"
       style="font-style:normal;font-weight:normal;font-size:10.58333302px;line-height:1.25;font-family:sans-serif;letter-spacing:0px;word-spacing:0px;fill:#000000;fill-opacity:1;stroke:none;stroke-width:0.26458332"
       x="18.898809"
       y="44.889877"
       id="text2231"><tspan
         sodipodi:role="line"
         id="tspan2229"
         x="18.898809"
         y="54.545372"
         style="stroke-width:0.26458332" /></text>
    <text
       id="text2289"
       y="44.499992"
       x="175.51077"
       style="font-style:normal;font-weight:normal;font-size:5.8813343px;line-height:1.25;font-family:sans-serif;letter-spacing:0px;word-spacing:0px;fill:#000000;fill-opacity:1;stroke:none;stroke-width:0.26458332"
       xml:space="preserve"><tspan
         style="font-size:4.28264666px;stroke-width:0.26458332"
         y="44.499992"
         x="175.51077"
         sodipodi:role="line"
         id="tspan2291">Feedback Us</tspan></text>
    <path
       inkscape:connector-curvature="0"
       style="opacity:0.78660009;fill:#00a7e8;fill-opacity:1;stroke:#000000;stroke-width:0.09999999;stroke-miterlimit:4;stroke-dasharray:none;stroke-opacity:1"
       d="m 35.32158,71.693503 v 0.788989 2.290735 0.788968 3.549263 l 0.79059,3e-6 v -3.549267 l 2.611518,10e-7 v 2.760277 0.788989 h 3.378124 4.91895 v -0.78899 l -4.676219,3e-6 0.849238,-2.760279 h 6.541962 l 4e-6,-0.788965 -6.299234,-3e-6 0.704763,-2.290735 8.424995,-2e-6 v -0.788984 l -9.003759,-3e-6 -0.756629,2.557051 -2.709051,-2.557049 -0.01553,0.0088 v -0.0088 h -3.969124 z m 0.79059,0.788987 3.759646,3e-6 2.678853,2.630594 -0.949643,3.209386 -2.086752,-10e-7 v -3.549244 l -3.402104,10e-7 z"
       id="rect976-1"
       inkscape:export-xdpi="45"
       inkscape:export-ydpi="45" />
    <path
       inkscape:connector-curvature="0"
       style="opacity:0.78660009;fill:#000000;fill-opacity:1;stroke:none;stroke-width:26.45833206;stroke-miterlimit:4;stroke-dasharray:none;stroke-opacity:0.94413404"
       d="m 35.155562,79.353554 v 0.317413 0.921578 0.317407 1.110475 0.317417 h 0.318076 0.613581 v -8.36e-4 c 0.521673,-0.02215 0.940765,-0.405801 0.940765,-0.871607 0,-0.333412 -0.214746,-0.624698 -0.528102,-0.771496 0.165662,-0.140714 0.269158,-0.338126 0.269158,-0.555834 v 0 c 0,-0.424596 -0.393575,-0.784309 -0.874491,-0.784309 H 35.47363 Z m 9.270094,0 v 0.317413 h 0.57184 v 2.666877 h 0.31808 v -2.666877 h 0.571832 v -0.317413 h -0.889912 z m 3.875148,0 v 0.317413 0.921578 0.317407 1.427892 h 0.318075 v -1.427892 h 1.143672 v -0.317407 h -1.143672 v -0.921578 h 1.143672 v -0.317413 h -1.143672 z m -12.827166,0.317413 h 0.420917 c 0.294117,0 0.528826,0.207224 0.528826,0.466896 0,0.259673 -0.234864,0.454682 -0.528981,0.454682 h -0.420762 z m 10.404211,0.919381 v 1.747496 h 1.040489 v -1.747496 z m -8.666671,0.0022 v 0.317409 0.344643 0.317409 0.448422 0.317414 h 0.318075 0.691205 v -0.317398 h -0.691205 v -0.448422 h 0.691205 v -0.317413 h -0.691205 v -0.344643 h 0.691205 V 80.59256 h -0.691205 z m 1.202889,0 v 0.317409 h 0.345606 v 1.427888 h 0.318076 v -1.427888 h 0.345605 v -0.317409 h -0.663681 z m 1.231823,0 v 0.317409 h 0.345599 v 1.427888 h 0.318083 v -1.427888 h 0.345599 v -0.317409 h -0.663682 z m 1.329179,0 v 0.317409 0.344643 0.317409 0.448422 0.317414 h 0.318077 0.6912 v -0.317414 h -0.6912 v -0.448406 h 0.6912 v -0.317413 h -0.6912 v -0.344643 h 0.6912 V 80.59256 h -0.6912 z m 1.4208,0 v 1.745297 h 0.318075 v -0.76582 -0.662052 h 0.390403 c 0.165059,0 0.245751,0.115153 0.240549,0.192361 -0.005,0.07479 -0.07657,0.14759 -0.231095,0.152066 -0.005,2.21e-4 -0.01005,2.21e-4 -0.01521,2.21e-4 h -0.383027 l -0.0017,0.317408 h 0.38303 c 0.0025,0 0.0049,-6.5e-5 0.0074,-9.5e-5 v 9.5e-5 c 0.113381,0.01827 0.170965,0.600865 0.181248,0.763248 l 0.313032,0.0025 c -4.19e-4,-0.01074 -0.0013,-0.02186 -0.0021,-0.03331 -0.01458,-0.230061 -0.07023,-0.59712 -0.202838,-0.830737 0.128688,-0.0906 0.217314,-0.231827 0.220674,-0.371498 0.0058,-0.240095 -0.240349,-0.509767 -0.51024,-0.509767 h -0.390403 z m 7.559621,0 v 1.745297 h 0.318076 0.691212 v -0.317414 h -0.691212 v -1.427883 z m 1.139902,0 0.767385,0.911312 -0.468251,0.833985 c 0,0 0.305412,4e-6 0.350027,0 l 0.987736,-1.745297 h -0.357856 l -0.362971,0.646483 -0.567902,-0.646483 z m -15.621754,0.317404 h 0.590663 c 0.320759,0.01261 0.572996,0.269058 0.572996,0.555241 0,0.28079 -0.241864,0.533843 -0.553898,0.555233 h -0.609761 z m 10.658214,0.106992 h 0.532483 v 0.894301 h -0.532483 z"
       id="path1202-2" />
    <rect
       ry="0.094450027"
       y="69.422722"
       x="0.078830905"
       height="14.918003"
       width="88.041283"
       id="rect2206-5-9"
       style="opacity:1;fill:none;fill-opacity:0;stroke:#000000;stroke-width:0.09999999;stroke-miterlimit:4;stroke-dasharray:none;stroke-opacity:1" />
    <rect
       ry="0.038511578"
       y="84.340729"
       x="0.078830905"
       height="6.0827494"
       width="5.4970374"
       id="rect2328-0"
       style="opacity:1;fill:none;fill-opacity:0;stroke:#000000;stroke-width:0.09999999;stroke-miterlimit:4;stroke-dasharray:none;stroke-opacity:1" />
    <path
       style="opacity:1;fill:#000000;fill-opacity:1;stroke:#000000;stroke-width:0.1;stroke-miterlimit:4;stroke-dasharray:none;stroke-opacity:1"
       d="m 0.62257462,86.201297 v 0.401008 H 5.0321246 v -0.401008 z m 0,1.004073 v 0.401008 H 5.0321246 V 87.20537 Z m 0,0.956529 V 88.56291 H 5.0321246 v -0.401011 z"
       id="rect2426"
       inkscape:connector-curvature="0" />
    <rect
       style="opacity:1;fill:none;fill-opacity:1;stroke:#000000;stroke-width:0.10000001;stroke-miterlimit:4;stroke-dasharray:none;stroke-opacity:1"
       id="rect2437"
       width="88.041283"
       height="95.121727"
       x="0.078830898"
       y="69.422722" />
    <path
       inkscape:export-ydpi="45"
       inkscape:export-xdpi="45"
       id="path2455"
       d="m 156.81376,71.693503 v 0.788989 2.290735 0.788968 3.549263 l 0.79059,3e-6 v -3.549267 l 2.61152,10e-7 v 2.760277 0.788989 h 3.37812 4.91895 v -0.78899 l -4.67622,3e-6 0.84924,-2.760279 h 6.54196 l 10e-6,-0.788965 -6.29924,-3e-6 0.70477,-2.290735 8.42499,-2e-6 v -0.788984 l -9.00376,-3e-6 -0.75663,2.557051 -2.70905,-2.557049 -0.0155,0.0088 v -0.0088 h -3.96912 z m 0.79059,0.788987 3.75965,3e-6 2.67885,2.630594 -0.94964,3.209386 -2.08676,-10e-7 v -3.549244 l -3.4021,10e-7 z"
       style="opacity:0.78660009;fill:#00a7e8;fill-opacity:1;stroke:#000000;stroke-width:0.09999999;stroke-miterlimit:4;stroke-dasharray:none;stroke-opacity:1"
       inkscape:connector-curvature="0" />
    <path
       id="path2457"
       d="m 156.64774,79.353554 v 0.317413 0.921578 0.317407 1.110475 0.317417 h 0.31808 0.61358 v -8.36e-4 c 0.52167,-0.02215 0.94076,-0.405801 0.94076,-0.871607 0,-0.333412 -0.21474,-0.624698 -0.5281,-0.771496 0.16566,-0.140714 0.26916,-0.338126 0.26916,-0.555834 v 0 c 0,-0.424596 -0.39358,-0.784309 -0.87449,-0.784309 h -0.42092 z m 9.2701,0 v 0.317413 h 0.57184 v 2.666877 h 0.31808 v -2.666877 h 0.57183 v -0.317413 h -0.88991 z m 3.87514,0 v 0.317413 0.921578 0.317407 1.427892 h 0.31808 v -1.427892 h 1.14367 v -0.317407 h -1.14367 v -0.921578 h 1.14367 v -0.317413 h -1.14367 z m -12.82716,0.317413 h 0.42091 c 0.29412,0 0.52883,0.207224 0.52883,0.466896 0,0.259673 -0.23486,0.454682 -0.52898,0.454682 h -0.42076 z m 10.40421,0.919381 v 1.747496 h 1.04049 v -1.747496 z m -8.66667,0.0022 v 0.317409 0.344643 0.317409 0.448422 0.317414 h 0.31807 0.69121 v -0.317398 h -0.69121 v -0.448422 h 0.69121 v -0.317413 h -0.69121 v -0.344643 h 0.69121 V 80.59256 h -0.69121 z m 1.20289,0 v 0.317409 h 0.3456 v 1.427888 h 0.31808 v -1.427888 h 0.3456 v -0.317409 h -0.66368 z m 1.23182,0 v 0.317409 h 0.3456 v 1.427888 h 0.31808 v -1.427888 h 0.3456 v -0.317409 h -0.66368 z m 1.32918,0 v 0.317409 0.344643 0.317409 0.448422 0.317414 h 0.31808 0.6912 v -0.317414 h -0.6912 v -0.448406 h 0.6912 v -0.317413 h -0.6912 v -0.344643 h 0.6912 V 80.59256 h -0.6912 z m 1.4208,0 v 1.745297 h 0.31807 v -0.76582 -0.662052 h 0.39041 c 0.16506,0 0.24575,0.115153 0.24055,0.192361 -0.005,0.07479 -0.0766,0.14759 -0.2311,0.152066 -0.005,2.21e-4 -0.0101,2.21e-4 -0.0152,2.21e-4 h -0.38303 l -0.002,0.317408 h 0.38303 c 0.003,0 0.005,-6.5e-5 0.007,-9.5e-5 v 9.5e-5 c 0.11338,0.01827 0.17097,0.600865 0.18125,0.763248 l 0.31303,0.0025 c -4.2e-4,-0.01074 -0.001,-0.02186 -0.002,-0.03331 -0.0146,-0.230061 -0.0702,-0.59712 -0.20283,-0.830737 0.12868,-0.0906 0.21731,-0.231827 0.22067,-0.371498 0.006,-0.240095 -0.24035,-0.509767 -0.51024,-0.509767 h -0.3904 z m 7.55962,0 v 1.745297 h 0.31808 0.69121 v -0.317414 h -0.69121 v -1.427883 z m 1.1399,0 0.76739,0.911312 -0.46825,0.833985 c 0,0 0.30541,4e-6 0.35002,0 l 0.98774,-1.745297 h -0.35786 l -0.36297,0.646483 -0.5679,-0.646483 z m -15.62175,0.317404 h 0.59066 c 0.32076,0.01261 0.573,0.269058 0.573,0.555241 0,0.28079 -0.24187,0.533843 -0.5539,0.555233 h -0.60976 z m 10.65821,0.106992 h 0.53248 v 0.894301 h -0.53248 z"
       style="opacity:0.78660009;fill:#000000;fill-opacity:1;stroke:none;stroke-width:26.45833206;stroke-miterlimit:4;stroke-dasharray:none;stroke-opacity:0.94413404"
       inkscape:connector-curvature="0" />
    <rect
       style="opacity:1;fill:none;fill-opacity:0;stroke:#000000;stroke-width:0.09999999;stroke-miterlimit:4;stroke-dasharray:none;stroke-opacity:1"
       id="rect2459"
       width="88.041283"
       height="14.918003"
       x="121.57101"
       y="69.422722"
       ry="0.094450027" />
    <rect
       style="opacity:1;fill:none;fill-opacity:0;stroke:none;stroke-width:0.09999999;stroke-miterlimit:4;stroke-dasharray:none;stroke-opacity:1"
       id="rect2461"
       width="5.4970374"
       height="6.0827494"
       x="204.11526"
       y="84.340729"
       ry="0.038511578" />
    <path
       style="opacity:1;fill:#000000;fill-opacity:1;stroke:#000000;stroke-width:0.1;stroke-miterlimit:4;stroke-dasharray:none;stroke-opacity:1"
       d="m 205.44655,85.681171 -0.28371,0.283705 1.41697,1.417484 -1.41697,1.416968 0.28371,0.283702 1.41748,-1.417484 1.41697,1.417484 0.2837,-0.283702 -1.41748,-1.416968 1.41748,-1.417484 -0.2837,-0.283705 -1.41697,1.416968 z"
       id="path2469"
       inkscape:connector-curvature="0" />
    <rect
       y="69.422722"
       x="121.57101"
       height="95.121727"
       width="88.041283"
       id="rect2465"
       style="opacity:1;fill:none;fill-opacity:1;stroke:#000000;stroke-width:0.10000001;stroke-miterlimit:4;stroke-dasharray:none;stroke-opacity:1" />
    <text
       xml:space="preserve"
       style="font-style:normal;font-weight:normal;font-size:5.8813343px;line-height:1.25;font-family:sans-serif;letter-spacing:0px;word-spacing:0px;fill:#000000;fill-opacity:1;stroke:none;stroke-width:0.26458332;"
       x="153.45978"
       y="105.15204"
       id="text2235-6"><tspan
         sodipodi:role="line"
         id="tspan2233-3"
         x="153.45978"
         y="105.15204"
         style="stroke-width:0.26458332;fill:#000000;stroke:none;">Reviews</tspan></text>
    <text
       xml:space="preserve"
       style="font-style:normal;font-weight:normal;font-size:10.58333302px;line-height:1.25;font-family:sans-serif;letter-spacing:0px;word-spacing:0px;fill:#000000;fill-opacity:1;stroke:none;stroke-width:0.26458332"
       x="133.63477"
       y="94.276062"
       id="text2548"><tspan
         sodipodi:role="line"
         id="tspan2546"
         x="133.63477"
         y="103.93156"
         style="stroke-width:0.26458332" /></text>
    <text
       id="text2552"
       y="96.721962"
       x="156.84126"
       style="font-style:normal;font-weight:normal;font-size:5.8813343px;line-height:1.25;font-family:sans-serif;letter-spacing:0px;word-spacing:0px;fill:#000000;fill-opacity:1;stroke:none;stroke-width:0.26458332;"
       xml:space="preserve"><tspan
         style="stroke-width:0.26458332;fill:#000000;stroke:none;"
         y="96.721962"
         x="156.84126"
         id="tspan2550"
         sodipodi:role="line">Home</tspan></text>
    <text
       xml:space="preserve"
       style="font-style:normal;font-weight:normal;font-size:5.8813343px;line-height:1.25;font-family:sans-serif;letter-spacing:0px;word-spacing:0px;fill:#000000;fill-opacity:1;stroke:none;stroke-width:0.26458332;"
       x="142.50121"
       y="113.07526"
       id="text2570"><tspan
         sodipodi:role="line"
         id="tspan2568"
         x="142.50121"
         y="113.07526"
         style="stroke-width:0.26458332;fill:#000000;stroke:none;">Package pricing</tspan></text>
    <text
       xml:space="preserve"
       style="font-style:normal;font-weight:normal;font-size:5.8813343px;line-height:1.25;font-family:sans-serif;letter-spacing:0px;word-spacing:0px;fill:#000000;fill-opacity:1;stroke:none;stroke-width:0.26458332;"
       x="152.30821"
       y="122.04809"
       id="text2574"><tspan
         sodipodi:role="line"
         id="tspan2572"
         x="152.30821"
         y="122.04809"
         style="stroke-width:0.26458332;fill:#000000;stroke:none;">About Us</tspan><tspan
         sodipodi:role="line"
         x="152.30821"
         y="129.39975"
         style="stroke-width:0.26458332;fill:#000000;stroke:none;"
         id="tspan2580" /></text>
    <text
       id="text2578"
       y="130.45805"
       x="146.87775"
       style="font-style:normal;font-weight:normal;font-size:5.8813343px;line-height:1.25;font-family:sans-serif;letter-spacing:0px;word-spacing:0px;fill:#000000;fill-opacity:1;stroke:none;stroke-width:0.26458332;"
       xml:space="preserve"><tspan
         style="stroke-width:0.26458332;fill:#000000;stroke:none;"
         y="130.45805"
         x="146.87775"
         id="tspan2576"
         sodipodi:role="line">Feedback Us</tspan></text>
    <rect
       style="opacity:1;fill:none;fill-opacity:0;stroke:#000000;stroke-width:0.09999999;stroke-miterlimit:4;stroke-dasharray:none;stroke-opacity:1"
       id="rect2593"
       width="42.030018"
       height="14.552084"
       x="0.0046490277"
       y="35.629463"
       ry="0.092133291" />
    <text
       xml:space="preserve"
       style="font-style:normal;font-weight:normal;font-size:5.8813343px;line-height:1.25;font-family:sans-serif;letter-spacing:0px;word-spacing:0px;fill:#000000;fill-opacity:1;stroke:none;stroke-width:0.26458332"
       x="137.43506"
       y="44.499992"
       id="text2597"><tspan
         sodipodi:role="line"
         x="137.43506"
         y="44.499992"
         style="font-size:4.28264666px;stroke-width:0.26458332"
         id="tspan2599">About Us</tspan><tspan
         sodipodi:role="line"
         x="137.43506"
         y="51.851662"
         style="stroke-width:0.26458332"
         id="tspan2603" /></text>
    <text
       id="text2609"
       y="44.09013"
       x="88.305641"
       style="font-style:normal;font-weight:normal;font-size:4.28264666px;line-height:1.25;font-family:sans-serif;letter-spacing:0px;word-spacing:0px;fill:#000000;fill-opacity:1;stroke:none;stroke-width:0.26458332"
       xml:space="preserve"><tspan
         id="tspan2605"
         style="stroke-width:0.26458332"
         y="44.09013"
         x="88.305641"
         sodipodi:role="line">Package Pricing</tspan><tspan
         id="tspan2607"
         style="stroke-width:0.26458332"
         y="49.443439"
         x="88.305641"
         sodipodi:role="line" /></text>
    <text
       id="text2609-6"
       y="44.44458"
       x="54.213581"
       style="font-style:normal;font-weight:normal;font-size:5.8813343px;line-height:1.25;font-family:sans-serif;letter-spacing:0px;word-spacing:0px;fill:#000000;fill-opacity:1;stroke:none;stroke-width:0.26458332"
       xml:space="preserve"><tspan
         id="tspan2605-5"
         style="font-size:4.28264666px;stroke-width:0.26458332"
         y="44.44458"
         x="54.213581"
         sodipodi:role="line">Reviews</tspan><tspan
         id="tspan2607-9"
         style="stroke-width:0.26458332"
         y="51.796249"
         x="54.213581"
         sodipodi:role="line" /></text>
    <text
       id="text2609-6-5"
       y="44.429943"
       x="14.645875"
       style="font-style:normal;font-weight:normal;font-size:5.8813343px;line-height:1.25;font-family:sans-serif;letter-spacing:0px;word-spacing:0px;fill:#000000;fill-opacity:1;stroke:none;stroke-width:0.26458332"
       xml:space="preserve"><tspan
         id="tspan2605-5-6"
         style="font-size:4.28264666px;stroke-width:0.26458332"
         y="44.429943"
         x="14.645875"
         sodipodi:role="line">Home</tspan><tspan
         id="tspan2607-9-6"
         style="stroke-width:0.26458332"
         y="51.781612"
         x="14.645875"
         sodipodi:role="line" /></text>
    <rect
       style="opacity:1;fill:none;fill-opacity:1;stroke:#000000;stroke-width:0.09999999;stroke-miterlimit:4;stroke-dasharray:none;stroke-opacity:1"
       id="rect2655"
       width="88.041283"
       height="74.120964"
       x="0.078830905"
       y="90.423477"
       ry="0.077311426" />
    <text
       xml:space="preserve"
       style="font-style:normal;font-weight:normal;font-size:10.58333302px;line-height:1.25;font-family:sans-serif;letter-spacing:0px;word-spacing:0px;fill:#000000;fill-opacity:1;stroke:none;stroke-width:0.26458332"
       x="28.537201"
       y="123.8869"
       id="text2659"><tspan
         sodipodi:role="line"
         id="tspan2657"
         x="28.537201"
         y="123.8869"
         style="stroke-width:0.26458332">IMAGE</tspan><tspan
         sodipodi:role="line"
         x="28.537201"
         y="137.11607"
         style="stroke-width:0.26458332"
         id="tspan2661">TEXT</tspan></text>
    <flowRoot
       xml:space="preserve"
       id="flowRoot2663"
       style="fill:black;fill-opacity:1;stroke:none;font-family:sans-serif;font-style:normal;font-weight:normal;font-size:40px;line-height:1.25;letter-spacing:0px;word-spacing:0px"><flowRegion
         id="flowRegion2665"><rect
           id="rect2667"
           width="365.67523"
           height="252.53813"
           x="453.05341"
           y="278.03217" /></flowRegion><flowPara
         id="flowPara2669"></flowPara></flowRoot>    <text
       xml:space="preserve"
       style="font-style:normal;font-weight:normal;font-size:10.58333302px;line-height:1.25;font-family:sans-serif;letter-spacing:0px;word-spacing:0px;fill:#000000;fill-opacity:1;stroke:none;stroke-width:0.26458332"
       x="236.61308"
       y="159.98363"
       id="text2673"><tspan
         sodipodi:role="line"
         id="tspan2671"
         x="236.61308"
         y="169.63913"
         style="stroke-width:0.26458332" /></text>
  </g>
</svg>
