<svg xmlns="http://www.w3.org/2000/svg" width="160.81" height="99.78" viewBox="0 0 42.55 26.4"><path d="M0 20.144V26.4h1.948v-.002c1.092-.047 1.968-.85 1.968-1.827 0-.699-.45-1.31-1.104-1.617.346-.295.562-.709.562-1.165 0-.89-.823-1.644-1.828-1.644h-.88zm19.388 0v.666h1.196v5.589h.665v-5.59h1.196v-.665h-1.861zm8.104 0V26.4h.666v-2.993h2.391v-.665h-2.391V20.81h2.391v-.666h-2.391zM.665 20.81h.88c.616 0 1.107.434 1.107.978s-.492.953-1.107.953h-.88zm21.76 1.926V26.4H24.6v-3.663zm-18.126.005v3.658H6.41v-.665H4.964v-.94H6.41v-.665H4.964v-.723H6.41v-.665H4.964zm2.516 0v.665h.723V26.4h.665v-2.993h.723v-.665H7.538zm2.576 0v.665h.723V26.4h.665v-2.993h.723v-.665h-1.388zm2.78 0v3.658h2.111v-.665h-1.446v-.94h1.446v-.665h-1.446v-.723h1.446v-.665h-1.446zm2.972 0v3.658h.665v-2.993h.816c.346 0 .514.242.503.403-.01.157-.16.31-.483.32h-.832l-.004.665h.816c.237.038.358 1.26.38 1.6l.654.005-.004-.07c-.03-.482-.147-1.251-.424-1.74.269-.19.454-.487.461-.78.013-.503-.502-1.068-1.067-1.068h-.816zm15.81 0v3.658h2.111v-.665h-1.446V22.74zm2.384 0l1.605 1.91-.98 1.748h.733l2.065-3.658h-.748l-.76 1.355-1.187-1.355zm-32.672.665h1.236c.67.027 1.198.564 1.198 1.164 0 .588-.506 1.119-1.158 1.164H.665zm22.291.225h1.114v1.874h-1.114z" opacity=".79"/><path fill="#36baed" stroke="#000" stroke-width=".1" d="M.242.06v9.499L.24 18.273h1.937l.001-8.714h6.4l-.001 6.778v1.938h8.277l12.053.003V16.34H17.45l2.082-6.778 16.03.002V7.627l-15.435-.002L21.853 2l20.645.004V.067L20.436.063 18.58 6.34 11.943.061l-.038.022V.062L2.18.06zM2.18 1.997l9.213.001 6.563 6.46-2.328 7.88h-5.113V7.622l-8.336-.001z" opacity=".79"/></svg>