<?xml version="1.0" encoding="UTF-8" standalone="no"?>
<svg
   xmlns:dc="http://purl.org/dc/elements/1.1/"
   xmlns:cc="http://creativecommons.org/ns#"
   xmlns:rdf="http://www.w3.org/1999/02/22-rdf-syntax-ns#"
   xmlns:svg="http://www.w3.org/2000/svg"
   xmlns="http://www.w3.org/2000/svg"
   xmlns:sodipodi="http://sodipodi.sourceforge.net/DTD/sodipodi-0.dtd"
   xmlns:inkscape="http://www.inkscape.org/namespaces/inkscape"
   width="255"
   height="150.06985"
   viewBox="0 0 67.472484 39.705794"
   version="1.1"
   id="svg6"
   sodipodi:docname="logowtag.svg"
   inkscape:version="0.92.4 (5da689c313, 2019-01-14)">
  <metadata
     id="metadata12">
    <rdf:RDF>
      <cc:Work
         rdf:about="">
        <dc:format>image/svg+xml</dc:format>
        <dc:type
           rdf:resource="http://purl.org/dc/dcmitype/StillImage" />
      </cc:Work>
    </rdf:RDF>
  </metadata>
  <defs
     id="defs10" />
  <sodipodi:namedview
     pagecolor="#ffffff"
     bordercolor="#666666"
     borderopacity="1"
     objecttolerance="10"
     gridtolerance="10"
     guidetolerance="10"
     inkscape:pageopacity="0"
     inkscape:pageshadow="2"
     inkscape:window-width="1796"
     inkscape:window-height="1051"
     id="namedview8"
     showgrid="false"
     showguides="true"
     inkscape:guide-bbox="true"
     inkscape:zoom="1.1826017"
     inkscape:cx="232.51358"
     inkscape:cy="87.582768"
     inkscape:window-x="-9"
     inkscape:window-y="-9"
     inkscape:window-maximized="1"
     inkscape:current-layer="svg6">
    <sodipodi:guide
       position="0.050000009,10.546725"
       orientation="1,0"
       id="guide822"
       inkscape:locked="false" />
  </sodipodi:namedview>
  <path
     d="m 0.05,29.729155 v 9.97784 h 3.1056485 v -0.0032 c 1.7393545,-0.07496 3.137534,-1.357279 3.137534,-2.913925 0,-1.114851 -0.7174239,-2.089349 -1.7616743,-2.57899 0.5532136,-0.470503 0.8975771,-1.130802 0.8975771,-1.858086 0,-1.419482 -1.3120887,-2.622054 -2.9143355,-2.622054 H 1.1117873 Z m 30.909812,0 v 1.060624 h 1.906754 V 39.7054 h 1.060192 v -8.915621 h 1.906754 v -1.060624 h -2.966946 z m 12.921603,0 v 9.97784 h 1.060192 V 34.93339 h 3.813508 v -1.060624 h -3.813508 v -3.081391 h 3.813508 v -1.060624 h -3.813508 z m -42.7696277,1.06222 h 1.4029624 c 0.9804794,0 1.7632687,0.693791 1.7632687,1.561429 0,0.867638 -0.7827893,1.519962 -1.7632686,1.519962 H 1.1117873 Z m 34.6914347,3.073416 v 5.842204 h 3.469143 v -5.842204 z m -28.8978377,0.0063 V 39.70532 H 10.269305 V 38.64315 H 7.9655775 V 37.143953 H 10.269305 V 36.083329 H 7.9655775 V 34.931795 H 10.269305 V 33.871171 H 7.9655775 Z m 4.0096027,0 v 1.060624 h 1.152661 v 4.775249 h 1.060194 v -4.773605 h 1.152661 v -1.060624 h -2.212855 z m 4.108448,0 v 1.060624 h 1.151067 v 4.775249 h 1.061787 v -4.773605 h 1.152661 v -1.060624 h -2.212853 z m 4.432086,0 v 5.834229 h 3.363921 v -1.062188 h -2.303728 v -1.499228 h 2.303728 V 36.08328 h -2.303728 v -1.151534 h 2.303728 v -1.060624 h -2.303728 z m 4.736592,0 v 5.834229 h 1.060193 v -4.773605 h 1.302524 c 0.550024,0 0.819457,0.384376 0.801919,0.642753 -0.01594,0.250404 -0.255083,0.494426 -0.770034,0.508781 h -1.328032 l -0.0063,1.062219 h 1.302524 c 0.377843,0.06061 0.569156,2.009603 0.60423,2.551878 l 1.044251,0.0079 -0.0063,-0.111646 c -0.04782,-0.768752 -0.234359,-1.995248 -0.677568,-2.77676 0.430454,-0.303036 0.725395,-0.775133 0.736555,-1.242446 0.01913,-0.802246 -0.80192,-1.703377 -1.701091,-1.703377 h -1.302523 z m 25.205495,0 v 5.834229 h 3.363921 v -1.062219 h -2.303728 v -4.77201 z m 3.800752,0 2.558812,3.046303 -1.562389,2.787926 h 1.168604 l 3.293773,-5.834229 h -1.194112 l -1.210056,2.16112 -1.893999,-2.16112 z M 1.1101931,34.931795 h 1.9689301 c 1.0697589,0.04306 1.9115363,0.899536 1.9115363,1.85649 0,0.937815 -0.8067034,1.78472 -1.8477652,1.856491 H 1.1101931 Z m 35.5379939,0.357263 h 1.776023 v 2.990481 h -1.776023 z"
     id="path2"
     inkscape:connector-curvature="0"
     style="opacity:0.79000005;stroke-width:1" />
  <path
     d="M 0.05318865,0.05760175 V 3.1469674 L 0.05,12.118411 V 29.107532 H 3.1381116 V 15.207776 H 13.341474 v 10.810389 l -0.0016,3.090962 h 13.195832 l 19.215801,0.0048 v -3.091 H 27.48748 l 3.319282,-10.810389 25.556235,0.0032 v -3.089367 l -24.607642,-0.0032 2.754908,-8.9698473 32.912222,0.00633 V 0.06872134 L 32.247987,0.06239026 29.289011,10.075318 18.709399,0.06079543 18.648812,0.0958877 V 0.06079543 L 3.1428895,0.05918753 Z M 3.1413002,3.1469674 17.827765,3.1485753 28.292589,13.45178 24.581116,26.019773 h -8.153125 l 0.0016,-13.899754 -13.28988,-0.0016 z"
     id="path4"
     inkscape:connector-curvature="0"
     style="opacity:0.79000005;fill:#36baed;stroke:#000000;stroke-width:0.10000001" />
</svg>
