<?xml version="1.0" encoding="UTF-8" standalone="no"?>
<svg
   xmlns:dc="http://purl.org/dc/elements/1.1/"
   xmlns:cc="http://creativecommons.org/ns#"
   xmlns:rdf="http://www.w3.org/1999/02/22-rdf-syntax-ns#"
   xmlns:svg="http://www.w3.org/2000/svg"
   xmlns="http://www.w3.org/2000/svg"
   xmlns:sodipodi="http://sodipodi.sourceforge.net/DTD/sodipodi-0.dtd"
   xmlns:inkscape="http://www.inkscape.org/namespaces/inkscape"
   width="255.00108"
   height="164.67123"
   viewBox="0 0 67.469707 43.568272"
   version="1.1"
   id="svg204"
   sodipodi:docname="dronenologo.svg"
   inkscape:version="0.92.4 (5da689c313, 2019-01-14)">
  <metadata
     id="metadata210">
    <rdf:RDF>
      <cc:Work
         rdf:about="">
        <dc:format>image/svg+xml</dc:format>
        <dc:type
           rdf:resource="http://purl.org/dc/dcmitype/StillImage" />
      </cc:Work>
    </rdf:RDF>
  </metadata>
  <defs
     id="defs208" />
  <sodipodi:namedview
     pagecolor="#ffffff"
     bordercolor="#666666"
     borderopacity="1"
     objecttolerance="10"
     gridtolerance="10"
     guidetolerance="10"
     inkscape:pageopacity="0"
     inkscape:pageshadow="2"
     inkscape:window-width="1796"
     inkscape:window-height="1051"
     id="namedview206"
     showgrid="false"
     inkscape:zoom="0.87426835"
     inkscape:cx="495.71139"
     inkscape:cy="190.48108"
     inkscape:window-x="-9"
     inkscape:window-y="-9"
     inkscape:window-maximized="1"
     inkscape:current-layer="svg204" />
  <path
     d="m 14.467884,27.43419 v 1.212296 l 2.625994,1.515369 v -1.212296 l 10.504581,-6.061477 v 1.212295 l -10.503974,6.061478 v -1.212296 z"
     id="path2"
     inkscape:connector-curvature="0"
     style="fill:#3eb0f7;fill-opacity:0.98000004;stroke:#000000;stroke-width:0.25999999" />
  <g
     id="g8"
     transform="matrix(0.60646506,0,0,0.60614777,0.0867781,0.0411604)"
     style="stroke:#000000;stroke-width:0.42882606">
    <path
       d="m 60.086,71.196 33.775,-19.5 -1.732,-19 -31.969,18.512 z m 0,-20 v 20 l -31.177,-18 v -20 z"
       id="path4"
       inkscape:connector-curvature="0"
       style="fill:#c08f4f;stroke-width:0.70727617" />
    <path
       d="m 61.818,49.196 32.909,-17 v 13 l -32.909,18 z"
       id="path6"
       inkscape:connector-curvature="0"
       style="fill:#64afde;stroke-width:0.70727617" />
  </g>
  <g
     id="g14"
     transform="matrix(0.60646506,0,0,0.60614777,0.0867781,0.0411604)"
     style="fill:#3eb0f7;stroke:#000000;stroke-width:0.42882606">
    <path
       d="m 26.311,28.692 -2.598,-1.5 v -2 l 43.3,25 30.312,-17.5 v 2 l -30.311,17.5 -2.598,-1.5 z m 66.684,-18.5 v 2 l -15.588,9 -1.732,-1 z"
       id="path10"
       inkscape:connector-curvature="0"
       style="stroke-width:0.42882606" />
    <path
       d="m 100.789,50.696 v 2 l -4.33,2.5 v -2 l -17.321,-10 v 2 l 17.32,10 v -2 z M 19.383,8.692 v 2 l 14.722,8.5 1.732,-1 z"
       id="path12"
       inkscape:connector-curvature="0"
       style="stroke-width:0.42882606" />
  </g>
  <g
     id="g22"
     transform="matrix(0.60646506,0,0,0.60614777,0.0867781,0.0411604)"
     style="stroke:#000000;stroke-width:0.42882606">
    <path
       d="m 27.177,43.192 1.732,1 v -11 l 31.177,18 v 11 l 1.732,1 v -14 l -34.641,-20 z"
       id="path16"
       inkscape:connector-curvature="0"
       style="fill:#64afde;stroke-width:0.70727617" />
    <path
       d="m 67.014,50.196 v 2 z"
       id="path18"
       inkscape:connector-curvature="0"
       style="fill:none;stroke-width:0.70727617" />
    <path
       d="m 23.713,6.192 c 6.062,3.5 16.776,9.735 16.454,9.5 l 13.856,-8 17.321,10 17.321,-10 4.33,2.5 -17.32,10 21.65,12.5 -13.856,8 17.321,10 -4.33,2.5 -17.321,-10 -12.124,7 -21.651,-12.5 -17.32,10 -4.33,-2.5 17.32,-10 -17.32,-10 12.124,-7 -16.454,-9.5 z"
       id="path20"
       inkscape:connector-curvature="0"
       style="opacity:0.98000004;fill:#3eb0f7;stroke-width:0.70727617" />
  </g>
  <g
     transform="matrix(0.65146477,0.23605213,-0.41903097,0.29401198,165.43948,-83.935158)"
     id="g30"
     style="stroke-width:1.64933109">
    <path
       d="m 17.45,291.97 c 0.15,0.027 0.162,-14.547 0.215,-16.889 0.064,-2.851 3.941,9.163 2.715,13.63 -0.386,1.409 -2.93,3.259 -2.93,3.259 z m 1.069,1.86 c -0.098,0.115 12.517,7.414 14.519,8.63 2.437,1.481 -9.906,-1.167 -13.162,-4.463 -1.027,-1.04 -1.357,-4.167 -1.357,-4.167 z m -2.139,0 c -0.05,-0.143 -12.679,7.133 -14.733,8.258 -2.501,1.37 5.964,-7.994 10.446,-9.166 1.413,-0.37 4.287,0.908 4.287,0.908 z"
       id="path24"
       inkscape:connector-curvature="0"
       style="stroke:#000000;stroke-width:0.54427928" />
    <circle
       cx="17.309999"
       cy="293.32001"
       r="1.35"
       id="circle26"
       style="opacity:0.97000002;fill:none;stroke:#000000;stroke-width:0.2803863" />
    <circle
       cx="17.309999"
       cy="293.32001"
       r="0.23999999"
       id="circle28"
       style="opacity:0.97000002;stroke-width:2.72029305" />
  </g>
  <g
     transform="matrix(0.65146477,0.23605213,-0.41903097,0.29401198,165.81549,-54.019341)"
     id="g38"
     style="stroke-width:1.64933109">
    <path
       d="m 14.208,275.29 c 0.15,0.027 0.162,-14.547 0.215,-16.889 0.064,-2.851 3.941,9.162 2.715,13.63 -0.386,1.409 -2.93,3.259 -2.93,3.259 z m 1.07,1.85 c -0.098,0.115 12.517,7.414 14.519,8.63 2.437,1.481 -9.906,-1.167 -13.162,-4.463 -1.027,-1.04 -1.357,-4.167 -1.357,-4.167 z m -2.139,0 c -0.05,-0.143 -12.679,7.133 -14.733,8.258 -2.501,1.37 5.964,-7.995 10.446,-9.166 1.413,-0.37 4.287,0.908 4.287,0.908 z"
       id="path32"
       inkscape:connector-curvature="0"
       style="stroke:#000000;stroke-width:0.54427928" />
    <circle
       cx="14.07"
       cy="276.64001"
       r="0.23999999"
       id="circle34"
       style="opacity:0.97000002;stroke-width:2.72029305" />
    <circle
       cx="14.07"
       cy="276.64001"
       r="1.35"
       id="circle36"
       style="opacity:0.97000002;fill:none;stroke:#000000;stroke-width:0.2803863" />
  </g>
  <g
     transform="matrix(0.65146477,0.23605213,-0.41903097,0.29401198,123.79838,-57.05008)"
     id="g46"
     style="stroke-width:1.64933109">
    <path
       d="m 14.208,275.29 c 0.15,0.027 0.162,-14.547 0.215,-16.889 0.064,-2.851 3.941,9.162 2.715,13.63 -0.386,1.409 -2.93,3.259 -2.93,3.259 z m 1.07,1.85 c -0.098,0.115 12.517,7.414 14.519,8.63 2.437,1.481 -9.906,-1.167 -13.162,-4.463 -1.027,-1.04 -1.357,-4.167 -1.357,-4.167 z m -2.139,0 c -0.05,-0.143 -12.679,7.133 -14.733,8.258 -2.501,1.37 5.964,-7.995 10.446,-9.166 1.413,-0.37 4.287,0.908 4.287,0.908 z"
       id="path40"
       inkscape:connector-curvature="0"
       style="stroke:#000000;stroke-width:0.54427928" />
    <circle
       cx="14.07"
       cy="276.64001"
       r="0.23999999"
       id="circle42"
       style="opacity:0.97000002;stroke-width:2.72029305" />
    <circle
       cx="14.07"
       cy="276.64001"
       r="1.35"
       id="circle44"
       style="opacity:0.97000002;fill:none;stroke:#000000;stroke-width:0.2803863" />
  </g>
  <g
     id="g52"
     transform="matrix(0.60646506,0,0,0.60614777,0.0867781,0.0411604)"
     style="stroke:#000000;stroke-width:0.42882606">
    <path
       d="m 60.086,71.196 33.775,-19.5 -1.732,-19 -31.969,18.512 z m 0,-20 v 20 l -31.177,-18 v -20 z"
       id="path48"
       inkscape:connector-curvature="0"
       style="fill:#c08f4f;stroke-width:0.70727617" />
    <path
       d="m 61.818,49.196 32.909,-17 v 13 l -32.909,18 z"
       id="path50"
       inkscape:connector-curvature="0"
       style="fill:#64afde;stroke-width:0.70727617" />
  </g>
  <g
     id="g58"
     transform="matrix(0.60646506,0,0,0.60614777,0.0867781,0.0411604)"
     style="fill:#3eb0f7;stroke:#000000;stroke-width:0.42882606">
    <path
       d="m 26.311,28.692 -2.598,-1.5 v -2 l 43.3,25 30.312,-17.5 v 2 l -30.311,17.5 -2.598,-1.5 z m 66.684,-18.5 v 2 l -15.588,9 -1.732,-1 z"
       id="path54"
       inkscape:connector-curvature="0"
       style="stroke-width:0.42882606" />
    <path
       d="m 100.789,50.696 v 2 l -4.33,2.5 v -2 l -17.321,-10 v 2 l 17.32,10 v -2 z M 19.383,8.692 v 2 l 14.722,8.5 1.732,-1 z"
       id="path56"
       inkscape:connector-curvature="0"
       style="stroke-width:0.42882606" />
  </g>
  <g
     id="g66"
     transform="matrix(0.60646506,0,0,0.60614777,0.0867781,0.0411604)"
     style="stroke:#000000;stroke-width:0.42882606">
    <path
       d="m 27.177,43.192 1.732,1 v -11 l 31.177,18 v 11 l 1.732,1 v -14 l -34.641,-20 z"
       id="path60"
       inkscape:connector-curvature="0"
       style="fill:#64afde;stroke-width:0.70727617" />
    <path
       d="m 67.014,50.196 v 2 z"
       id="path62"
       inkscape:connector-curvature="0"
       style="fill:none;stroke-width:0.70727617" />
    <path
       d="m 23.713,6.192 c 6.062,3.5 16.776,9.735 16.454,9.5 l 13.856,-8 17.321,10 17.321,-10 4.33,2.5 -17.32,10 21.65,12.5 -13.856,8 17.321,10 -4.33,2.5 -17.321,-10 -12.124,7 -21.651,-12.5 -17.32,10 -4.33,-2.5 17.32,-10 -17.32,-10 12.124,-7 -16.454,-9.5 z"
       id="path64"
       inkscape:connector-curvature="0"
       style="opacity:0.98000004;fill:#3eb0f7;stroke-width:0.70727617" />
  </g>
  <g
     transform="matrix(0.65146477,0.23605213,-0.41903097,0.29401198,165.43948,-83.935158)"
     id="g74"
     style="stroke-width:1.64933109">
    <path
       d="m 17.45,291.97 c 0.15,0.027 0.162,-14.547 0.215,-16.889 0.064,-2.851 3.941,9.163 2.715,13.63 -0.386,1.409 -2.93,3.259 -2.93,3.259 z m 1.069,1.86 c -0.098,0.115 12.517,7.414 14.519,8.63 2.437,1.481 -9.906,-1.167 -13.162,-4.463 -1.027,-1.04 -1.357,-4.167 -1.357,-4.167 z m -2.139,0 c -0.05,-0.143 -12.679,7.133 -14.733,8.258 -2.501,1.37 5.964,-7.994 10.446,-9.166 1.413,-0.37 4.287,0.908 4.287,0.908 z"
       id="path68"
       inkscape:connector-curvature="0"
       style="stroke:#000000;stroke-width:0.54427928" />
    <circle
       cx="17.309999"
       cy="293.32001"
       r="1.35"
       id="circle70"
       style="opacity:0.97000002;fill:none;stroke:#000000;stroke-width:0.2803863" />
    <circle
       cx="17.309999"
       cy="293.32001"
       r="0.23999999"
       id="circle72"
       style="opacity:0.97000002;stroke-width:2.72029305" />
  </g>
  <g
     transform="matrix(0.65146477,0.23605213,-0.41903097,0.29401198,165.81549,-54.019341)"
     id="g82"
     style="stroke-width:1.64933109">
    <path
       d="m 14.208,275.29 c 0.15,0.027 0.162,-14.547 0.215,-16.889 0.064,-2.851 3.941,9.162 2.715,13.63 -0.386,1.409 -2.93,3.259 -2.93,3.259 z m 1.07,1.85 c -0.098,0.115 12.517,7.414 14.519,8.63 2.437,1.481 -9.906,-1.167 -13.162,-4.463 -1.027,-1.04 -1.357,-4.167 -1.357,-4.167 z m -2.139,0 c -0.05,-0.143 -12.679,7.133 -14.733,8.258 -2.501,1.37 5.964,-7.995 10.446,-9.166 1.413,-0.37 4.287,0.908 4.287,0.908 z"
       id="path76"
       inkscape:connector-curvature="0"
       style="stroke:#000000;stroke-width:0.54427928" />
    <circle
       cx="14.07"
       cy="276.64001"
       r="0.23999999"
       id="circle78"
       style="opacity:0.97000002;stroke-width:2.72029305" />
    <circle
       cx="14.07"
       cy="276.64001"
       r="1.35"
       id="circle80"
       style="opacity:0.97000002;fill:none;stroke:#000000;stroke-width:0.2803863" />
  </g>
  <g
     transform="matrix(0.65146477,0.23605213,-0.41903097,0.29401198,123.79838,-57.05008)"
     id="g90"
     style="stroke-width:1.64933109">
    <path
       d="m 14.208,275.29 c 0.15,0.027 0.162,-14.547 0.215,-16.889 0.064,-2.851 3.941,9.162 2.715,13.63 -0.386,1.409 -2.93,3.259 -2.93,3.259 z m 1.07,1.85 c -0.098,0.115 12.517,7.414 14.519,8.63 2.437,1.481 -9.906,-1.167 -13.162,-4.463 -1.027,-1.04 -1.357,-4.167 -1.357,-4.167 z m -2.139,0 c -0.05,-0.143 -12.679,7.133 -14.733,8.258 -2.501,1.37 5.964,-7.995 10.446,-9.166 1.413,-0.37 4.287,0.908 4.287,0.908 z"
       id="path84"
       inkscape:connector-curvature="0"
       style="stroke:#000000;stroke-width:0.54427928" />
    <circle
       cx="14.07"
       cy="276.64001"
       r="0.23999999"
       id="circle86"
       style="opacity:0.97000002;stroke-width:2.72029305" />
    <circle
       cx="14.07"
       cy="276.64001"
       r="1.35"
       id="circle88"
       style="opacity:0.97000002;fill:none;stroke:#000000;stroke-width:0.2803863" />
  </g>
  <g
     transform="matrix(0.65146477,0.23605213,-0.41903097,0.29401198,126.05079,-84.844379)"
     id="g98"
     style="stroke-width:1.64933109">
    <path
       d="m 17.45,291.97 c 0.15,0.027 0.162,-14.547 0.215,-16.889 0.064,-2.851 3.941,9.162 2.715,13.63 -0.386,1.409 -2.93,3.259 -2.93,3.259 z m 1.069,1.86 c -0.098,0.115 12.517,7.414 14.519,8.63 2.437,1.481 -9.906,-1.167 -13.162,-4.463 -1.027,-1.04 -1.357,-4.167 -1.357,-4.167 z m -2.139,0 c -0.05,-0.143 -12.679,7.133 -14.733,8.258 -2.501,1.37 5.964,-7.995 10.446,-9.166 1.413,-0.37 4.287,0.908 4.287,0.908 z"
       id="path92"
       inkscape:connector-curvature="0"
       style="stroke:#000000;stroke-width:0.54427928" />
    <circle
       cx="17.309999"
       cy="293.32001"
       r="0.23999999"
       id="circle94"
       style="opacity:0.97000002;stroke-width:2.72029305" />
    <circle
       cx="17.309999"
       cy="293.32001"
       r="1.35"
       id="circle96"
       style="opacity:0.97000002;fill:none;stroke:#000000;stroke-width:0.2803863" />
  </g>
  <g
     id="g104"
     transform="matrix(0.60646506,0,0,0.60614777,0.0867781,0.0411604)"
     style="stroke:#000000;stroke-width:0.42882606">
    <path
       d="m 60.086,71.196 33.775,-19.5 -1.732,-19 -31.969,18.512 z m 0,-20 v 20 l -31.177,-18 v -20 z"
       id="path100"
       inkscape:connector-curvature="0"
       style="fill:#c08f4f;stroke-width:0.70727617" />
    <path
       d="m 61.818,49.196 32.909,-17 v 13 l -32.909,18 z"
       id="path102"
       inkscape:connector-curvature="0"
       style="fill:#64afde;stroke-width:0.70727617" />
  </g>
  <g
     id="g110"
     transform="matrix(0.60646506,0,0,0.60614777,0.0867781,0.0411604)"
     style="fill:#3eb0f7;stroke:#000000;stroke-width:0.42882606">
    <path
       d="m 26.311,28.692 -2.598,-1.5 v -2 l 43.3,25 30.312,-17.5 v 2 l -30.311,17.5 -2.598,-1.5 z m 66.684,-18.5 v 2 l -15.588,9 -1.732,-1 z"
       id="path106"
       inkscape:connector-curvature="0"
       style="stroke-width:0.42882606" />
    <path
       d="m 100.789,50.696 v 2 l -4.33,2.5 v -2 l -17.321,-10 v 2 l 17.32,10 v -2 z M 19.383,8.692 v 2 l 14.722,8.5 1.732,-1 z"
       id="path108"
       inkscape:connector-curvature="0"
       style="stroke-width:0.42882606" />
  </g>
  <g
     id="g118"
     transform="matrix(0.60646506,0,0,0.60614777,0.0867781,0.0411604)"
     style="stroke:#000000;stroke-width:0.42882606">
    <path
       d="m 27.177,43.192 1.732,1 v -11 l 31.177,18 v 11 l 1.732,1 v -14 l -34.641,-20 z"
       id="path112"
       inkscape:connector-curvature="0"
       style="fill:#64afde;stroke-width:0.70727617" />
    <path
       d="m 67.014,50.196 v 2 z"
       id="path114"
       inkscape:connector-curvature="0"
       style="fill:none;stroke-width:0.70727617" />
    <path
       d="m 23.713,6.192 c 6.062,3.5 16.776,9.735 16.454,9.5 l 13.856,-8 17.321,10 17.321,-10 4.33,2.5 -17.32,10 21.65,12.5 -13.856,8 17.321,10 -4.33,2.5 -17.321,-10 -12.124,7 -21.651,-12.5 -17.32,10 -4.33,-2.5 17.32,-10 -17.32,-10 12.124,-7 -16.454,-9.5 z"
       id="path116"
       inkscape:connector-curvature="0"
       style="opacity:0.98000004;fill:#3eb0f7;stroke-width:0.70727617" />
  </g>
  <g
     transform="matrix(0.65146477,0.23605213,-0.41903097,0.29401198,165.43948,-83.935158)"
     id="g126"
     style="stroke-width:1.64933109">
    <path
       d="m 17.45,291.97 c 0.15,0.027 0.162,-14.547 0.215,-16.889 0.064,-2.851 3.941,9.163 2.715,13.63 -0.386,1.409 -2.93,3.259 -2.93,3.259 z m 1.069,1.86 c -0.098,0.115 12.517,7.414 14.519,8.63 2.437,1.481 -9.906,-1.167 -13.162,-4.463 -1.027,-1.04 -1.357,-4.167 -1.357,-4.167 z m -2.139,0 c -0.05,-0.143 -12.679,7.133 -14.733,8.258 -2.501,1.37 5.964,-7.994 10.446,-9.166 1.413,-0.37 4.287,0.908 4.287,0.908 z"
       id="path120"
       inkscape:connector-curvature="0"
       style="stroke:#000000;stroke-width:0.54427928" />
    <circle
       cx="17.309999"
       cy="293.32001"
       r="1.35"
       id="circle122"
       style="opacity:0.97000002;fill:none;stroke:#000000;stroke-width:0.2803863" />
    <circle
       cx="17.309999"
       cy="293.32001"
       r="0.23999999"
       id="circle124"
       style="opacity:0.97000002;stroke-width:2.72029305" />
  </g>
  <g
     transform="matrix(0.65146477,0.23605213,-0.41903097,0.29401198,165.81549,-54.019341)"
     id="g134"
     style="stroke-width:1.64933109">
    <path
       d="m 14.208,275.29 c 0.15,0.027 0.162,-14.547 0.215,-16.889 0.064,-2.851 3.941,9.162 2.715,13.63 -0.386,1.409 -2.93,3.259 -2.93,3.259 z m 1.07,1.85 c -0.098,0.115 12.517,7.414 14.519,8.63 2.437,1.481 -9.906,-1.167 -13.162,-4.463 -1.027,-1.04 -1.357,-4.167 -1.357,-4.167 z m -2.139,0 c -0.05,-0.143 -12.679,7.133 -14.733,8.258 -2.501,1.37 5.964,-7.995 10.446,-9.166 1.413,-0.37 4.287,0.908 4.287,0.908 z"
       id="path128"
       inkscape:connector-curvature="0"
       style="stroke:#000000;stroke-width:0.54427928" />
    <circle
       cx="14.07"
       cy="276.64001"
       r="0.23999999"
       id="circle130"
       style="opacity:0.97000002;stroke-width:2.72029305" />
    <circle
       cx="14.07"
       cy="276.64001"
       r="1.35"
       id="circle132"
       style="opacity:0.97000002;fill:none;stroke:#000000;stroke-width:0.2803863" />
  </g>
  <g
     transform="matrix(0.65146477,0.23605213,-0.41903097,0.29401198,123.79838,-57.05008)"
     id="g142"
     style="stroke-width:1.64933109">
    <path
       d="m 14.208,275.29 c 0.15,0.027 0.162,-14.547 0.215,-16.889 0.064,-2.851 3.941,9.162 2.715,13.63 -0.386,1.409 -2.93,3.259 -2.93,3.259 z m 1.07,1.85 c -0.098,0.115 12.517,7.414 14.519,8.63 2.437,1.481 -9.906,-1.167 -13.162,-4.463 -1.027,-1.04 -1.357,-4.167 -1.357,-4.167 z m -2.139,0 c -0.05,-0.143 -12.679,7.133 -14.733,8.258 -2.501,1.37 5.964,-7.995 10.446,-9.166 1.413,-0.37 4.287,0.908 4.287,0.908 z"
       id="path136"
       inkscape:connector-curvature="0"
       style="stroke:#000000;stroke-width:0.54427928" />
    <circle
       cx="14.07"
       cy="276.64001"
       r="0.23999999"
       id="circle138"
       style="opacity:0.97000002;stroke-width:2.72029305" />
    <circle
       cx="14.07"
       cy="276.64001"
       r="1.35"
       id="circle140"
       style="opacity:0.97000002;fill:none;stroke:#000000;stroke-width:0.2803863" />
  </g>
  <g
     id="g148"
     transform="matrix(0.60646506,0,0,0.60614777,0.0867781,0.0411604)"
     style="stroke:#000000;stroke-width:0.42882606">
    <path
       d="m 60.086,71.196 33.775,-19.5 -1.732,-19 -31.969,18.512 z m 0,-20 v 20 l -31.177,-18 v -20 z"
       id="path144"
       inkscape:connector-curvature="0"
       style="fill:#c08f4f;stroke-width:0.70727617" />
    <path
       d="m 61.818,49.196 32.909,-17 v 13 l -32.909,18 z"
       id="path146"
       inkscape:connector-curvature="0"
       style="fill:#64afde;stroke-width:0.70727617" />
  </g>
  <g
     id="g154"
     transform="matrix(0.60646506,0,0,0.60614777,0.0867781,0.0411604)"
     style="fill:#3eb0f7;stroke:#000000;stroke-width:0.42882606">
    <path
       d="m 26.311,28.692 -2.598,-1.5 v -2 l 43.3,25 30.312,-17.5 v 2 l -30.311,17.5 -2.598,-1.5 z m 66.684,-18.5 v 2 l -15.588,9 -1.732,-1 z"
       id="path150"
       inkscape:connector-curvature="0"
       style="stroke-width:0.42882606" />
    <path
       d="m 100.789,50.696 v 2 l -4.33,2.5 v -2 l -17.321,-10 v 2 l 17.32,10 v -2 z M 19.383,8.692 v 2 l 14.722,8.5 1.732,-1 z"
       id="path152"
       inkscape:connector-curvature="0"
       style="stroke-width:0.42882606" />
  </g>
  <g
     id="g162"
     transform="matrix(0.60646506,0,0,0.60614777,0.0867781,0.0411604)"
     style="stroke:#000000;stroke-width:0.42882606">
    <path
       d="m 27.177,43.192 1.732,1 v -11 l 31.177,18 v 11 l 1.732,1 v -14 l -34.641,-20 z"
       id="path156"
       inkscape:connector-curvature="0"
       style="fill:#64afde;stroke-width:0.70727617" />
    <path
       d="m 67.014,50.196 v 2 z"
       id="path158"
       inkscape:connector-curvature="0"
       style="fill:none;stroke-width:0.70727617" />
    <path
       d="m 23.713,6.192 c 6.062,3.5 16.776,9.735 16.454,9.5 l 13.856,-8 17.321,10 17.321,-10 4.33,2.5 -17.32,10 21.65,12.5 -13.856,8 17.321,10 -4.33,2.5 -17.321,-10 -12.124,7 -21.651,-12.5 -17.32,10 -4.33,-2.5 17.32,-10 -17.32,-10 12.124,-7 -16.454,-9.5 z"
       id="path160"
       inkscape:connector-curvature="0"
       style="opacity:0.98000004;fill:#3eb0f7;stroke-width:0.70727617" />
  </g>
  <g
     transform="matrix(0.65146477,0.23605213,-0.41903097,0.29401198,165.43948,-83.935158)"
     id="g170"
     style="stroke-width:1.64933109">
    <path
       d="m 17.45,291.97 c 0.15,0.027 0.162,-14.547 0.215,-16.889 0.064,-2.851 3.941,9.163 2.715,13.63 -0.386,1.409 -2.93,3.259 -2.93,3.259 z m 1.069,1.86 c -0.098,0.115 12.517,7.414 14.519,8.63 2.437,1.481 -9.906,-1.167 -13.162,-4.463 -1.027,-1.04 -1.357,-4.167 -1.357,-4.167 z m -2.139,0 c -0.05,-0.143 -12.679,7.133 -14.733,8.258 -2.501,1.37 5.964,-7.994 10.446,-9.166 1.413,-0.37 4.287,0.908 4.287,0.908 z"
       id="path164"
       inkscape:connector-curvature="0"
       style="stroke:#000000;stroke-width:0.54427928" />
    <circle
       cx="17.309999"
       cy="293.32001"
       r="1.35"
       id="circle166"
       style="opacity:0.97000002;fill:none;stroke:#000000;stroke-width:0.2803863" />
    <circle
       cx="17.309999"
       cy="293.32001"
       r="0.23999999"
       id="circle168"
       style="opacity:0.97000002;stroke-width:2.72029305" />
  </g>
  <g
     transform="matrix(0.65146477,0.23605213,-0.41903097,0.29401198,165.81549,-54.019341)"
     id="g178"
     style="stroke-width:1.64933109">
    <path
       d="m 14.208,275.29 c 0.15,0.027 0.162,-14.547 0.215,-16.889 0.064,-2.851 3.941,9.162 2.715,13.63 -0.386,1.409 -2.93,3.259 -2.93,3.259 z m 1.07,1.85 c -0.098,0.115 12.517,7.414 14.519,8.63 2.437,1.481 -9.906,-1.167 -13.162,-4.463 -1.027,-1.04 -1.357,-4.167 -1.357,-4.167 z m -2.139,0 c -0.05,-0.143 -12.679,7.133 -14.733,8.258 -2.501,1.37 5.964,-7.995 10.446,-9.166 1.413,-0.37 4.287,0.908 4.287,0.908 z"
       id="path172"
       inkscape:connector-curvature="0"
       style="stroke:#000000;stroke-width:0.54427928" />
    <circle
       cx="14.07"
       cy="276.64001"
       r="0.23999999"
       id="circle174"
       style="opacity:0.97000002;stroke-width:2.72029305" />
    <circle
       cx="14.07"
       cy="276.64001"
       r="1.35"
       id="circle176"
       style="opacity:0.97000002;fill:none;stroke:#000000;stroke-width:0.2803863" />
  </g>
  <g
     transform="matrix(0.65146477,0.23605213,-0.41903097,0.29401198,126.05079,-84.844379)"
     id="g186"
     style="stroke-width:1.64933109">
    <path
       d="m 17.45,291.97 c 0.15,0.027 0.162,-14.547 0.215,-16.889 0.064,-2.851 3.941,9.162 2.715,13.63 -0.386,1.409 -2.93,3.259 -2.93,3.259 z m 1.069,1.86 c -0.098,0.115 12.517,7.414 14.519,8.63 2.437,1.481 -9.906,-1.167 -13.162,-4.463 -1.027,-1.04 -1.357,-4.167 -1.357,-4.167 z m -2.139,0 c -0.05,-0.143 -12.679,7.133 -14.733,8.258 -2.501,1.37 5.964,-7.995 10.446,-9.166 1.413,-0.37 4.287,0.908 4.287,0.908 z"
       id="path180"
       inkscape:connector-curvature="0"
       style="stroke:#000000;stroke-width:0.54427928" />
    <circle
       cx="17.309999"
       cy="293.32001"
       r="0.23999999"
       id="circle182"
       style="opacity:0.97000002;stroke-width:2.72029305" />
    <circle
       cx="17.309999"
       cy="293.32001"
       r="1.35"
       id="circle184"
       style="opacity:0.97000002;fill:none;stroke:#000000;stroke-width:0.2803863" />
  </g>
  <g
     id="g192"
     transform="matrix(0.60646506,0,0,0.60614777,0.0867781,0.0411604)"
     style="fill:#3eb0f7;fill-opacity:0.98000004;stroke:#000000;stroke-width:0.42882606">
    <path
       d="m 23.713,45.192 v 2 l 4.33,2.5 v -2 l 17.321,-10 v 2 l -17.32,10 v -2 z"
       id="path188"
       inkscape:connector-curvature="0"
       style="stroke-width:0.42882606" />
    <path
       d="m 23.713,45.192 v 2 l 4.33,2.5 v -2 l 17.321,-10 v 2 l -17.32,10 v -2 z"
       id="path190"
       inkscape:connector-curvature="0"
       style="stroke-width:0.42882606" />
  </g>
  <path
     d="m 14.467884,27.43419 v 1.212296 l 2.625994,1.515369 v -1.212296 l 10.504581,-6.061477 v 1.212295 l -10.503974,6.061478 v -1.212296 z"
     id="path194"
     inkscape:connector-curvature="0"
     style="fill:#3eb0f7;fill-opacity:0.98000004;stroke:#000000;stroke-width:0.25999999" />
  <g
     transform="matrix(0.65146477,0.23605213,-0.41903097,0.29401198,123.79838,-57.05008)"
     id="g202"
     style="stroke-width:1.64933109">
    <path
       d="m 14.208,275.29 c 0.15,0.027 0.162,-14.547 0.215,-16.889 0.064,-2.851 3.941,9.162 2.715,13.63 -0.386,1.409 -2.93,3.259 -2.93,3.259 z m 1.07,1.85 c -0.098,0.115 12.517,7.414 14.519,8.63 2.437,1.481 -9.906,-1.167 -13.162,-4.463 -1.027,-1.04 -1.357,-4.167 -1.357,-4.167 z m -2.139,0 c -0.05,-0.143 -12.679,7.133 -14.733,8.258 -2.501,1.37 5.964,-7.995 10.446,-9.166 1.413,-0.37 4.287,0.908 4.287,0.908 z"
       id="path196"
       inkscape:connector-curvature="0"
       style="stroke:#000000;stroke-width:0.54427928" />
    <circle
       cx="14.07"
       cy="276.64001"
       r="0.23999999"
       id="circle198"
       style="opacity:0.97000002;stroke-width:2.72029305" />
    <circle
       cx="14.07"
       cy="276.64001"
       r="1.35"
       id="circle200"
       style="opacity:0.97000002;fill:none;stroke:#000000;stroke-width:0.2803863" />
  </g>
</svg>
