<?xml version="1.0" encoding="UTF-8" standalone="no"?>
<svg
   xmlns:dc="http://purl.org/dc/elements/1.1/"
   xmlns:cc="http://creativecommons.org/ns#"
   xmlns:rdf="http://www.w3.org/1999/02/22-rdf-syntax-ns#"
   xmlns:svg="http://www.w3.org/2000/svg"
   xmlns="http://www.w3.org/2000/svg"
   xmlns:sodipodi="http://sodipodi.sourceforge.net/DTD/sodipodi-0.dtd"
   xmlns:inkscape="http://www.inkscape.org/namespaces/inkscape"
   width="255"
   height="43.386749"
   viewBox="0 0 67.468806 11.479403"
   version="1.1"
   id="svg4"
   sodipodi:docname="motto.svg"
   inkscape:version="0.92.4 (5da689c313, 2019-01-14)">
  <metadata
     id="metadata10">
    <rdf:RDF>
      <cc:Work
         rdf:about="">
        <dc:format>image/svg+xml</dc:format>
        <dc:type
           rdf:resource="http://purl.org/dc/dcmitype/StillImage" />
      </cc:Work>
    </rdf:RDF>
  </metadata>
  <defs
     id="defs8" />
  <sodipodi:namedview
     pagecolor="#ffffff"
     bordercolor="#666666"
     borderopacity="1"
     objecttolerance="10"
     gridtolerance="10"
     guidetolerance="10"
     inkscape:pageopacity="0"
     inkscape:pageshadow="2"
     inkscape:window-width="1796"
     inkscape:window-height="1051"
     id="namedview6"
     showgrid="false"
     inkscape:zoom="2.6303007"
     inkscape:cx="214.10369"
     inkscape:cy="-48.842025"
     inkscape:window-x="-9"
     inkscape:window-y="-9"
     inkscape:window-maximized="1"
     inkscape:current-layer="svg4" />
  <path
     d="M 0,-1.7110019e-4 V 11.479149 h 3.5761815 v -0.004 c 2.002463,-0.0852 3.6111329,-1.5609301 3.6111329,-3.3527301 0,-1.28247 -0.8242929,-2.40298 -2.0271347,-2.96762 0.635896,-0.54122 1.0331492,-1.30057 1.0331492,-2.138 0,-1.63324 -1.5107356,-3.01696000019 -3.3567444,-3.01696000019 H 1.2208942 Z m 35.583296,0 V 1.2207689 h 2.195023 V 11.479049 h 1.220944 V 1.2207689 h 2.194972 V -1.7110019e-4 h -3.415916 z m 14.874681,0 V 11.479149 h 1.220944 V 5.9867089 h 4.389994 v -1.22094 h -4.389994 v -3.54495 h 4.389994 V -1.2110019e-4 H 51.678921 Z M 1.2205432,1.2207689 h 1.6156902 c 1.1289774,0 2.0298927,0.79712 2.0298927,1.79597 0,0.99885 -0.901517,1.74898 -2.0304944,1.74898 H 1.2205432 Z m 39.9369348,3.53647 v 6.7220101 h 3.993944 V 4.7572389 Z m -33.2670726,0.008 v 6.7134901 h 3.8741466 v -1.22094 H 9.1113498 V 8.5328789 h 2.6532022 v -1.22094 H 9.1113498 v -1.32565 h 2.6532022 v -1.22099 H 9.1113498 Z m 4.6173036,0 v 1.22095 h 1.326601 v 5.4924401 h 1.220945 V 5.9861889 h 1.326601 v -1.22095 H 13.83431 Z m 4.728376,0 v 1.22095 h 1.326602 v 5.4924401 h 1.220944 V 5.9861889 h 1.326601 v -1.22095 h -2.547545 z m 5.102312,0 v 6.7134901 h 3.874147 v -1.22094 H 23.559342 V 8.5328789 h 2.653202 v -1.22094 h -2.653202 v -1.32565 h 2.653202 v -1.22099 h -2.653202 z m 5.453832,0 v 6.7134901 h 1.220945 V 5.9862889 h 1.49855 c 0.633589,0 0.943338,0.44299 0.92333,0.73995 -0.01936,0.28773 -0.293903,0.56775 -0.887075,0.58495 -0.01916,6e-4 -0.03861,8.5e-4 -0.05842,8.5e-4 h -1.470268 l -0.0062,1.22094 h 1.470268 c 0.0094,0 0.01885,-2.5e-4 0.02828,-4e-4 v 4e-4 c 0.435263,0.0703 0.656255,2.3112601 0.695719,2.9359301 l 1.201589,0.01 a 8.4851319,8.4851319 0 0 0 -0.0072,-0.12802 c -0.05601,-0.88497 -0.269533,-2.2968701 -0.778611,-3.1955201 0.493934,-0.34852 0.834172,-0.89174 0.847059,-1.429 0.02222,-0.92353 -0.922578,-1.96089 -1.958585,-1.96089 h -1.498551 z m 29.017737,0 v 6.7134901 h 3.874147 v -1.22094 H 58.030911 V 4.7653489 Z m 4.375552,0 2.945601,3.50543 -1.797367,3.2080101 h 1.3436 l 3.791456,-6.7134901 h -1.373637 l -1.393245,2.48677 -2.179928,-2.48672 z m -59.9640722,1.22095 h 2.2672818 c 1.2312242,0.0485 2.1994348,1.035 2.1994348,2.1358 0,1.08014 -0.928395,2.0534601 -2.126122,2.1357501 H 1.2214458 Z m 40.9117652,0.41159 h 2.043933 v 3.43999 h -2.043933 z"
     id="path2"
     inkscape:connector-curvature="0"
     style="opacity:0.79000005;stroke-width:1" />
</svg>
