<?xml version="1.0" encoding="UTF-8" standalone="no"?>
<svg
   xmlns:dc="http://purl.org/dc/elements/1.1/"
   xmlns:cc="http://creativecommons.org/ns#"
   xmlns:rdf="http://www.w3.org/1999/02/22-rdf-syntax-ns#"
   xmlns:svg="http://www.w3.org/2000/svg"
   xmlns="http://www.w3.org/2000/svg"
   xmlns:sodipodi="http://sodipodi.sourceforge.net/DTD/sodipodi-0.dtd"
   xmlns:inkscape="http://www.inkscape.org/namespaces/inkscape"
   width="255.00516"
   height="77.41053"
   viewBox="0 0 67.469801 20.481855"
   version="1.1"
   id="svg200"
   sodipodi:docname="dronesidelogo.svg"
   inkscape:version="0.92.4 (5da689c313, 2019-01-14)">
  <metadata
     id="metadata206">
    <rdf:RDF>
      <cc:Work
         rdf:about="">
        <dc:format>image/svg+xml</dc:format>
        <dc:type
           rdf:resource="http://purl.org/dc/dcmitype/StillImage" />
      </cc:Work>
    </rdf:RDF>
  </metadata>
  <defs
     id="defs204" />
  <sodipodi:namedview
     pagecolor="#ffffff"
     bordercolor="#666666"
     borderopacity="1"
     objecttolerance="10"
     gridtolerance="10"
     guidetolerance="10"
     inkscape:pageopacity="0"
     inkscape:pageshadow="2"
     inkscape:window-width="1796"
     inkscape:window-height="1051"
     id="namedview202"
     showgrid="false"
     inkscape:zoom="3.8555105"
     inkscape:cx="105.63771"
     inkscape:cy="126.19382"
     inkscape:window-x="-9"
     inkscape:window-y="-9"
     inkscape:window-maximized="1"
     inkscape:current-layer="svg200" />
  <path
     d="m 0.05032253,0.05897926 -2.9321e-4,2.14007904 -8.7964e-4,6.213825 -2.9321e-4,2.1400787 -0.0011728,9.627586 2.15715998,2.91e-4 0.00117,-9.627586 7.1256356,0.0012 -0.00117,7.487218 -2.932e-4,2.140369 9.21741,0.0012 13.421481,0.0023 v -2.140703 l -12.758822,-0.0012 2.318133,-7.486635 17.849861,0.0023 2.93e-4,-2.1397867 -17.187495,-0.0026 1.923763,-6.213534 22.987813,0.0044 2.93e-4,-2.14037004 -24.566759,-0.0047 -2.065385,6.93582204 -7.390699,-6.93698604 -0.04251,0.02387 2.93e-4,-0.02387 -10.829782,-0.0012 z m 2.15686667,2.14037004 10.2583118,0.0012 7.308307,7.1367 -2.592287,8.7052947 -5.693882,-8.73e-4 0.0012,-9.6272957 -9.2827956,-0.0012 z"
     id="path2"
     inkscape:connector-curvature="0"
     style="opacity:0.79000005;fill:#36baed;stroke:#000000;stroke-width:0.09999999" />
  <g
     id="g198"
     transform="matrix(0.2932119,0,0,0.29112751,0.03302303,0.04442326)"
     style="stroke-width:4.00454712">
    <g
       id="g22"
       style="stroke:#000000;stroke-width:1.06103396">
      <path
         d="m 143.93,55.54 v 2 l 4.33,2.5 v -2 l 17.321,-10 v 2 l -17.32,10 v -2 z"
         transform="matrix(0.85628,0,0,0.85601,31.493,-0.39)"
         id="path4"
         inkscape:connector-curvature="0"
         style="fill:#3eb0f7;fill-opacity:0.98000004;stroke-width:1.06103396" />
      <path
         d="m -52.664,122.33 33.775,-19.5 -1.732,-19 -31.969,18.512 z m 0,-20 v 20 l -31.177,-18 v -20 z"
         transform="matrix(0.85628,0,0,0.85601,230.98,-35.303)"
         id="path6"
         inkscape:connector-curvature="0"
         style="fill:#c08f4f;stroke-width:1.06103396" />
      <path
         d="m -50.932,100.33 32.909,-17 v 13 l -32.909,18 z"
         transform="matrix(0.85628,0,0,0.85601,230.98,-35.303)"
         id="path8"
         inkscape:connector-curvature="0"
         style="fill:#64afde;stroke-width:1.06103396" />
      <g
         id="g14"
         style="fill:#3eb0f7;stroke-width:1.06103396">
        <path
           d="m -86.439,79.826 -2.598,-1.5 v -2 l 43.3,25 30.312,-17.5 v 2 l -30.311,17.5 -2.598,-1.5 z m 66.684,-18.5 v 2 l -15.588,9 -1.732,-1 z"
           transform="matrix(0.85628,0,0,0.85601,230.98,-35.303)"
           id="path10"
           inkscape:connector-curvature="0"
           style="stroke-width:1.06103396" />
        <path
           d="m -11.961,101.83 v 2 l -4.33,2.5 v -2 l -17.321,-10 v 2 l 17.32,10 v -2 z M -93.367,59.826 v 2 l 14.722,8.5 1.732,-1 z"
           transform="matrix(0.85628,0,0,0.85601,230.98,-35.303)"
           id="path12"
           inkscape:connector-curvature="0"
           style="stroke-width:1.06103396" />
      </g>
      <path
         d="m -85.573,94.326 1.732,1 v -11 l 31.177,18 v 11 l 1.732,1 v -14 l -34.641,-20 z"
         transform="matrix(0.85628,0,0,0.85601,230.98,-35.303)"
         id="path16"
         inkscape:connector-curvature="0"
         style="fill:#64afde;stroke-width:1.06103396" />
      <path
         d="m -45.736,101.33 v 2 z"
         transform="matrix(0.85628,0,0,0.85601,230.98,-35.303)"
         id="path18"
         inkscape:connector-curvature="0"
         style="fill:none;stroke-width:1.06103396" />
      <path
         d="m -89.037,57.326 c 6.062,3.5 16.776,9.735 16.454,9.5 l 13.856,-8 17.321,10 17.321,-10 4.33,2.5 -17.32,10 21.65,12.5 -13.856,8 17.321,10 -4.33,2.5 -17.321,-10 -12.124,7 -21.651,-12.5 -17.32,10 -4.33,-2.5 17.32,-10 -17.32,-10 12.124,-7 -16.454,-9.5 z"
         transform="matrix(0.85628,0,0,0.85601,230.98,-35.303)"
         id="path20"
         inkscape:connector-curvature="0"
         style="opacity:0.98000004;fill:#3eb0f7;stroke-width:1.06103396" />
    </g>
    <g
       transform="matrix(0.91982,0.33336,-0.59164,0.4152,367.9,-110.122)"
       id="g30"
       style="stroke-width:4.00454712">
      <path
         d="m 17.45,291.97 c 0.15,0.027 0.162,-14.547 0.215,-16.889 0.064,-2.851 3.941,9.163 2.715,13.63 -0.386,1.409 -2.93,3.259 -2.93,3.259 z m 1.069,1.86 c -0.098,0.115 12.517,7.414 14.519,8.63 2.437,1.481 -9.906,-1.167 -13.162,-4.463 -1.027,-1.04 -1.357,-4.167 -1.357,-4.167 z m -2.139,0 c -0.05,-0.143 -12.679,7.133 -14.733,8.258 -2.501,1.37 5.964,-7.994 10.446,-9.166 1.413,-0.37 4.287,0.908 4.287,0.908 z"
         id="path24"
         inkscape:connector-curvature="0"
         style="stroke:#000000;stroke-width:1.30062222" />
      <circle
         cx="17.309999"
         cy="293.32001"
         r="1.35"
         id="circle26"
         style="opacity:0.97000002;fill:none;stroke:#000000;stroke-width:0.68453801" />
      <circle
         cx="17.309999"
         cy="293.32001"
         r="0.23999999"
         id="circle28"
         style="opacity:0.97000002;stroke-width:4.00454712" />
    </g>
    <g
       transform="matrix(0.91982,0.33336,-0.59164,0.4152,368.43,-67.877)"
       id="g38"
       style="stroke-width:4.00454712">
      <path
         d="m 14.208,275.29 c 0.15,0.027 0.162,-14.547 0.215,-16.889 0.064,-2.851 3.941,9.162 2.715,13.63 -0.386,1.409 -2.93,3.259 -2.93,3.259 z m 1.07,1.85 c -0.098,0.115 12.517,7.414 14.519,8.63 2.437,1.481 -9.906,-1.167 -13.162,-4.463 -1.027,-1.04 -1.357,-4.167 -1.357,-4.167 z m -2.139,0 c -0.05,-0.143 -12.679,7.133 -14.733,8.258 -2.501,1.37 5.964,-7.995 10.446,-9.166 1.413,-0.37 4.287,0.908 4.287,0.908 z"
         id="path32"
         inkscape:connector-curvature="0"
         style="stroke:#000000;stroke-width:1.30062222" />
      <circle
         cx="14.07"
         cy="276.64001"
         r="0.23999999"
         id="circle34"
         style="opacity:0.97000002;stroke-width:4.00454712" />
      <circle
         cx="14.07"
         cy="276.64001"
         r="1.35"
         id="circle36"
         style="opacity:0.97000002;fill:none;stroke:#000000;stroke-width:0.68453801" />
    </g>
    <g
       transform="matrix(0.91982,0.33336,-0.59164,0.4152,309.108,-72.157)"
       id="g46"
       style="stroke-width:4.00454712">
      <path
         d="m 14.208,275.29 c 0.15,0.027 0.162,-14.547 0.215,-16.889 0.064,-2.851 3.941,9.162 2.715,13.63 -0.386,1.409 -2.93,3.259 -2.93,3.259 z m 1.07,1.85 c -0.098,0.115 12.517,7.414 14.519,8.63 2.437,1.481 -9.906,-1.167 -13.162,-4.463 -1.027,-1.04 -1.357,-4.167 -1.357,-4.167 z m -2.139,0 c -0.05,-0.143 -12.679,7.133 -14.733,8.258 -2.501,1.37 5.964,-7.995 10.446,-9.166 1.413,-0.37 4.287,0.908 4.287,0.908 z"
         id="path40"
         inkscape:connector-curvature="0"
         style="stroke:#000000;stroke-width:1.30062222" />
      <circle
         cx="14.07"
         cy="276.64001"
         r="0.23999999"
         id="circle42"
         style="opacity:0.97000002;stroke-width:4.00454712" />
      <circle
         cx="14.07"
         cy="276.64001"
         r="1.35"
         id="circle44"
         style="opacity:0.97000002;fill:none;stroke:#000000;stroke-width:0.68453801" />
    </g>
    <g
       id="g64"
       style="stroke:#000000;stroke-width:1.06103396">
      <path
         d="m -52.664,122.33 33.775,-19.5 -1.732,-19 -31.969,18.512 z m 0,-20 v 20 l -31.177,-18 v -20 z"
         transform="matrix(0.85628,0,0,0.85601,230.98,-35.303)"
         id="path48"
         inkscape:connector-curvature="0"
         style="fill:#c08f4f;stroke-width:1.06103396" />
      <path
         d="m -50.932,100.33 32.909,-17 v 13 l -32.909,18 z"
         transform="matrix(0.85628,0,0,0.85601,230.98,-35.303)"
         id="path50"
         inkscape:connector-curvature="0"
         style="fill:#64afde;stroke-width:1.06103396" />
      <g
         id="g56"
         style="fill:#3eb0f7;stroke-width:1.06103396">
        <path
           d="m -86.439,79.826 -2.598,-1.5 v -2 l 43.3,25 30.312,-17.5 v 2 l -30.311,17.5 -2.598,-1.5 z m 66.684,-18.5 v 2 l -15.588,9 -1.732,-1 z"
           transform="matrix(0.85628,0,0,0.85601,230.98,-35.303)"
           id="path52"
           inkscape:connector-curvature="0"
           style="stroke-width:1.06103396" />
        <path
           d="m -11.961,101.83 v 2 l -4.33,2.5 v -2 l -17.321,-10 v 2 l 17.32,10 v -2 z M -93.367,59.826 v 2 l 14.722,8.5 1.732,-1 z"
           transform="matrix(0.85628,0,0,0.85601,230.98,-35.303)"
           id="path54"
           inkscape:connector-curvature="0"
           style="stroke-width:1.06103396" />
      </g>
      <path
         d="m -85.573,94.326 1.732,1 v -11 l 31.177,18 v 11 l 1.732,1 v -14 l -34.641,-20 z"
         transform="matrix(0.85628,0,0,0.85601,230.98,-35.303)"
         id="path58"
         inkscape:connector-curvature="0"
         style="fill:#64afde;stroke-width:1.06103396" />
      <path
         d="m -45.736,101.33 v 2 z"
         transform="matrix(0.85628,0,0,0.85601,230.98,-35.303)"
         id="path60"
         inkscape:connector-curvature="0"
         style="fill:none;stroke-width:1.06103396" />
      <path
         d="m -89.037,57.326 c 6.062,3.5 16.776,9.735 16.454,9.5 l 13.856,-8 17.321,10 17.321,-10 4.33,2.5 -17.32,10 21.65,12.5 -13.856,8 17.321,10 -4.33,2.5 -17.321,-10 -12.124,7 -21.651,-12.5 -17.32,10 -4.33,-2.5 17.32,-10 -17.32,-10 12.124,-7 -16.454,-9.5 z"
         transform="matrix(0.85628,0,0,0.85601,230.98,-35.303)"
         id="path62"
         inkscape:connector-curvature="0"
         style="opacity:0.98000004;fill:#3eb0f7;stroke-width:1.06103396" />
    </g>
    <g
       transform="matrix(0.91982,0.33336,-0.59164,0.4152,367.9,-110.122)"
       id="g72"
       style="stroke-width:4.00454712">
      <path
         d="m 17.45,291.97 c 0.15,0.027 0.162,-14.547 0.215,-16.889 0.064,-2.851 3.941,9.163 2.715,13.63 -0.386,1.409 -2.93,3.259 -2.93,3.259 z m 1.069,1.86 c -0.098,0.115 12.517,7.414 14.519,8.63 2.437,1.481 -9.906,-1.167 -13.162,-4.463 -1.027,-1.04 -1.357,-4.167 -1.357,-4.167 z m -2.139,0 c -0.05,-0.143 -12.679,7.133 -14.733,8.258 -2.501,1.37 5.964,-7.994 10.446,-9.166 1.413,-0.37 4.287,0.908 4.287,0.908 z"
         id="path66"
         inkscape:connector-curvature="0"
         style="stroke:#000000;stroke-width:1.30062222" />
      <circle
         cx="17.309999"
         cy="293.32001"
         r="1.35"
         id="circle68"
         style="opacity:0.97000002;fill:none;stroke:#000000;stroke-width:0.68453801" />
      <circle
         cx="17.309999"
         cy="293.32001"
         r="0.23999999"
         id="circle70"
         style="opacity:0.97000002;stroke-width:4.00454712" />
    </g>
    <g
       transform="matrix(0.91982,0.33336,-0.59164,0.4152,368.43,-67.877)"
       id="g80"
       style="stroke-width:4.00454712">
      <path
         d="m 14.208,275.29 c 0.15,0.027 0.162,-14.547 0.215,-16.889 0.064,-2.851 3.941,9.162 2.715,13.63 -0.386,1.409 -2.93,3.259 -2.93,3.259 z m 1.07,1.85 c -0.098,0.115 12.517,7.414 14.519,8.63 2.437,1.481 -9.906,-1.167 -13.162,-4.463 -1.027,-1.04 -1.357,-4.167 -1.357,-4.167 z m -2.139,0 c -0.05,-0.143 -12.679,7.133 -14.733,8.258 -2.501,1.37 5.964,-7.995 10.446,-9.166 1.413,-0.37 4.287,0.908 4.287,0.908 z"
         id="path74"
         inkscape:connector-curvature="0"
         style="stroke:#000000;stroke-width:1.30062222" />
      <circle
         cx="14.07"
         cy="276.64001"
         r="0.23999999"
         id="circle76"
         style="opacity:0.97000002;stroke-width:4.00454712" />
      <circle
         cx="14.07"
         cy="276.64001"
         r="1.35"
         id="circle78"
         style="opacity:0.97000002;fill:none;stroke:#000000;stroke-width:0.68453801" />
    </g>
    <g
       transform="matrix(0.91982,0.33336,-0.59164,0.4152,309.108,-72.157)"
       id="g88"
       style="stroke-width:4.00454712">
      <path
         d="m 14.208,275.29 c 0.15,0.027 0.162,-14.547 0.215,-16.889 0.064,-2.851 3.941,9.162 2.715,13.63 -0.386,1.409 -2.93,3.259 -2.93,3.259 z m 1.07,1.85 c -0.098,0.115 12.517,7.414 14.519,8.63 2.437,1.481 -9.906,-1.167 -13.162,-4.463 -1.027,-1.04 -1.357,-4.167 -1.357,-4.167 z m -2.139,0 c -0.05,-0.143 -12.679,7.133 -14.733,8.258 -2.501,1.37 5.964,-7.995 10.446,-9.166 1.413,-0.37 4.287,0.908 4.287,0.908 z"
         id="path82"
         inkscape:connector-curvature="0"
         style="stroke:#000000;stroke-width:1.30062222" />
      <circle
         cx="14.07"
         cy="276.64001"
         r="0.23999999"
         id="circle84"
         style="opacity:0.97000002;stroke-width:4.00454712" />
      <circle
         cx="14.07"
         cy="276.64001"
         r="1.35"
         id="circle86"
         style="opacity:0.97000002;fill:none;stroke:#000000;stroke-width:0.68453801" />
    </g>
    <g
       transform="matrix(0.91982,0.33336,-0.59164,0.4152,312.284,-111.406)"
       id="g96"
       style="stroke-width:4.00454712">
      <path
         d="m 17.45,291.97 c 0.15,0.027 0.162,-14.547 0.215,-16.889 0.064,-2.851 3.941,9.162 2.715,13.63 -0.386,1.409 -2.93,3.259 -2.93,3.259 z m 1.069,1.86 c -0.098,0.115 12.517,7.414 14.519,8.63 2.437,1.481 -9.906,-1.167 -13.162,-4.463 -1.027,-1.04 -1.357,-4.167 -1.357,-4.167 z m -2.139,0 c -0.05,-0.143 -12.679,7.133 -14.733,8.258 -2.501,1.37 5.964,-7.995 10.446,-9.166 1.413,-0.37 4.287,0.908 4.287,0.908 z"
         id="path90"
         inkscape:connector-curvature="0"
         style="stroke:#000000;stroke-width:1.30062222" />
      <circle
         cx="17.309999"
         cy="293.32001"
         r="0.23999999"
         id="circle92"
         style="opacity:0.97000002;stroke-width:4.00454712" />
      <circle
         cx="17.309999"
         cy="293.32001"
         r="1.35"
         id="circle94"
         style="opacity:0.97000002;fill:none;stroke:#000000;stroke-width:0.68453801" />
    </g>
    <g
       id="g114"
       style="stroke:#000000;stroke-width:1.06103396">
      <path
         d="m -52.664,122.33 33.775,-19.5 -1.732,-19 -31.969,18.512 z m 0,-20 v 20 l -31.177,-18 v -20 z"
         transform="matrix(0.85628,0,0,0.85601,230.98,-35.303)"
         id="path98"
         inkscape:connector-curvature="0"
         style="fill:#c08f4f;stroke-width:1.06103396" />
      <path
         d="m -50.932,100.33 32.909,-17 v 13 l -32.909,18 z"
         transform="matrix(0.85628,0,0,0.85601,230.98,-35.303)"
         id="path100"
         inkscape:connector-curvature="0"
         style="fill:#64afde;stroke-width:1.06103396" />
      <g
         id="g106"
         style="fill:#3eb0f7;stroke-width:1.06103396">
        <path
           d="m -86.439,79.826 -2.598,-1.5 v -2 l 43.3,25 30.312,-17.5 v 2 l -30.311,17.5 -2.598,-1.5 z m 66.684,-18.5 v 2 l -15.588,9 -1.732,-1 z"
           transform="matrix(0.85628,0,0,0.85601,230.98,-35.303)"
           id="path102"
           inkscape:connector-curvature="0"
           style="stroke-width:1.06103396" />
        <path
           d="m -11.961,101.83 v 2 l -4.33,2.5 v -2 l -17.321,-10 v 2 l 17.32,10 v -2 z M -93.367,59.826 v 2 l 14.722,8.5 1.732,-1 z"
           transform="matrix(0.85628,0,0,0.85601,230.98,-35.303)"
           id="path104"
           inkscape:connector-curvature="0"
           style="stroke-width:1.06103396" />
      </g>
      <path
         d="m -85.573,94.326 1.732,1 v -11 l 31.177,18 v 11 l 1.732,1 v -14 l -34.641,-20 z"
         transform="matrix(0.85628,0,0,0.85601,230.98,-35.303)"
         id="path108"
         inkscape:connector-curvature="0"
         style="fill:#64afde;stroke-width:1.06103396" />
      <path
         d="m -45.736,101.33 v 2 z"
         transform="matrix(0.85628,0,0,0.85601,230.98,-35.303)"
         id="path110"
         inkscape:connector-curvature="0"
         style="fill:none;stroke-width:1.06103396" />
      <path
         d="m -89.037,57.326 c 6.062,3.5 16.776,9.735 16.454,9.5 l 13.856,-8 17.321,10 17.321,-10 4.33,2.5 -17.32,10 21.65,12.5 -13.856,8 17.321,10 -4.33,2.5 -17.321,-10 -12.124,7 -21.651,-12.5 -17.32,10 -4.33,-2.5 17.32,-10 -17.32,-10 12.124,-7 -16.454,-9.5 z"
         transform="matrix(0.85628,0,0,0.85601,230.98,-35.303)"
         id="path112"
         inkscape:connector-curvature="0"
         style="opacity:0.98000004;fill:#3eb0f7;stroke-width:1.06103396" />
    </g>
    <g
       transform="matrix(0.91982,0.33336,-0.59164,0.4152,367.9,-110.122)"
       id="g122"
       style="stroke-width:4.00454712">
      <path
         d="m 17.45,291.97 c 0.15,0.027 0.162,-14.547 0.215,-16.889 0.064,-2.851 3.941,9.163 2.715,13.63 -0.386,1.409 -2.93,3.259 -2.93,3.259 z m 1.069,1.86 c -0.098,0.115 12.517,7.414 14.519,8.63 2.437,1.481 -9.906,-1.167 -13.162,-4.463 -1.027,-1.04 -1.357,-4.167 -1.357,-4.167 z m -2.139,0 c -0.05,-0.143 -12.679,7.133 -14.733,8.258 -2.501,1.37 5.964,-7.994 10.446,-9.166 1.413,-0.37 4.287,0.908 4.287,0.908 z"
         id="path116"
         inkscape:connector-curvature="0"
         style="stroke:#000000;stroke-width:1.30062222" />
      <circle
         cx="17.309999"
         cy="293.32001"
         r="1.35"
         id="circle118"
         style="opacity:0.97000002;fill:none;stroke:#000000;stroke-width:0.68453801" />
      <circle
         cx="17.309999"
         cy="293.32001"
         r="0.23999999"
         id="circle120"
         style="opacity:0.97000002;stroke-width:4.00454712" />
    </g>
    <g
       transform="matrix(0.91982,0.33336,-0.59164,0.4152,368.43,-67.877)"
       id="g130"
       style="stroke-width:4.00454712">
      <path
         d="m 14.208,275.29 c 0.15,0.027 0.162,-14.547 0.215,-16.889 0.064,-2.851 3.941,9.162 2.715,13.63 -0.386,1.409 -2.93,3.259 -2.93,3.259 z m 1.07,1.85 c -0.098,0.115 12.517,7.414 14.519,8.63 2.437,1.481 -9.906,-1.167 -13.162,-4.463 -1.027,-1.04 -1.357,-4.167 -1.357,-4.167 z m -2.139,0 c -0.05,-0.143 -12.679,7.133 -14.733,8.258 -2.501,1.37 5.964,-7.995 10.446,-9.166 1.413,-0.37 4.287,0.908 4.287,0.908 z"
         id="path124"
         inkscape:connector-curvature="0"
         style="stroke:#000000;stroke-width:1.30062222" />
      <circle
         cx="14.07"
         cy="276.64001"
         r="0.23999999"
         id="circle126"
         style="opacity:0.97000002;stroke-width:4.00454712" />
      <circle
         cx="14.07"
         cy="276.64001"
         r="1.35"
         id="circle128"
         style="opacity:0.97000002;fill:none;stroke:#000000;stroke-width:0.68453801" />
    </g>
    <g
       transform="matrix(0.91982,0.33336,-0.59164,0.4152,309.108,-72.157)"
       id="g138"
       style="stroke-width:4.00454712">
      <path
         d="m 14.208,275.29 c 0.15,0.027 0.162,-14.547 0.215,-16.889 0.064,-2.851 3.941,9.162 2.715,13.63 -0.386,1.409 -2.93,3.259 -2.93,3.259 z m 1.07,1.85 c -0.098,0.115 12.517,7.414 14.519,8.63 2.437,1.481 -9.906,-1.167 -13.162,-4.463 -1.027,-1.04 -1.357,-4.167 -1.357,-4.167 z m -2.139,0 c -0.05,-0.143 -12.679,7.133 -14.733,8.258 -2.501,1.37 5.964,-7.995 10.446,-9.166 1.413,-0.37 4.287,0.908 4.287,0.908 z"
         id="path132"
         inkscape:connector-curvature="0"
         style="stroke:#000000;stroke-width:1.30062222" />
      <circle
         cx="14.07"
         cy="276.64001"
         r="0.23999999"
         id="circle134"
         style="opacity:0.97000002;stroke-width:4.00454712" />
      <circle
         cx="14.07"
         cy="276.64001"
         r="1.35"
         id="circle136"
         style="opacity:0.97000002;fill:none;stroke:#000000;stroke-width:0.68453801" />
    </g>
    <g
       id="g156"
       style="stroke:#000000;stroke-width:1.06103396">
      <path
         d="m -52.664,122.33 33.775,-19.5 -1.732,-19 -31.969,18.512 z m 0,-20 v 20 l -31.177,-18 v -20 z"
         transform="matrix(0.85628,0,0,0.85601,230.98,-35.303)"
         id="path140"
         inkscape:connector-curvature="0"
         style="fill:#c08f4f;stroke-width:1.06103396" />
      <path
         d="m -50.932,100.33 32.909,-17 v 13 l -32.909,18 z"
         transform="matrix(0.85628,0,0,0.85601,230.98,-35.303)"
         id="path142"
         inkscape:connector-curvature="0"
         style="fill:#64afde;stroke-width:1.06103396" />
      <g
         id="g148"
         style="fill:#3eb0f7;stroke-width:1.06103396">
        <path
           d="m -86.439,79.826 -2.598,-1.5 v -2 l 43.3,25 30.312,-17.5 v 2 l -30.311,17.5 -2.598,-1.5 z m 66.684,-18.5 v 2 l -15.588,9 -1.732,-1 z"
           transform="matrix(0.85628,0,0,0.85601,230.98,-35.303)"
           id="path144"
           inkscape:connector-curvature="0"
           style="stroke-width:1.06103396" />
        <path
           d="m -11.961,101.83 v 2 l -4.33,2.5 v -2 l -17.321,-10 v 2 l 17.32,10 v -2 z M -93.367,59.826 v 2 l 14.722,8.5 1.732,-1 z"
           transform="matrix(0.85628,0,0,0.85601,230.98,-35.303)"
           id="path146"
           inkscape:connector-curvature="0"
           style="stroke-width:1.06103396" />
      </g>
      <path
         d="m -85.573,94.326 1.732,1 v -11 l 31.177,18 v 11 l 1.732,1 v -14 l -34.641,-20 z"
         transform="matrix(0.85628,0,0,0.85601,230.98,-35.303)"
         id="path150"
         inkscape:connector-curvature="0"
         style="fill:#64afde;stroke-width:1.06103396" />
      <path
         d="m -45.736,101.33 v 2 z"
         transform="matrix(0.85628,0,0,0.85601,230.98,-35.303)"
         id="path152"
         inkscape:connector-curvature="0"
         style="fill:none;stroke-width:1.06103396" />
      <path
         d="m -89.037,57.326 c 6.062,3.5 16.776,9.735 16.454,9.5 l 13.856,-8 17.321,10 17.321,-10 4.33,2.5 -17.32,10 21.65,12.5 -13.856,8 17.321,10 -4.33,2.5 -17.321,-10 -12.124,7 -21.651,-12.5 -17.32,10 -4.33,-2.5 17.32,-10 -17.32,-10 12.124,-7 -16.454,-9.5 z"
         transform="matrix(0.85628,0,0,0.85601,230.98,-35.303)"
         id="path154"
         inkscape:connector-curvature="0"
         style="opacity:0.98000004;fill:#3eb0f7;stroke-width:1.06103396" />
    </g>
    <g
       transform="matrix(0.91982,0.33336,-0.59164,0.4152,367.9,-110.122)"
       id="g164"
       style="stroke-width:4.00454712">
      <path
         d="m 17.45,291.97 c 0.15,0.027 0.162,-14.547 0.215,-16.889 0.064,-2.851 3.941,9.163 2.715,13.63 -0.386,1.409 -2.93,3.259 -2.93,3.259 z m 1.069,1.86 c -0.098,0.115 12.517,7.414 14.519,8.63 2.437,1.481 -9.906,-1.167 -13.162,-4.463 -1.027,-1.04 -1.357,-4.167 -1.357,-4.167 z m -2.139,0 c -0.05,-0.143 -12.679,7.133 -14.733,8.258 -2.501,1.37 5.964,-7.994 10.446,-9.166 1.413,-0.37 4.287,0.908 4.287,0.908 z"
         id="path158"
         inkscape:connector-curvature="0"
         style="stroke:#000000;stroke-width:1.30062222" />
      <circle
         cx="17.309999"
         cy="293.32001"
         r="1.35"
         id="circle160"
         style="opacity:0.97000002;fill:none;stroke:#000000;stroke-width:0.68453801" />
      <circle
         cx="17.309999"
         cy="293.32001"
         r="0.23999999"
         id="circle162"
         style="opacity:0.97000002;stroke-width:4.00454712" />
    </g>
    <g
       transform="matrix(0.91982,0.33336,-0.59164,0.4152,368.43,-67.877)"
       id="g172"
       style="stroke-width:4.00454712">
      <path
         d="m 14.208,275.29 c 0.15,0.027 0.162,-14.547 0.215,-16.889 0.064,-2.851 3.941,9.162 2.715,13.63 -0.386,1.409 -2.93,3.259 -2.93,3.259 z m 1.07,1.85 c -0.098,0.115 12.517,7.414 14.519,8.63 2.437,1.481 -9.906,-1.167 -13.162,-4.463 -1.027,-1.04 -1.357,-4.167 -1.357,-4.167 z m -2.139,0 c -0.05,-0.143 -12.679,7.133 -14.733,8.258 -2.501,1.37 5.964,-7.995 10.446,-9.166 1.413,-0.37 4.287,0.908 4.287,0.908 z"
         id="path166"
         inkscape:connector-curvature="0"
         style="stroke:#000000;stroke-width:1.30062222" />
      <circle
         cx="14.07"
         cy="276.64001"
         r="0.23999999"
         id="circle168"
         style="opacity:0.97000002;stroke-width:4.00454712" />
      <circle
         cx="14.07"
         cy="276.64001"
         r="1.35"
         id="circle170"
         style="opacity:0.97000002;fill:none;stroke:#000000;stroke-width:0.68453801" />
    </g>
    <g
       transform="matrix(0.91982,0.33336,-0.59164,0.4152,312.284,-111.406)"
       id="g180"
       style="stroke-width:4.00454712">
      <path
         d="m 17.45,291.97 c 0.15,0.027 0.162,-14.547 0.215,-16.889 0.064,-2.851 3.941,9.162 2.715,13.63 -0.386,1.409 -2.93,3.259 -2.93,3.259 z m 1.069,1.86 c -0.098,0.115 12.517,7.414 14.519,8.63 2.437,1.481 -9.906,-1.167 -13.162,-4.463 -1.027,-1.04 -1.357,-4.167 -1.357,-4.167 z m -2.139,0 c -0.05,-0.143 -12.679,7.133 -14.733,8.258 -2.501,1.37 5.964,-7.995 10.446,-9.166 1.413,-0.37 4.287,0.908 4.287,0.908 z"
         id="path174"
         inkscape:connector-curvature="0"
         style="stroke:#000000;stroke-width:1.30062222" />
      <circle
         cx="17.309999"
         cy="293.32001"
         r="0.23999999"
         id="circle176"
         style="opacity:0.97000002;stroke-width:4.00454712" />
      <circle
         cx="17.309999"
         cy="293.32001"
         r="1.35"
         id="circle178"
         style="opacity:0.97000002;fill:none;stroke:#000000;stroke-width:0.68453801" />
    </g>
    <g
       id="g186"
       style="fill:#3eb0f7;fill-opacity:0.98000004;stroke:#000000;stroke-width:1.06103396">
      <path
         d="m -89.037,96.326 v 2 l 4.33,2.5 v -2 l 17.321,-10 v 2 l -17.32,10 v -2 z"
         transform="matrix(0.85628,0,0,0.85601,230.98,-35.303)"
         id="path182"
         inkscape:connector-curvature="0"
         style="stroke-width:1.06103396" />
      <path
         d="m -89.037,96.326 v 2 l 4.33,2.5 v -2 l 17.321,-10 v 2 l -17.32,10 v -2 z"
         transform="matrix(0.85628,0,0,0.85601,230.98,-35.303)"
         id="path184"
         inkscape:connector-curvature="0"
         style="stroke-width:1.06103396" />
    </g>
    <path
       d="m 143.93,55.54 v 2 l 4.33,2.5 v -2 l 17.321,-10 v 2 l -17.32,10 v -2 z"
       transform="matrix(0.85628,0,0,0.85601,31.493,-0.39)"
       id="path188"
       inkscape:connector-curvature="0"
       style="fill:#3eb0f7;fill-opacity:0.98000004;stroke:#000000;stroke-width:1.06103396" />
    <g
       transform="matrix(0.91982,0.33336,-0.59164,0.4152,309.108,-72.157)"
       id="g196"
       style="stroke-width:4.00454712">
      <path
         d="m 14.208,275.29 c 0.15,0.027 0.162,-14.547 0.215,-16.889 0.064,-2.851 3.941,9.162 2.715,13.63 -0.386,1.409 -2.93,3.259 -2.93,3.259 z m 1.07,1.85 c -0.098,0.115 12.517,7.414 14.519,8.63 2.437,1.481 -9.906,-1.167 -13.162,-4.463 -1.027,-1.04 -1.357,-4.167 -1.357,-4.167 z m -2.139,0 c -0.05,-0.143 -12.679,7.133 -14.733,8.258 -2.501,1.37 5.964,-7.995 10.446,-9.166 1.413,-0.37 4.287,0.908 4.287,0.908 z"
         id="path190"
         inkscape:connector-curvature="0"
         style="stroke:#000000;stroke-width:1.30062222" />
      <circle
         cx="14.07"
         cy="276.64001"
         r="0.23999999"
         id="circle192"
         style="opacity:0.97000002;stroke-width:4.00454712" />
      <circle
         cx="14.07"
         cy="276.64001"
         r="1.35"
         id="circle194"
         style="opacity:0.97000002;fill:none;stroke:#000000;stroke-width:0.68453801" />
    </g>
  </g>
</svg>
