<?xml version="1.0" encoding="UTF-8" standalone="no"?>
<svg
   xmlns:dc="http://purl.org/dc/elements/1.1/"
   xmlns:cc="http://creativecommons.org/ns#"
   xmlns:rdf="http://www.w3.org/1999/02/22-rdf-syntax-ns#"
   xmlns:svg="http://www.w3.org/2000/svg"
   xmlns="http://www.w3.org/2000/svg"
   xmlns:sodipodi="http://sodipodi.sourceforge.net/DTD/sodipodi-0.dtd"
   xmlns:inkscape="http://www.inkscape.org/namespaces/inkscape"
   width="255.0011"
   height="164.14172"
   viewBox="0 0 67.469711 43.428176"
   version="1.1"
   id="svg210"
   sodipodi:docname="dronelogoon.svg"
   inkscape:version="0.92.4 (5da689c313, 2019-01-14)">
  <metadata
     id="metadata216">
    <rdf:RDF>
      <cc:Work
         rdf:about="">
        <dc:format>image/svg+xml</dc:format>
        <dc:type
           rdf:resource="http://purl.org/dc/dcmitype/StillImage" />
      </cc:Work>
    </rdf:RDF>
  </metadata>
  <defs
     id="defs214" />
  <sodipodi:namedview
     pagecolor="#ffffff"
     bordercolor="#666666"
     borderopacity="1"
     objecttolerance="10"
     gridtolerance="10"
     guidetolerance="10"
     inkscape:pageopacity="0"
     inkscape:pageshadow="2"
     inkscape:window-width="1796"
     inkscape:window-height="1051"
     id="namedview212"
     showgrid="false"
     inkscape:zoom="1.2364022"
     inkscape:cx="331.63303"
     inkscape:cy="51.455922"
     inkscape:window-x="-9"
     inkscape:window-y="-9"
     inkscape:window-maximized="1"
     inkscape:current-layer="svg210" />
  <path
     d="m 14.467895,27.429075 v 1.212069 l 2.625992,1.515087 v -1.21207 l 10.504575,-6.060344 v 1.212069 l -10.503968,6.060345 v -1.21207 z"
     id="path2"
     inkscape:connector-curvature="0"
     style="fill:#3eb0f7;fill-opacity:0.98000004;stroke:#000000;stroke-width:0.25999999" />
  <g
     id="g8"
     transform="matrix(0.60646467,0,0,0.60603449,0.08679868,0.04116502)"
     style="stroke:#000000;stroke-width:0.4288663">
    <path
       d="m 60.086,71.196 33.775,-19.5 -1.732,-19 -31.969,18.512 z m 0,-20 v 20 l -31.177,-18 v -20 z"
       id="path4"
       inkscape:connector-curvature="0"
       style="fill:#c08f4f;stroke-width:0.45636329" />
    <path
       d="m 61.818,49.196 32.909,-17 v 13 l -32.909,18 z"
       id="path6"
       inkscape:connector-curvature="0"
       style="fill:#64afde;stroke-width:0.45636329" />
  </g>
  <g
     id="g14"
     transform="matrix(0.60646467,0,0,0.60603449,0.08679868,0.04116502)"
     style="fill:#3eb0f7;stroke:#000000;stroke-width:0.4288663">
    <path
       d="m 26.311,28.692 -2.598,-1.5 v -2 l 43.3,25 30.312,-17.5 v 2 l -30.311,17.5 -2.598,-1.5 z m 66.684,-18.5 v 2 l -15.588,9 -1.732,-1 z"
       id="path10"
       inkscape:connector-curvature="0"
       style="stroke-width:0.4288663" />
    <path
       d="m 100.789,50.696 v 2 l -4.33,2.5 v -2 l -17.321,-10 v 2 l 17.32,10 v -2 z M 19.383,8.692 v 2 l 14.722,8.5 1.732,-1 z"
       id="path12"
       inkscape:connector-curvature="0"
       style="stroke-width:0.4288663" />
  </g>
  <g
     id="g22"
     transform="matrix(0.60646467,0,0,0.60603449,0.08679868,0.04116502)"
     style="stroke:#000000;stroke-width:0.4288663">
    <path
       d="m 27.177,43.192 1.732,1 v -11 l 31.177,18 v 11 l 1.732,1 v -14 l -34.641,-20 z"
       id="path16"
       inkscape:connector-curvature="0"
       style="fill:#64afde;stroke-width:0.45636329" />
    <path
       d="m 67.014,50.196 v 2 z"
       id="path18"
       inkscape:connector-curvature="0"
       style="fill:none;stroke-width:0.45636329" />
    <path
       d="m 23.713,6.192 c 6.062,3.5 16.776,9.735 16.454,9.5 l 13.856,-8 17.321,10 17.321,-10 4.33,2.5 -17.32,10 21.65,12.5 -13.856,8 17.321,10 -4.33,2.5 -17.321,-10 -12.124,7 -21.651,-12.5 -17.32,10 -4.33,-2.5 17.32,-10 -17.32,-10 12.124,-7 -16.454,-9.5 z"
       id="path20"
       inkscape:connector-curvature="0"
       style="opacity:0.98000004;fill:#3eb0f7;stroke-width:0.45636329" />
  </g>
  <g
     transform="matrix(0.65146433,0.23600801,-0.4190307,0.29395703,165.43939,-83.919459)"
     id="g30"
     style="stroke-width:1.64948571">
    <path
       d="m 17.45,291.97 c 0.15,0.027 0.162,-14.547 0.215,-16.889 0.064,-2.851 3.941,9.163 2.715,13.63 -0.386,1.409 -2.93,3.259 -2.93,3.259 z m 1.069,1.86 c -0.098,0.115 12.517,7.414 14.519,8.63 2.437,1.481 -9.906,-1.167 -13.162,-4.463 -1.027,-1.04 -1.357,-4.167 -1.357,-4.167 z m -2.139,0 c -0.05,-0.143 -12.679,7.133 -14.733,8.258 -2.501,1.37 5.964,-7.994 10.446,-9.166 1.413,-0.37 4.287,0.908 4.287,0.908 z"
       id="path24"
       inkscape:connector-curvature="0"
       style="stroke:#000000;stroke-width:0.5443303" />
    <circle
       cx="17.309999"
       cy="293.32001"
       r="1.35"
       id="circle26"
       style="opacity:0.97000002;fill:none;stroke:#000000;stroke-width:0.28041258" />
    <circle
       cx="17.309999"
       cy="293.32001"
       r="0.23999999"
       id="circle28"
       style="opacity:0.97000002;stroke-width:1.7552433" />
  </g>
  <g
     transform="matrix(0.65146433,0.23600801,-0.4190307,0.29395703,165.8154,-54.009233)"
     id="g38"
     style="stroke-width:1.64948571">
    <path
       d="m 14.208,275.29 c 0.15,0.027 0.162,-14.547 0.215,-16.889 0.064,-2.851 3.941,9.162 2.715,13.63 -0.386,1.409 -2.93,3.259 -2.93,3.259 z m 1.07,1.85 c -0.098,0.115 12.517,7.414 14.519,8.63 2.437,1.481 -9.906,-1.167 -13.162,-4.463 -1.027,-1.04 -1.357,-4.167 -1.357,-4.167 z m -2.139,0 c -0.05,-0.143 -12.679,7.133 -14.733,8.258 -2.501,1.37 5.964,-7.995 10.446,-9.166 1.413,-0.37 4.287,0.908 4.287,0.908 z"
       id="path32"
       inkscape:connector-curvature="0"
       style="stroke:#000000;stroke-width:0.5443303" />
    <circle
       cx="14.07"
       cy="276.64001"
       r="0.23999999"
       id="circle34"
       style="opacity:0.97000002;stroke-width:1.7552433" />
    <circle
       cx="14.07"
       cy="276.64001"
       r="1.35"
       id="circle36"
       style="opacity:0.97000002;fill:none;stroke:#000000;stroke-width:0.28041258" />
  </g>
  <g
     transform="matrix(0.65146433,0.23600801,-0.4190307,0.29395703,123.79831,-57.039406)"
     id="g46"
     style="stroke-width:1.64948571">
    <path
       d="m 14.208,275.29 c 0.15,0.027 0.162,-14.547 0.215,-16.889 0.064,-2.851 3.941,9.162 2.715,13.63 -0.386,1.409 -2.93,3.259 -2.93,3.259 z m 1.07,1.85 c -0.098,0.115 12.517,7.414 14.519,8.63 2.437,1.481 -9.906,-1.167 -13.162,-4.463 -1.027,-1.04 -1.357,-4.167 -1.357,-4.167 z m -2.139,0 c -0.05,-0.143 -12.679,7.133 -14.733,8.258 -2.501,1.37 5.964,-7.995 10.446,-9.166 1.413,-0.37 4.287,0.908 4.287,0.908 z"
       id="path40"
       inkscape:connector-curvature="0"
       style="stroke:#000000;stroke-width:0.5443303" />
    <circle
       cx="14.07"
       cy="276.64001"
       r="0.23999999"
       id="circle42"
       style="opacity:0.97000002;stroke-width:1.7552433" />
    <circle
       cx="14.07"
       cy="276.64001"
       r="1.35"
       id="circle44"
       style="opacity:0.97000002;fill:none;stroke:#000000;stroke-width:0.28041258" />
  </g>
  <g
     id="g52"
     transform="matrix(0.60646467,0,0,0.60603449,0.08679868,0.04116502)"
     style="stroke:#000000;stroke-width:0.4288663">
    <path
       d="m 60.086,71.196 33.775,-19.5 -1.732,-19 -31.969,18.512 z m 0,-20 v 20 l -31.177,-18 v -20 z"
       id="path48"
       inkscape:connector-curvature="0"
       style="fill:#c08f4f;stroke-width:0.45636329" />
    <path
       d="m 61.818,49.196 32.909,-17 v 13 l -32.909,18 z"
       id="path50"
       inkscape:connector-curvature="0"
       style="fill:#64afde;stroke-width:0.45636329" />
  </g>
  <g
     id="g58"
     transform="matrix(0.60646467,0,0,0.60603449,0.08679868,0.04116502)"
     style="fill:#3eb0f7;stroke:#000000;stroke-width:0.4288663">
    <path
       d="m 26.311,28.692 -2.598,-1.5 v -2 l 43.3,25 30.312,-17.5 v 2 l -30.311,17.5 -2.598,-1.5 z m 66.684,-18.5 v 2 l -15.588,9 -1.732,-1 z"
       id="path54"
       inkscape:connector-curvature="0"
       style="stroke-width:0.4288663" />
    <path
       d="m 100.789,50.696 v 2 l -4.33,2.5 v -2 l -17.321,-10 v 2 l 17.32,10 v -2 z M 19.383,8.692 v 2 l 14.722,8.5 1.732,-1 z"
       id="path56"
       inkscape:connector-curvature="0"
       style="stroke-width:0.4288663" />
  </g>
  <g
     id="g66"
     transform="matrix(0.60646467,0,0,0.60603449,0.08679868,0.04116502)"
     style="stroke:#000000;stroke-width:0.4288663">
    <path
       d="m 27.177,43.192 1.732,1 v -11 l 31.177,18 v 11 l 1.732,1 v -14 l -34.641,-20 z"
       id="path60"
       inkscape:connector-curvature="0"
       style="fill:#64afde;stroke-width:0.45636329" />
    <path
       d="m 67.014,50.196 v 2 z"
       id="path62"
       inkscape:connector-curvature="0"
       style="fill:none;stroke-width:0.45636329" />
    <path
       d="m 23.713,6.192 c 6.062,3.5 16.776,9.735 16.454,9.5 l 13.856,-8 17.321,10 17.321,-10 4.33,2.5 -17.32,10 21.65,12.5 -13.856,8 17.321,10 -4.33,2.5 -17.321,-10 -12.124,7 -21.651,-12.5 -17.32,10 -4.33,-2.5 17.32,-10 -17.32,-10 12.124,-7 -16.454,-9.5 z"
       id="path64"
       inkscape:connector-curvature="0"
       style="opacity:0.98000004;fill:#3eb0f7;stroke-width:0.45636329" />
  </g>
  <g
     transform="matrix(0.65146433,0.23600801,-0.4190307,0.29395703,165.43939,-83.919459)"
     id="g74"
     style="stroke-width:1.64948571">
    <path
       d="m 17.45,291.97 c 0.15,0.027 0.162,-14.547 0.215,-16.889 0.064,-2.851 3.941,9.163 2.715,13.63 -0.386,1.409 -2.93,3.259 -2.93,3.259 z m 1.069,1.86 c -0.098,0.115 12.517,7.414 14.519,8.63 2.437,1.481 -9.906,-1.167 -13.162,-4.463 -1.027,-1.04 -1.357,-4.167 -1.357,-4.167 z m -2.139,0 c -0.05,-0.143 -12.679,7.133 -14.733,8.258 -2.501,1.37 5.964,-7.994 10.446,-9.166 1.413,-0.37 4.287,0.908 4.287,0.908 z"
       id="path68"
       inkscape:connector-curvature="0"
       style="stroke:#000000;stroke-width:0.5443303" />
    <circle
       cx="17.309999"
       cy="293.32001"
       r="1.35"
       id="circle70"
       style="opacity:0.97000002;fill:none;stroke:#000000;stroke-width:0.28041258" />
    <circle
       cx="17.309999"
       cy="293.32001"
       r="0.23999999"
       id="circle72"
       style="opacity:0.97000002;stroke-width:1.7552433" />
  </g>
  <g
     transform="matrix(0.65146433,0.23600801,-0.4190307,0.29395703,165.8154,-54.009233)"
     id="g82"
     style="stroke-width:1.64948571">
    <path
       d="m 14.208,275.29 c 0.15,0.027 0.162,-14.547 0.215,-16.889 0.064,-2.851 3.941,9.162 2.715,13.63 -0.386,1.409 -2.93,3.259 -2.93,3.259 z m 1.07,1.85 c -0.098,0.115 12.517,7.414 14.519,8.63 2.437,1.481 -9.906,-1.167 -13.162,-4.463 -1.027,-1.04 -1.357,-4.167 -1.357,-4.167 z m -2.139,0 c -0.05,-0.143 -12.679,7.133 -14.733,8.258 -2.501,1.37 5.964,-7.995 10.446,-9.166 1.413,-0.37 4.287,0.908 4.287,0.908 z"
       id="path76"
       inkscape:connector-curvature="0"
       style="stroke:#000000;stroke-width:0.5443303" />
    <circle
       cx="14.07"
       cy="276.64001"
       r="0.23999999"
       id="circle78"
       style="opacity:0.97000002;stroke-width:1.7552433" />
    <circle
       cx="14.07"
       cy="276.64001"
       r="1.35"
       id="circle80"
       style="opacity:0.97000002;fill:none;stroke:#000000;stroke-width:0.28041258" />
  </g>
  <g
     transform="matrix(0.65146433,0.23600801,-0.4190307,0.29395703,123.79831,-57.039406)"
     id="g90"
     style="stroke-width:1.64948571">
    <path
       d="m 14.208,275.29 c 0.15,0.027 0.162,-14.547 0.215,-16.889 0.064,-2.851 3.941,9.162 2.715,13.63 -0.386,1.409 -2.93,3.259 -2.93,3.259 z m 1.07,1.85 c -0.098,0.115 12.517,7.414 14.519,8.63 2.437,1.481 -9.906,-1.167 -13.162,-4.463 -1.027,-1.04 -1.357,-4.167 -1.357,-4.167 z m -2.139,0 c -0.05,-0.143 -12.679,7.133 -14.733,8.258 -2.501,1.37 5.964,-7.995 10.446,-9.166 1.413,-0.37 4.287,0.908 4.287,0.908 z"
       id="path84"
       inkscape:connector-curvature="0"
       style="stroke:#000000;stroke-width:0.5443303" />
    <circle
       cx="14.07"
       cy="276.64001"
       r="0.23999999"
       id="circle86"
       style="opacity:0.97000002;stroke-width:1.7552433" />
    <circle
       cx="14.07"
       cy="276.64001"
       r="1.35"
       id="circle88"
       style="opacity:0.97000002;fill:none;stroke:#000000;stroke-width:0.28041258" />
  </g>
  <g
     transform="matrix(0.65146433,0.23600801,-0.4190307,0.29395703,126.05072,-84.828512)"
     id="g98"
     style="stroke-width:1.64948571">
    <path
       d="m 17.45,291.97 c 0.15,0.027 0.162,-14.547 0.215,-16.889 0.064,-2.851 3.941,9.162 2.715,13.63 -0.386,1.409 -2.93,3.259 -2.93,3.259 z m 1.069,1.86 c -0.098,0.115 12.517,7.414 14.519,8.63 2.437,1.481 -9.906,-1.167 -13.162,-4.463 -1.027,-1.04 -1.357,-4.167 -1.357,-4.167 z m -2.139,0 c -0.05,-0.143 -12.679,7.133 -14.733,8.258 -2.501,1.37 5.964,-7.995 10.446,-9.166 1.413,-0.37 4.287,0.908 4.287,0.908 z"
       id="path92"
       inkscape:connector-curvature="0"
       style="stroke:#000000;stroke-width:0.5443303" />
    <circle
       cx="17.309999"
       cy="293.32001"
       r="0.23999999"
       id="circle94"
       style="opacity:0.97000002;stroke-width:1.7552433" />
    <circle
       cx="17.309999"
       cy="293.32001"
       r="1.35"
       id="circle96"
       style="opacity:0.97000002;fill:none;stroke:#000000;stroke-width:0.28041258" />
  </g>
  <g
     id="g104"
     transform="matrix(0.60646467,0,0,0.60603449,0.08679868,0.04116502)"
     style="stroke:#000000;stroke-width:0.4288663">
    <path
       d="m 60.086,71.196 33.775,-19.5 -1.732,-19 -31.969,18.512 z m 0,-20 v 20 l -31.177,-18 v -20 z"
       id="path100"
       inkscape:connector-curvature="0"
       style="fill:#c08f4f;stroke-width:0.45636329" />
    <path
       d="m 61.818,49.196 32.909,-17 v 13 l -32.909,18 z"
       id="path102"
       inkscape:connector-curvature="0"
       style="fill:#64afde;stroke-width:0.45636329" />
  </g>
  <g
     id="g110"
     transform="matrix(0.60646467,0,0,0.60603449,0.08679868,0.04116502)"
     style="fill:#3eb0f7;stroke:#000000;stroke-width:0.4288663">
    <path
       d="m 26.311,28.692 -2.598,-1.5 v -2 l 43.3,25 30.312,-17.5 v 2 l -30.311,17.5 -2.598,-1.5 z m 66.684,-18.5 v 2 l -15.588,9 -1.732,-1 z"
       id="path106"
       inkscape:connector-curvature="0"
       style="stroke-width:0.4288663" />
    <path
       d="m 100.789,50.696 v 2 l -4.33,2.5 v -2 l -17.321,-10 v 2 l 17.32,10 v -2 z M 19.383,8.692 v 2 l 14.722,8.5 1.732,-1 z"
       id="path108"
       inkscape:connector-curvature="0"
       style="stroke-width:0.4288663" />
  </g>
  <g
     id="g118"
     transform="matrix(0.60646467,0,0,0.60603449,0.08679868,0.04116502)"
     style="stroke:#000000;stroke-width:0.4288663">
    <path
       d="m 27.177,43.192 1.732,1 v -11 l 31.177,18 v 11 l 1.732,1 v -14 l -34.641,-20 z"
       id="path112"
       inkscape:connector-curvature="0"
       style="fill:#64afde;stroke-width:0.45636329" />
    <path
       d="m 67.014,50.196 v 2 z"
       id="path114"
       inkscape:connector-curvature="0"
       style="fill:none;stroke-width:0.45636329" />
    <path
       d="m 23.713,6.192 c 6.062,3.5 16.776,9.735 16.454,9.5 l 13.856,-8 17.321,10 17.321,-10 4.33,2.5 -17.32,10 21.65,12.5 -13.856,8 17.321,10 -4.33,2.5 -17.321,-10 -12.124,7 -21.651,-12.5 -17.32,10 -4.33,-2.5 17.32,-10 -17.32,-10 12.124,-7 -16.454,-9.5 z"
       id="path116"
       inkscape:connector-curvature="0"
       style="opacity:0.98000004;fill:#3eb0f7;stroke-width:0.45636329" />
  </g>
  <g
     transform="matrix(0.65146433,0.23600801,-0.4190307,0.29395703,165.43939,-83.919459)"
     id="g126"
     style="stroke-width:1.64948571">
    <path
       d="m 17.45,291.97 c 0.15,0.027 0.162,-14.547 0.215,-16.889 0.064,-2.851 3.941,9.163 2.715,13.63 -0.386,1.409 -2.93,3.259 -2.93,3.259 z m 1.069,1.86 c -0.098,0.115 12.517,7.414 14.519,8.63 2.437,1.481 -9.906,-1.167 -13.162,-4.463 -1.027,-1.04 -1.357,-4.167 -1.357,-4.167 z m -2.139,0 c -0.05,-0.143 -12.679,7.133 -14.733,8.258 -2.501,1.37 5.964,-7.994 10.446,-9.166 1.413,-0.37 4.287,0.908 4.287,0.908 z"
       id="path120"
       inkscape:connector-curvature="0"
       style="stroke:#000000;stroke-width:0.5443303" />
    <circle
       cx="17.309999"
       cy="293.32001"
       r="1.35"
       id="circle122"
       style="opacity:0.97000002;fill:none;stroke:#000000;stroke-width:0.28041258" />
    <circle
       cx="17.309999"
       cy="293.32001"
       r="0.23999999"
       id="circle124"
       style="opacity:0.97000002;stroke-width:1.7552433" />
  </g>
  <g
     transform="matrix(0.65146433,0.23600801,-0.4190307,0.29395703,165.8154,-54.009233)"
     id="g134"
     style="stroke-width:1.64948571">
    <path
       d="m 14.208,275.29 c 0.15,0.027 0.162,-14.547 0.215,-16.889 0.064,-2.851 3.941,9.162 2.715,13.63 -0.386,1.409 -2.93,3.259 -2.93,3.259 z m 1.07,1.85 c -0.098,0.115 12.517,7.414 14.519,8.63 2.437,1.481 -9.906,-1.167 -13.162,-4.463 -1.027,-1.04 -1.357,-4.167 -1.357,-4.167 z m -2.139,0 c -0.05,-0.143 -12.679,7.133 -14.733,8.258 -2.501,1.37 5.964,-7.995 10.446,-9.166 1.413,-0.37 4.287,0.908 4.287,0.908 z"
       id="path128"
       inkscape:connector-curvature="0"
       style="stroke:#000000;stroke-width:0.5443303" />
    <circle
       cx="14.07"
       cy="276.64001"
       r="0.23999999"
       id="circle130"
       style="opacity:0.97000002;stroke-width:1.7552433" />
    <circle
       cx="14.07"
       cy="276.64001"
       r="1.35"
       id="circle132"
       style="opacity:0.97000002;fill:none;stroke:#000000;stroke-width:0.28041258" />
  </g>
  <g
     transform="matrix(0.65146433,0.23600801,-0.4190307,0.29395703,123.79831,-57.039406)"
     id="g142"
     style="stroke-width:1.64948571">
    <path
       d="m 14.208,275.29 c 0.15,0.027 0.162,-14.547 0.215,-16.889 0.064,-2.851 3.941,9.162 2.715,13.63 -0.386,1.409 -2.93,3.259 -2.93,3.259 z m 1.07,1.85 c -0.098,0.115 12.517,7.414 14.519,8.63 2.437,1.481 -9.906,-1.167 -13.162,-4.463 -1.027,-1.04 -1.357,-4.167 -1.357,-4.167 z m -2.139,0 c -0.05,-0.143 -12.679,7.133 -14.733,8.258 -2.501,1.37 5.964,-7.995 10.446,-9.166 1.413,-0.37 4.287,0.908 4.287,0.908 z"
       id="path136"
       inkscape:connector-curvature="0"
       style="stroke:#000000;stroke-width:0.5443303" />
    <circle
       cx="14.07"
       cy="276.64001"
       r="0.23999999"
       id="circle138"
       style="opacity:0.97000002;stroke-width:1.7552433" />
    <circle
       cx="14.07"
       cy="276.64001"
       r="1.35"
       id="circle140"
       style="opacity:0.97000002;fill:none;stroke:#000000;stroke-width:0.28041258" />
  </g>
  <g
     id="g148"
     transform="matrix(0.60646467,0,0,0.60603449,0.08679868,0.04116502)"
     style="stroke:#000000;stroke-width:0.4288663">
    <path
       d="m 60.086,71.196 33.775,-19.5 -1.732,-19 -31.969,18.512 z m 0,-20 v 20 l -31.177,-18 v -20 z"
       id="path144"
       inkscape:connector-curvature="0"
       style="fill:#c08f4f;stroke-width:0.45636329" />
    <path
       d="m 61.818,49.196 32.909,-17 v 13 l -32.909,18 z"
       id="path146"
       inkscape:connector-curvature="0"
       style="fill:#64afde;stroke-width:0.45636329" />
  </g>
  <g
     id="g154"
     transform="matrix(0.60646467,0,0,0.60603449,0.08679868,0.04116502)"
     style="fill:#3eb0f7;stroke:#000000;stroke-width:0.4288663">
    <path
       d="m 26.311,28.692 -2.598,-1.5 v -2 l 43.3,25 30.312,-17.5 v 2 l -30.311,17.5 -2.598,-1.5 z m 66.684,-18.5 v 2 l -15.588,9 -1.732,-1 z"
       id="path150"
       inkscape:connector-curvature="0"
       style="stroke-width:0.4288663" />
    <path
       d="m 100.789,50.696 v 2 l -4.33,2.5 v -2 l -17.321,-10 v 2 l 17.32,10 v -2 z M 19.383,8.692 v 2 l 14.722,8.5 1.732,-1 z"
       id="path152"
       inkscape:connector-curvature="0"
       style="stroke-width:0.4288663" />
  </g>
  <g
     id="g162"
     transform="matrix(0.60646467,0,0,0.60603449,0.08679868,0.04116502)"
     style="stroke:#000000;stroke-width:0.4288663">
    <path
       d="m 27.177,43.192 1.732,1 v -11 l 31.177,18 v 11 l 1.732,1 v -14 l -34.641,-20 z"
       id="path156"
       inkscape:connector-curvature="0"
       style="fill:#64afde;stroke-width:0.45636329" />
    <path
       d="m 67.014,50.196 v 2 z"
       id="path158"
       inkscape:connector-curvature="0"
       style="fill:none;stroke-width:0.45636329" />
    <path
       d="m 23.713,6.192 c 6.062,3.5 16.776,9.735 16.454,9.5 l 13.856,-8 17.321,10 17.321,-10 4.33,2.5 -17.32,10 21.65,12.5 -13.856,8 17.321,10 -4.33,2.5 -17.321,-10 -12.124,7 -21.651,-12.5 -17.32,10 -4.33,-2.5 17.32,-10 -17.32,-10 12.124,-7 -16.454,-9.5 z"
       id="path160"
       inkscape:connector-curvature="0"
       style="opacity:0.98000004;fill:#3eb0f7;stroke-width:0.45636329" />
  </g>
  <g
     transform="matrix(0.65146433,0.23600801,-0.4190307,0.29395703,165.43939,-83.919459)"
     id="g170"
     style="stroke-width:1.64948571">
    <path
       d="m 17.45,291.97 c 0.15,0.027 0.162,-14.547 0.215,-16.889 0.064,-2.851 3.941,9.163 2.715,13.63 -0.386,1.409 -2.93,3.259 -2.93,3.259 z m 1.069,1.86 c -0.098,0.115 12.517,7.414 14.519,8.63 2.437,1.481 -9.906,-1.167 -13.162,-4.463 -1.027,-1.04 -1.357,-4.167 -1.357,-4.167 z m -2.139,0 c -0.05,-0.143 -12.679,7.133 -14.733,8.258 -2.501,1.37 5.964,-7.994 10.446,-9.166 1.413,-0.37 4.287,0.908 4.287,0.908 z"
       id="path164"
       inkscape:connector-curvature="0"
       style="stroke:#000000;stroke-width:0.5443303" />
    <circle
       cx="17.309999"
       cy="293.32001"
       r="1.35"
       id="circle166"
       style="opacity:0.97000002;fill:none;stroke:#000000;stroke-width:0.28041258" />
    <circle
       cx="17.309999"
       cy="293.32001"
       r="0.23999999"
       id="circle168"
       style="opacity:0.97000002;stroke-width:1.7552433" />
  </g>
  <g
     transform="matrix(0.65146433,0.23600801,-0.4190307,0.29395703,165.8154,-54.009233)"
     id="g178"
     style="stroke-width:1.64948571">
    <path
       d="m 14.208,275.29 c 0.15,0.027 0.162,-14.547 0.215,-16.889 0.064,-2.851 3.941,9.162 2.715,13.63 -0.386,1.409 -2.93,3.259 -2.93,3.259 z m 1.07,1.85 c -0.098,0.115 12.517,7.414 14.519,8.63 2.437,1.481 -9.906,-1.167 -13.162,-4.463 -1.027,-1.04 -1.357,-4.167 -1.357,-4.167 z m -2.139,0 c -0.05,-0.143 -12.679,7.133 -14.733,8.258 -2.501,1.37 5.964,-7.995 10.446,-9.166 1.413,-0.37 4.287,0.908 4.287,0.908 z"
       id="path172"
       inkscape:connector-curvature="0"
       style="stroke:#000000;stroke-width:0.5443303" />
    <circle
       cx="14.07"
       cy="276.64001"
       r="0.23999999"
       id="circle174"
       style="opacity:0.97000002;stroke-width:1.7552433" />
    <circle
       cx="14.07"
       cy="276.64001"
       r="1.35"
       id="circle176"
       style="opacity:0.97000002;fill:none;stroke:#000000;stroke-width:0.28041258" />
  </g>
  <g
     transform="matrix(0.65146433,0.23600801,-0.4190307,0.29395703,126.05072,-84.828512)"
     id="g186"
     style="stroke-width:1.64948571">
    <path
       d="m 17.45,291.97 c 0.15,0.027 0.162,-14.547 0.215,-16.889 0.064,-2.851 3.941,9.162 2.715,13.63 -0.386,1.409 -2.93,3.259 -2.93,3.259 z m 1.069,1.86 c -0.098,0.115 12.517,7.414 14.519,8.63 2.437,1.481 -9.906,-1.167 -13.162,-4.463 -1.027,-1.04 -1.357,-4.167 -1.357,-4.167 z m -2.139,0 c -0.05,-0.143 -12.679,7.133 -14.733,8.258 -2.501,1.37 5.964,-7.995 10.446,-9.166 1.413,-0.37 4.287,0.908 4.287,0.908 z"
       id="path180"
       inkscape:connector-curvature="0"
       style="stroke:#000000;stroke-width:0.5443303" />
    <circle
       cx="17.309999"
       cy="293.32001"
       r="0.23999999"
       id="circle182"
       style="opacity:0.97000002;stroke-width:1.7552433" />
    <circle
       cx="17.309999"
       cy="293.32001"
       r="1.35"
       id="circle184"
       style="opacity:0.97000002;fill:none;stroke:#000000;stroke-width:0.28041258" />
  </g>
  <path
     d="m 26.136882,14.534479 -3.015343,1.739319 1.084359,0.625428 h 0.0012 c 0.62951,0.336955 1.504639,0.395134 1.975256,0.123631 0.337194,-0.193931 0.381466,-0.508463 0.164958,-0.804208 0.334769,0.02909 0.654982,-0.01636 0.875129,-0.143024 0.42877,-0.247868 0.333555,-0.721181 -0.225605,-1.044198 l -0.490024,-0.283018 z m 0.04973,0.398771 0.489417,0.283018 c 0.342653,0.197568 0.406331,0.475737 0.143732,0.627246 -0.261992,0.151509 -0.732609,0.106662 -1.074655,-0.0909 l -0.490023,-0.282412 z m 1.09103,1.704169 -1.763599,1.016926 1.174722,0.677547 0.32082,-0.184841 -0.804172,-0.464223 0.453029,-0.260594 0.804172,0.463616 0.32082,-0.18484 -0.804779,-0.464223 0.348717,-0.201203 0.804173,0.464222 0.320819,-0.18484 z m 1.399721,0.807844 -0.32082,0.18484 0.402693,0.232112 -1.443386,0.832085 0.37055,0.21393 1.442779,-0.832085 0.402086,0.232111 0.32082,-0.185447 z m 1.433682,0.827237 -0.320819,0.184841 0.402086,0.232111 -1.442173,0.832085 0.369943,0.21393 1.44278,-0.832085 0.402086,0.232111 0.320819,-0.18484 z m 1.546485,0.892689 -1.762993,1.016926 1.174723,0.678152 0.320819,-0.185446 -0.804172,-0.464223 0.453029,-0.260594 0.804172,0.463616 0.32082,-0.184841 -0.804778,-0.464222 0.34811,-0.200598 0.804779,0.464223 0.32082,-0.185447 z m 1.653829,0.954504 -1.762992,1.016926 0.369943,0.213324 1.442779,-0.832085 0.454849,0.262413 c 0.191643,0.110904 0.169204,0.232111 0.0849,0.273321 -0.08369,0.04182 -0.24865,0.03454 -0.440293,-0.07636 l -0.445752,-0.257565 -0.322639,0.184235 0.445751,0.256958 0.0085,0.0048 c 0.113408,0.08727 -0.408151,0.465435 -0.559767,0.566642 l 0.361452,0.212112 c 0.215902,-0.139388 0.548851,-0.404831 0.634969,-0.641184 0.240766,0.03333 0.486991,0.01091 0.631936,-0.06848 0.249257,-0.135752 0.235309,-0.458162 -0.07884,-0.639366 l -0.454848,-0.262413 z m -8.37649,-4.46405 0.687125,0.396347 c 0.360846,0.22302 0.395415,0.541795 0.106131,0.708454 -0.283825,0.16363 -0.821153,0.148478 -1.205652,-0.04849 L 23.81291,16.302275 Z m 11.989807,5.104628 -0.32082,0.184841 0.665898,0.384226 -2.694522,1.553872 0.369943,0.213325 2.694523,-1.553873 0.665292,0.384226 0.321426,-0.184841 -1.036449,-0.597549 z m 0.09097,1.92113 c -0.04245,-0.02424 -0.105525,-0.02727 -0.141912,-0.0061 l -1.263873,0.729059 c -0.03639,0.02121 -0.03214,0.05757 0.01031,0.08181 l 1.459155,0.842388 c 0.04185,0.02424 0.104918,0.02667 0.141912,0.0055 l 1.263873,-0.729059 c 0.03639,-0.02121 0.03154,-0.05757 -0.01031,-0.08182 z m 0.05276,0.423012 0.672569,0.387862 c 0.04185,0.02424 0.0461,0.06121 0.0097,0.08242 l -0.582206,0.335743 c -0.03639,0.02121 -0.100067,0.01818 -0.141913,-0.0061 l -0.67257,-0.387861 c -0.04245,-0.02424 -0.04669,-0.0606 -0.01031,-0.08181 l 0.582206,-0.335743 c 0.037,-0.02121 0.100067,-0.01818 0.142519,0.0061 z m 4.541814,0.359984 -3.015342,1.73932 0.369943,0.213324 1.443386,-0.832085 1.330583,0.767845 0.321426,-0.18484 -1.331796,-0.768452 0.93153,-0.536947 1.330583,0.768452 0.321427,-0.184841 -1.331797,-0.768451 z m 0.673782,1.833255 -1.762992,1.016926 1.174721,0.677546 0.32082,-0.18484 -0.804778,-0.464223 1.442779,-0.832085 z m 1.326945,0.765421 -0.0279,1.046622 -1.387591,0.171508 0.407544,0.234535 2.91285,-0.353318 -0.416641,-0.240596 -1.075262,0.133328 -0.0079,-0.758149 z"
     id="path188"
     inkscape:connector-curvature="0"
     style="opacity:0.79000005;fill:#000010;stroke-width:0.99999994" />
  <g
     id="g196"
     transform="matrix(0.60646467,0,0,0.60603449,0.08679868,0.04116502)"
     style="stroke:#000000;stroke-width:1.64948571">
    <path
       d="m 55.148,11.801 -13.633,7.869 1.674,0.966 6.523,-3.765 5.529,3.193 -6.523,3.765 7.152,4.13 10.414,6.015 1.45,-0.837 -9.9,-5.717 6.87,-1.89 13.85,7.999 1.45,-0.837 -13.337,-7.702 5.702,-1.568 17.837,10.3 1.45,-0.836 -19.062,-11.01 -6.301,1.788 -1.036,-6.025 -0.05,-0.01 0.017,-0.009 -8.404,-4.852 z m 0.224,1.804 7.96,4.596 0.837,6.066 -7.909,2.243 -4.418,-2.551 6.523,-3.765 -7.203,-4.16 z"
       id="path190"
       inkscape:connector-curvature="0"
       style="opacity:0.79000005;fill:#36baed;stroke-width:0.16494858" />
    <path
       d="m 23.713,45.192 v 2 l 4.33,2.5 v -2 l 17.321,-10 v 2 l -17.32,10 v -2 z"
       id="path192"
       inkscape:connector-curvature="0"
       style="fill:#3eb0f7;fill-opacity:0.98000004;stroke-width:0.4288663" />
    <path
       d="m 23.713,45.192 v 2 l 4.33,2.5 v -2 l 17.321,-10 v 2 l -17.32,10 v -2 z"
       id="path194"
       inkscape:connector-curvature="0"
       style="fill:#3eb0f7;fill-opacity:0.98000004;stroke-width:0.4288663" />
  </g>
  <path
     d="m 26.136882,14.534479 -3.015343,1.739319 1.084359,0.625428 h 0.0012 c 0.62951,0.336955 1.504639,0.395134 1.975256,0.123631 0.337194,-0.193931 0.381466,-0.508463 0.164958,-0.804208 0.334769,0.02909 0.654982,-0.01636 0.875129,-0.143024 0.42877,-0.247868 0.333555,-0.721181 -0.225605,-1.044198 l -0.490024,-0.283018 z m 0.04973,0.398771 0.489417,0.283018 c 0.342653,0.197568 0.406331,0.475737 0.143732,0.627246 -0.261992,0.151509 -0.732609,0.106662 -1.074655,-0.0909 l -0.490023,-0.282412 z m 1.09103,1.704169 -1.763599,1.016926 1.174722,0.677547 0.32082,-0.184841 -0.804172,-0.464223 0.453029,-0.260594 0.804172,0.463616 0.32082,-0.18484 -0.804779,-0.464223 0.348717,-0.201203 0.804173,0.464222 0.320819,-0.18484 z m 1.399721,0.807844 -0.32082,0.18484 0.402693,0.232112 -1.443386,0.832085 0.37055,0.21393 1.442779,-0.832085 0.402086,0.232111 0.32082,-0.185447 z m 1.433682,0.827237 -0.320819,0.184841 0.402086,0.232111 -1.442173,0.832085 0.369943,0.21393 1.44278,-0.832085 0.402086,0.232111 0.320819,-0.18484 z m 1.546485,0.892689 -1.762993,1.016926 1.174723,0.678152 0.320819,-0.185446 -0.804172,-0.464223 0.453029,-0.260594 0.804172,0.463616 0.32082,-0.184841 -0.804778,-0.464222 0.34811,-0.200598 0.804779,0.464223 0.32082,-0.185447 z m 1.653829,0.954504 -1.762992,1.016926 0.369943,0.213324 1.442779,-0.832085 0.454849,0.262413 c 0.191643,0.110904 0.169204,0.232111 0.0849,0.273321 -0.08369,0.04182 -0.24865,0.03454 -0.440293,-0.07636 l -0.445752,-0.257565 -0.322639,0.184235 0.445751,0.256958 0.0085,0.0048 c 0.113408,0.08727 -0.408151,0.465435 -0.559767,0.566642 l 0.361452,0.212112 c 0.215902,-0.139388 0.548851,-0.404831 0.634969,-0.641184 0.240766,0.03333 0.486991,0.01091 0.631936,-0.06848 0.249257,-0.135752 0.235309,-0.458162 -0.07884,-0.639366 l -0.454848,-0.262413 z m -8.37649,-4.46405 0.687125,0.396347 c 0.360846,0.22302 0.395415,0.541795 0.106131,0.708454 -0.283825,0.16363 -0.821153,0.148478 -1.205652,-0.04849 L 23.81291,16.302275 Z m 11.989807,5.104628 -0.32082,0.184841 0.665898,0.384226 -2.694522,1.553872 0.369943,0.213325 2.694523,-1.553873 0.665292,0.384226 0.321426,-0.184841 -1.036449,-0.597549 z m 0.09097,1.92113 c -0.04245,-0.02424 -0.105525,-0.02727 -0.141912,-0.0061 l -1.263873,0.729059 c -0.03639,0.02121 -0.03214,0.05757 0.01031,0.08181 l 1.459155,0.842388 c 0.04185,0.02424 0.104918,0.02667 0.141912,0.0055 l 1.263873,-0.729059 c 0.03639,-0.02121 0.03154,-0.05757 -0.01031,-0.08182 z m 0.05276,0.423012 0.672569,0.387862 c 0.04185,0.02424 0.0461,0.06121 0.0097,0.08242 l -0.582206,0.335743 c -0.03639,0.02121 -0.100067,0.01818 -0.141913,-0.0061 l -0.67257,-0.387861 c -0.04245,-0.02424 -0.04669,-0.0606 -0.01031,-0.08181 l 0.582206,-0.335743 c 0.037,-0.02121 0.100067,-0.01818 0.142519,0.0061 z m 4.541814,0.359984 -3.015342,1.73932 0.369943,0.213324 1.443386,-0.832085 1.330583,0.767845 0.321426,-0.18484 -1.331796,-0.768452 0.93153,-0.536947 1.330583,0.768452 0.321427,-0.184841 -1.331797,-0.768451 z m 0.673782,1.833255 -1.762992,1.016926 1.174721,0.677546 0.32082,-0.18484 -0.804778,-0.464223 1.442779,-0.832085 z m 1.326945,0.765421 -0.0279,1.046622 -1.387591,0.171508 0.407544,0.234535 2.91285,-0.353318 -0.416641,-0.240596 -1.075262,0.133328 -0.0079,-0.758149 z"
     id="path198"
     inkscape:connector-curvature="0"
     style="opacity:0.79000005;fill:#000010;stroke-width:0.99999994" />
  <path
     d="m 14.467895,27.429075 v 1.212069 l 2.625992,1.515087 v -1.21207 l 10.504575,-6.060344 v 1.212069 l -10.503968,6.060345 v -1.21207 z"
     id="path200"
     inkscape:connector-curvature="0"
     style="fill:#3eb0f7;fill-opacity:0.98000004;stroke:#000000;stroke-width:0.25999999" />
  <g
     transform="matrix(0.65146433,0.23600801,-0.4190307,0.29395703,123.79831,-57.039406)"
     id="g208"
     style="stroke-width:1.64948571">
    <path
       d="m 14.208,275.29 c 0.15,0.027 0.162,-14.547 0.215,-16.889 0.064,-2.851 3.941,9.162 2.715,13.63 -0.386,1.409 -2.93,3.259 -2.93,3.259 z m 1.07,1.85 c -0.098,0.115 12.517,7.414 14.519,8.63 2.437,1.481 -9.906,-1.167 -13.162,-4.463 -1.027,-1.04 -1.357,-4.167 -1.357,-4.167 z m -2.139,0 c -0.05,-0.143 -12.679,7.133 -14.733,8.258 -2.501,1.37 5.964,-7.995 10.446,-9.166 1.413,-0.37 4.287,0.908 4.287,0.908 z"
       id="path202"
       inkscape:connector-curvature="0"
       style="stroke:#000000;stroke-width:0.5443303" />
    <circle
       cx="14.07"
       cy="276.64001"
       r="0.23999999"
       id="circle204"
       style="opacity:0.97000002;stroke-width:1.7552433" />
    <circle
       cx="14.07"
       cy="276.64001"
       r="1.35"
       id="circle206"
       style="opacity:0.97000002;fill:none;stroke:#000000;stroke-width:0.28041258" />
  </g>
</svg>
