<?xml version="1.0" encoding="UTF-8" standalone="no"?>
<!-- Created with Inkscape (http://www.inkscape.org/) -->

<svg
   xmlns:dc="http://purl.org/dc/elements/1.1/"
   xmlns:cc="http://creativecommons.org/ns#"
   xmlns:rdf="http://www.w3.org/1999/02/22-rdf-syntax-ns#"
   xmlns:svg="http://www.w3.org/2000/svg"
   xmlns="http://www.w3.org/2000/svg"
   xmlns:sodipodi="http://sodipodi.sourceforge.net/DTD/sodipodi-0.dtd"
   xmlns:inkscape="http://www.inkscape.org/namespaces/inkscape"
   id="svg1955"
   width="1e3"
   height="300"
   inkscape:export-filename="C:\Users\Marcus T\Desktop\Xampp\htdocs\Web_Publishing\Flyee\images\home\Promotion1.png"
   inkscape:export-xdpi="300"
   inkscape:export-ydpi="300"
   inkscape:version="0.92.4 (5da689c313, 2019-01-14)"
   sodipodi:docname="Promotion1.svg"
   version="1.1"
   viewBox="0 0 264.58 79.375">
  <defs
     id="defs13" />
  <sodipodi:namedview
     id="base"
     bordercolor="#666666"
     borderopacity="1.0"
     inkscape:bbox-nodes="false"
     inkscape:current-layer="layer1"
     inkscape:cx="534.84477"
     inkscape:cy="-102.13102"
     inkscape:document-units="mm"
     inkscape:guide-bbox="true"
     inkscape:pagecheckerboard="false"
     inkscape:pageopacity="1"
     inkscape:pageshadow="2"
     inkscape:snap-bbox="true"
     inkscape:snap-page="true"
     inkscape:window-height="1001"
     inkscape:window-maximized="1"
     inkscape:window-width="1920"
     inkscape:window-x="-9"
     inkscape:window-y="-9"
     inkscape:zoom="0.90509668"
     pagecolor="#726f78"
     showgrid="false"
     showguides="true"
     units="px">
    <sodipodi:guide
       id="guide3300"
       inkscape:locked="false"
       orientation="1,0"
       position="0,0" />
    <sodipodi:guide
       id="guide3302"
       inkscape:locked="false"
       orientation="0,1"
       position="0,79.375001" />
  </sodipodi:namedview>
  <metadata
     id="metadata1952">
    <rdf:RDF>
      <cc:Work
         rdf:about="">
        <dc:format>image/svg+xml</dc:format>
        <dc:type
           rdf:resource="http://purl.org/dc/dcmitype/StillImage" />
        <dc:title></dc:title>
      </cc:Work>
    </rdf:RDF>
  </metadata>
  <g
     id="layer1"
     transform="translate(0 -217.62)"
     inkscape:groupmode="layer"
     inkscape:label="Layer 1">
    <text
       id="text3298"
       transform="scale(1.0001 .99986)"
       x="7.5483966"
       y="263.78284"
       fill="#000000"
       font-family="Futura-Bold"
       font-size="17.069px"
       letter-spacing="0px"
       stroke-width=".26458"
       word-spacing="0px"
       style="line-height:1.25"
       xml:space="preserve"><tspan
         id="tspan3296"
         x="7.5483966"
         y="263.78284"
         fill="#000000"
         font-family="Futura-Bold"
         stroke-width=".26458"
         sodipodi:role="line"> WELCOME TO </tspan></text>
    <g
       id="g3320"
       transform="matrix(1.6578 0 0 1.6583 145.21 224.37)">
      <path
         id="path2-6"
         d="m.05 29.729v9.9778h3.1056v-.0032c1.7394-.07496 3.1375-1.3573 3.1375-2.9139 0-1.1149-.71742-2.0893-1.7617-2.579.55321-.4705.89758-1.1308.89758-1.8581 0-1.4195-1.3121-2.6221-2.9143-2.6221h-1.403zm30.91 0v1.0606h1.9068v8.9156h1.0602v-8.9156h1.9068v-1.0606h-2.9669zm12.922 0v9.9778h1.0602v-4.7736h3.8135v-1.0606h-3.8135v-3.0814h3.8135v-1.0606h-3.8135zm-42.77 1.0622h1.403c.98048 0 1.7633.69379 1.7633 1.5614s-.78279 1.52-1.7633 1.52h-1.403zm34.691 3.0734v5.8422h3.4691v-5.8422zm-28.898.0063v5.8342h3.3639v-1.0622h-2.3037v-1.4992h2.3037v-1.0606h-2.3037v-1.1515h2.3037v-1.0606h-2.3037zm4.0096 0v1.0606h1.1527v4.7752h1.0602v-4.7736h1.1527v-1.0606h-2.2129zm4.1084 0v1.0606h1.1511v4.7752h1.0618v-4.7736h1.1527v-1.0606h-2.2129zm4.4321 0v5.8342h3.3639v-1.0622h-2.3037v-1.4992h2.3037v-1.0606h-2.3037v-1.1515h2.3037v-1.0606h-2.3037zm4.7366 0v5.8342h1.0602v-4.7736h1.3025c.55002 0 .81946.38438.80192.64275-.01594.2504-.25508.49443-.77003.50878h-1.328l-.0063 1.0622h1.3025c.37784.06061.56916 2.0096.60423 2.5519l1.0443.0079-.0063-.11165c-.04782-.76875-.23436-1.9952-.67757-2.7768.43045-.30304.7254-.77513.73656-1.2424.01913-.80225-.80192-1.7034-1.7011-1.7034h-1.3025zm25.205 0v5.8342h3.3639v-1.0622h-2.3037v-4.772zm3.8008 0 2.5588 3.0463-1.5624 2.7879h1.1686l3.2938-5.8342h-1.1941l-1.2101 2.1611-1.894-2.1611zm-52.088 1.0607h1.9689c1.0698.04306 1.9115.89954 1.9115 1.8565 0 .93782-.8067 1.7847-1.8478 1.8565h-2.0327zm35.538.35726h1.776v2.9905h-1.776z"
         opacity=".79"
         stroke-width=".60309"
         inkscape:connector-curvature="0" />
      <path
         id="path4"
         d="m.053189.057602v3.0894l-.0031886 8.9714v16.989h3.0881v-13.9h10.203v10.81l-.0016 3.091h13.196l19.216.0048v-3.091h-18.264l3.3193-10.81 25.556.0032v-3.0894l-24.608-.0032 2.7549-8.9698 32.912.00633v-3.0909l-35.174-.0063311-2.959 10.013-10.58-10.015-.060587.035092v-.035092l-15.506-.0016079zm3.0881 3.0894 14.686.0016079 10.465 10.303-3.7115 12.568h-8.1531l.0016-13.9-13.29-.0016z"
         fill="#36baed"
         opacity=".79"
         stroke="#000000"
         stroke-width=".060309"
         inkscape:connector-curvature="0" />
    </g>
  </g>
</svg>
